<svg width="20" height="20" viewBox="0 0 20 20" fill="none" xmlns="http://www.w3.org/2000/svg">
<path d="M18.3334 3V9.16667H1.66669V3C1.66669 2.86739 1.71937 2.74021 1.81313 2.64645C1.9069 2.55268 2.03408 2.5 2.16669 2.5H17.8334C17.966 2.5 18.0931 2.55268 18.1869 2.64645C18.2807 2.74021 18.3334 2.86739 18.3334 3V3Z" stroke="#EAB221" stroke-width="1.5" stroke-linecap="round" stroke-linejoin="round"/>
<path d="M15 5.83325H15.8333" stroke="#EAB221" stroke-width="1.5" stroke-linecap="round" stroke-linejoin="round"/>
<path d="M1.66669 9.16675L2.32502 11.3201C2.42924 11.6615 2.64031 11.9604 2.92714 12.1728C3.21397 12.3852 3.56143 12.4999 3.91835 12.5001H5.00002" stroke="#EAB221" stroke-width="1.5" stroke-linecap="round" stroke-linejoin="round"/>
<path d="M18.3333 9.16675L17.675 11.3201C17.5708 11.6615 17.3597 11.9604 17.0729 12.1728C16.786 12.3852 16.4386 12.4999 16.0817 12.5001H15" stroke="#EAB221" stroke-width="1.5" stroke-linecap="round" stroke-linejoin="round"/>
<path d="M7.91667 12.0833C7.91667 12.0833 7.91667 17.9166 5 17.9166" stroke="#EAB221" stroke-width="1.5" stroke-linecap="round" stroke-linejoin="round"/>
<path d="M12.0834 12.0833C12.0834 12.0833 12.0834 17.9166 15 17.9166" stroke="#EAB221" stroke-width="1.5" stroke-linecap="round" stroke-linejoin="round"/>
<path d="M10 12.0833V17.9166" stroke="#EAB221" stroke-width="1.5" stroke-linecap="round" stroke-linejoin="round"/>
</svg>
