<svg width="20" height="18" viewBox="0 0 20 18" fill="none" xmlns="http://www.w3.org/2000/svg">
<path d="M18.3334 2V8.16667H1.66669V2C1.66669 1.86739 1.71937 1.74021 1.81313 1.64645C1.9069 1.55268 2.03408 1.5 2.16669 1.5H17.8334C17.966 1.5 18.0931 1.55268 18.1869 1.64645C18.2807 1.74021 18.3334 1.86739 18.3334 2V2Z" stroke="#EAB221" stroke-width="1.5" stroke-linecap="round" stroke-linejoin="round"/>
<path d="M15 4.83325H15.8333" stroke="#EAB221" stroke-width="1.5" stroke-linecap="round" stroke-linejoin="round"/>
<path d="M1.66669 8.16675L2.32502 10.3201C2.42924 10.6615 2.64031 10.9604 2.92714 11.1728C3.21397 11.3852 3.56143 11.4999 3.91835 11.5001H5.00002" stroke="#EAB221" stroke-width="1.5" stroke-linecap="round" stroke-linejoin="round"/>
<path d="M18.3333 8.16675L17.675 10.3201C17.5708 10.6615 17.3597 10.9604 17.0729 11.1728C16.786 11.3852 16.4386 11.4999 16.0817 11.5001H15" stroke="#EAB221" stroke-width="1.5" stroke-linecap="round" stroke-linejoin="round"/>
<path d="M7.91667 11.0833C7.91667 11.0833 7.91667 16.9166 5 16.9166" stroke="#EAB221" stroke-width="1.5" stroke-linecap="round" stroke-linejoin="round"/>
<path d="M12.0834 11.0833C12.0834 11.0833 12.0834 16.9166 15 16.9166" stroke="#EAB221" stroke-width="1.5" stroke-linecap="round" stroke-linejoin="round"/>
<path d="M10 11.0833V16.9166" stroke="#EAB221" stroke-width="1.5" stroke-linecap="round" stroke-linejoin="round"/>
</svg>
