<svg width="20" height="20" viewBox="0 0 20 20" fill="none" xmlns="http://www.w3.org/2000/svg">
<path d="M17.332 10.9163V3.42717C17.332 1.99717 16.1679 0.833008 14.7379 0.833008C14.0504 0.833008 13.3904 1.10801 12.9045 1.59384L11.7587 2.73967C11.612 2.69384 11.4562 2.66634 11.2912 2.66634C10.9245 2.66634 10.5854 2.77634 10.3012 2.95967L12.8312 5.48967C13.0145 5.20551 13.1245 4.86634 13.1245 4.49967C13.1245 4.33467 13.097 4.18801 13.0604 4.03217L14.2062 2.88634C14.3437 2.74884 14.5362 2.66634 14.7379 2.66634C15.1595 2.66634 15.4987 3.00551 15.4987 3.42717V10.9163H9.21953C8.94453 10.7238 8.69703 10.5038 8.46786 10.2563L7.18453 8.83551C7.01037 8.64301 6.79036 8.48717 6.55203 8.37717C6.26786 8.23967 5.9562 8.16634 5.63536 8.16634C4.4987 8.17551 3.58203 9.09217 3.58203 10.2288V10.9163H0.832031V16.4163C0.832031 17.4247 1.65703 18.2497 2.66536 18.2497C2.66536 18.7538 3.07786 19.1663 3.58203 19.1663H16.4154C16.9195 19.1663 17.332 18.7538 17.332 18.2497C18.3404 18.2497 19.1654 17.4247 19.1654 16.4163V10.9163H17.332Z" fill="#EAB221"/>
</svg>
