<svg width="12" height="14" viewBox="0 0 12 14" fill="none" xmlns="http://www.w3.org/2000/svg">
	<path fillRule="evenodd" clipRule="evenodd" d="M10.6652 6.2998H1.33185V3.4998C1.33185 3.1141 1.63118 2.7998 1.99851 2.7998H2.66518V3.4998C2.66518 3.8848 2.96518 4.1998 3.33185 4.1998C3.69851 4.1998 3.99851 3.8848 3.99851 3.4998V2.7998H7.99851V3.4998C7.99851 3.8848 8.29851 4.1998 8.66518 4.1998C9.03185 4.1998 9.33184 3.8848 9.33184 3.4998V2.7998H9.99851C10.3658 2.7998 10.6652 3.1141 10.6652 3.4998V6.2998ZM8.66927 10.4996H6.0026C5.63594 10.4996 5.33594 10.1846 5.33594 9.79961C5.33594 9.41461 5.63594 9.09961 6.0026 9.09961H8.66927C9.03594 9.09961 9.33594 9.41461 9.33594 9.79961C9.33594 10.1846 9.03594 10.4996 8.66927 10.4996ZM3.33408 10.4996C2.96741 10.4996 2.66741 10.1846 2.66741 9.79961C2.66741 9.41461 2.96741 9.09961 3.33408 9.09961C3.70074 9.09961 4.00074 9.41461 4.00074 9.79961C4.00074 10.1846 3.70074 10.4996 3.33408 10.4996ZM10 1.4H9.33333V0.7C9.33333 0.315 9.03333 0 8.66667 0C8.3 0 8 0.315 8 0.7V1.4H4V0.7C4 0.315 3.7 0 3.33333 0C2.96667 0 2.66667 0.315 2.66667 0.7V1.4H2C0.897333 1.4 0 2.3422 0 3.5V11.9C0 13.0578 0.897333 14 2 14H10C11.1027 14 12 13.0578 12 11.9V3.5C12 2.3422 11.1027 1.4 10 1.4Z" fill="#EAB221" />
</svg>
