<svg width="12" height="12" viewBox="0 0 12 12" fill="none" xmlns="http://www.w3.org/2000/svg">
<path d="M4.4635 5.02414C5.01086 5.98575 5.80722 6.78211 6.76883 7.32947L7.2845 6.6073C7.36743 6.49118 7.49004 6.40948 7.62914 6.37766C7.76823 6.34584 7.91417 6.36611 8.03933 6.43464C8.86435 6.88551 9.77545 7.15667 10.7127 7.2303C10.859 7.24189 10.9956 7.3082 11.0952 7.41599C11.1947 7.52378 11.25 7.66514 11.25 7.81189V10.4147C11.25 10.5591 11.1965 10.6985 11.0997 10.8057C11.0029 10.9129 10.8698 10.9804 10.7262 10.9951C10.417 11.0272 10.1055 11.043 9.79167 11.043C4.79833 11.043 0.75 6.99464 0.75 2.0013C0.75 1.68747 0.76575 1.37597 0.797833 1.0668C0.812565 0.923125 0.880074 0.790022 0.987294 0.693255C1.09451 0.596488 1.23382 0.542938 1.37825 0.542969H3.98108C4.12783 0.54295 4.26919 0.59824 4.37698 0.697815C4.48477 0.79739 4.55107 0.933932 4.56267 1.08022C4.6363 2.01751 4.90746 2.92862 5.35833 3.75364C5.42685 3.8788 5.44712 4.02473 5.41531 4.16383C5.38349 4.30293 5.30179 4.42554 5.18567 4.50847L4.4635 5.02414ZM2.99233 4.64088L4.10067 3.8493C3.78612 3.17036 3.57062 2.44979 3.46075 1.70964H1.9225C1.919 1.80647 1.91725 1.90389 1.91725 2.0013C1.91667 6.35064 5.44233 9.8763 9.79167 9.8763C9.88908 9.8763 9.9865 9.87455 10.0833 9.87047V8.33222C9.34318 8.22235 8.62261 8.00684 7.94367 7.6923L7.15208 8.80064C6.83339 8.6768 6.52384 8.53061 6.22575 8.36314L6.19192 8.34388C5.04775 7.69272 4.10025 6.74521 3.44908 5.60105L3.42983 5.56722C3.26236 5.26913 3.11617 4.95958 2.99233 4.64088Z" fill="#9DA8B6"/>
</svg>
