<svg width="14" height="14" viewBox="0 0 14 14" fill="none" xmlns="http://www.w3.org/2000/svg">
<path d="M6.29648 1.42013V-0.000976562C4.88241 0.139727 3.59497 0.702541 2.55377 1.5538L3.55276 2.55983C4.33367 1.9548 5.26935 1.54676 6.29648 1.42013ZM11.4462 1.5538C10.405 0.702541 9.11759 0.139727 7.70352 -0.000976562V1.42013C8.73065 1.54676 9.66633 1.9548 10.4472 2.55983L11.4462 1.5538ZM12.5789 6.29551H14C13.8593 4.88143 13.2965 3.594 12.4452 2.55279L11.4392 3.55179C12.0442 4.33269 12.4523 5.26837 12.5789 6.29551ZM2.5608 3.55179L1.55477 2.55279C0.703518 3.594 0.140704 4.88143 0 6.29551H1.42111C1.54774 5.26837 1.95578 4.33269 2.5608 3.55179ZM1.42111 7.70254H0C0.140704 9.11661 0.703518 10.404 1.55477 11.4453L2.5608 10.4392C1.95578 9.66535 1.54774 8.72968 1.42111 7.70254ZM9.11055 6.99902C9.11055 5.83118 8.16784 4.88847 7 4.88847C5.83216 4.88847 4.88945 5.83118 4.88945 6.99902C4.88945 8.16686 5.83216 9.10958 7 9.10958C8.16784 9.10958 9.11055 8.16686 9.11055 6.99902ZM11.4392 10.4463L12.4452 11.4523C13.2965 10.4111 13.8593 9.11661 14 7.70958H12.5789C12.4523 8.72968 12.0442 9.66535 11.4392 10.4463ZM7.70352 12.5779V13.999C9.11759 13.8583 10.405 13.2955 11.4462 12.4442L10.4402 11.4382C9.66633 12.0432 8.73065 12.4513 7.70352 12.5779ZM2.55377 12.4442C3.59497 13.2955 4.88945 13.8583 6.29648 13.999V12.5779C5.26935 12.4513 4.33367 12.0432 3.55276 11.4382L2.55377 12.4442Z" fill="#636366"/>
</svg>
