<svg width="18" height="18" viewBox="0 0 18 18" fill="none" xmlns="http://www.w3.org/2000/svg">
<path d="M2.33341 5.66699H15.6667V16.5003C15.6667 16.7213 15.579 16.9333 15.4227 17.0896C15.2664 17.2459 15.0544 17.3337 14.8334 17.3337H3.16675C2.94573 17.3337 2.73377 17.2459 2.57749 17.0896C2.42121 16.9333 2.33341 16.7213 2.33341 16.5003V5.66699ZM4.00008 7.33366V15.667H14.0001V7.33366H4.00008ZM6.50008 9.00033H8.16675V14.0003H6.50008V9.00033ZM9.83342 9.00033H11.5001V14.0003H9.83342V9.00033ZM4.83342 3.16699V1.50033C4.83342 1.27931 4.92121 1.06735 5.07749 0.91107C5.23377 0.75479 5.44573 0.666992 5.66675 0.666992H12.3334C12.5544 0.666992 12.7664 0.75479 12.9227 0.91107C13.079 1.06735 13.1667 1.27931 13.1667 1.50033V3.16699H17.3334V4.83366H0.666748V3.16699H4.83342ZM6.50008 2.33366V3.16699H11.5001V2.33366H6.50008Z" fill="#FF5757"/>
</svg>
