<svg width="19" height="20" viewBox="0 0 19 20" fill="none" xmlns="http://www.w3.org/2000/svg">
<path d="M7.5987 4.16634L1.61536 9.82467C1.11536 10.2913 0.832031 10.9497 0.832031 11.6413V16.6663C0.832031 18.0497 1.9487 19.1663 3.33203 19.1663H8.54036H9.9987H14.7904C15.3654 19.1663 15.832 18.6997 15.832 18.1247C15.832 17.5497 15.3654 17.083 14.7904 17.083H9.9987V16.2497H16.457C17.032 16.2497 17.4987 15.783 17.4987 15.208C17.4987 14.633 17.032 14.1663 16.457 14.1663H9.9987V13.333H17.2904C17.8654 13.333 18.332 12.8663 18.332 12.2913C18.332 11.7163 17.8654 11.2497 17.2904 11.2497H9.9987V10.4163H15.6237C16.1987 10.4163 16.6654 9.94967 16.6654 9.37467C16.6654 8.79967 16.1987 8.33301 15.6237 8.33301H7.38203C7.91536 7.40801 8.61536 6.18301 8.6237 6.15801C8.6987 6.02467 8.74036 5.88301 8.74036 5.71634C8.74036 5.49967 8.66536 5.29967 8.5237 5.13301C8.51536 5.09967 7.5987 4.16634 7.5987 4.16634ZM11.6654 5.20801C12.007 5.20801 12.2904 5.49134 12.2904 5.83301C12.2904 6.17467 12.007 6.45801 11.6654 6.45801C11.3237 6.45801 11.0404 6.17467 11.0404 5.83301C11.0404 5.49134 11.3237 5.20801 11.6654 5.20801ZM11.6654 3.95801C10.632 3.95801 9.79036 4.79967 9.79036 5.83301C9.79036 6.86634 10.632 7.70801 11.6654 7.70801C12.6987 7.70801 13.5404 6.86634 13.5404 5.83301C13.5404 4.79967 12.6987 3.95801 11.6654 3.95801ZM16.457 4.58301C16.6904 4.58301 16.8737 4.76634 16.8737 4.99967C16.8737 5.23301 16.6904 5.41634 16.457 5.41634C16.2237 5.41634 16.0404 5.23301 16.0404 4.99967C16.0404 4.76634 16.2237 4.58301 16.457 4.58301ZM16.457 3.33301C15.5404 3.33301 14.7904 4.08301 14.7904 4.99967C14.7904 5.91634 15.5404 6.66634 16.457 6.66634C17.3737 6.66634 18.1237 5.91634 18.1237 4.99967C18.1237 4.08301 17.3737 3.33301 16.457 3.33301ZM13.7487 0.833008C13.057 0.833008 12.4987 1.39134 12.4987 2.08301C12.4987 2.77467 13.057 3.33301 13.7487 3.33301C14.4404 3.33301 14.9987 2.77467 14.9987 2.08301C14.9987 1.39134 14.4404 0.833008 13.7487 0.833008Z" fill="#EAB221"/>
</svg>
