<svg width="121" height="125" viewBox="0 0 121 125" fill="none" xmlns="http://www.w3.org/2000/svg">
<path d="M1.06457 47.3933L116.957 46.5615L120.186 125L0.185547 123.89L1.06457 47.3933Z" fill="#FFCE00"/>
<path d="M1.06445 47.3938L59.8982 0L116.957 46.562" fill="#FFCE00"/>
<g opacity="0.3">
<path opacity="0.3" d="M1.06445 47.3938L59.8982 0L116.957 46.562" fill="black"/>
</g>
<path d="M0.185339 123.891C0.0373843 123.761 9.31502 113.676 20.9077 101.364C32.5004 89.0519 42.0043 79.1919 42.1523 79.3305C42.3002 79.4692 33.0226 89.5458 21.4299 101.858C9.83721 114.17 0.333294 124.03 0.185339 123.891Z" fill="white"/>
<path d="M120.186 125C120.038 125.13 111.004 115.253 100.012 102.932C89.02 90.6118 80.2211 80.5179 80.369 80.4053C80.517 80.2926 89.5509 90.1526 100.543 102.473C111.535 114.794 120.334 124.871 120.186 125Z" fill="white"/>
<g opacity="0.5">
<path opacity="0.5" d="M116.957 46.5615L58.7581 92.8463L1.06445 47.3933" fill="black"/>
</g>
<path d="M6.90453 51.6823L6.73047 18.1255L108.236 15.6475L109.341 52.3668L58.7583 92.24L6.90453 51.6823Z" fill="#F3F3F3"/>
<path d="M60.1772 80.1799C46.2434 80.2146 34.9118 68.9943 34.877 55.1227C34.877 54.1523 34.9292 53.1819 35.0423 52.2115C36.6089 38.4179 49.1154 28.4973 62.9796 30.0569C76.8352 31.6165 86.8004 44.0671 85.2251 57.8693C83.7803 70.5625 73.0058 80.1626 60.1772 80.1799ZM60.1076 30.7933C46.6524 30.8107 35.7473 41.6844 35.7647 55.0794C35.7821 68.4744 46.7046 79.3308 60.1598 79.3135C72.5445 79.2961 82.9448 70.0427 84.346 57.8C85.8691 44.4916 76.2695 32.4656 62.9013 30.9406C62.8926 30.9406 62.8839 30.9406 62.8665 30.9406C61.9527 30.8193 61.0301 30.7587 60.1076 30.7414V30.7933Z" fill="#006156"/>
<path d="M42.9609 58.5276L47.182 53.381L57.0514 60.4771L73.0915 41.6582L77.9305 45.895L57.2951 69.5659L42.9609 58.5276Z" fill="#006156"/>
</svg>
