<svg width="38" height="34" viewBox="0 0 38 34" fill="none" xmlns="http://www.w3.org/2000/svg">
<rect x="0.5" y="0.5" width="37" height="33" rx="7.5" fill="#EAB221" fill-opacity="0.1" stroke="#EAB221"/>
<path d="M14.6275 21.4999C14.7825 21.0607 15.0698 20.6805 15.4499 20.4115C15.8301 20.1425 16.2843 19.998 16.75 19.998C17.2157 19.998 17.6699 20.1425 18.0501 20.4115C18.4302 20.6805 18.7175 21.0607 18.8725 21.4999H26.5V22.9999H18.8725C18.7175 23.439 18.4302 23.8193 18.0501 24.0883C17.6699 24.3573 17.2157 24.5017 16.75 24.5017C16.2843 24.5017 15.8301 24.3573 15.4499 24.0883C15.0698 23.8193 14.7825 23.439 14.6275 22.9999H11.5V21.4999H14.6275ZM19.1275 16.2499C19.2825 15.8107 19.5698 15.4305 19.9499 15.1615C20.3301 14.8925 20.7843 14.748 21.25 14.748C21.7157 14.748 22.1699 14.8925 22.5501 15.1615C22.9302 15.4305 23.2175 15.8107 23.3725 16.2499H26.5V17.7499H23.3725C23.2175 18.189 22.9302 18.5693 22.5501 18.8383C22.1699 19.1073 21.7157 19.2517 21.25 19.2517C20.7843 19.2517 20.3301 19.1073 19.9499 18.8383C19.5698 18.5693 19.2825 18.189 19.1275 17.7499H11.5V16.2499H19.1275ZM14.6275 10.9999C14.7825 10.5607 15.0698 10.1805 15.4499 9.91148C15.8301 9.64249 16.2843 9.49805 16.75 9.49805C17.2157 9.49805 17.6699 9.64249 18.0501 9.91148C18.4302 10.1805 18.7175 10.5607 18.8725 10.9999H26.5V12.4999H18.8725C18.7175 12.939 18.4302 13.3193 18.0501 13.5883C17.6699 13.8573 17.2157 14.0017 16.75 14.0017C16.2843 14.0017 15.8301 13.8573 15.4499 13.5883C15.0698 13.3193 14.7825 12.939 14.6275 12.4999H11.5V10.9999H14.6275ZM16.75 12.4999C16.9489 12.4999 17.1397 12.4209 17.2803 12.2802C17.421 12.1396 17.5 11.9488 17.5 11.7499C17.5 11.551 17.421 11.3602 17.2803 11.2196C17.1397 11.0789 16.9489 10.9999 16.75 10.9999C16.5511 10.9999 16.3603 11.0789 16.2197 11.2196C16.079 11.3602 16 11.551 16 11.7499C16 11.9488 16.079 12.1396 16.2197 12.2802C16.3603 12.4209 16.5511 12.4999 16.75 12.4999ZM21.25 17.7499C21.4489 17.7499 21.6397 17.6709 21.7803 17.5302C21.921 17.3896 22 17.1988 22 16.9999C22 16.801 21.921 16.6102 21.7803 16.4696C21.6397 16.3289 21.4489 16.2499 21.25 16.2499C21.0511 16.2499 20.8603 16.3289 20.7197 16.4696C20.579 16.6102 20.5 16.801 20.5 16.9999C20.5 17.1988 20.579 17.3896 20.7197 17.5302C20.8603 17.6709 21.0511 17.7499 21.25 17.7499ZM16.75 22.9999C16.9489 22.9999 17.1397 22.9209 17.2803 22.7802C17.421 22.6396 17.5 22.4488 17.5 22.2499C17.5 22.051 17.421 21.8602 17.2803 21.7196C17.1397 21.5789 16.9489 21.4999 16.75 21.4999C16.5511 21.4999 16.3603 21.5789 16.2197 21.7196C16.079 21.8602 16 22.051 16 22.2499C16 22.4488 16.079 22.6396 16.2197 22.7802C16.3603 22.9209 16.5511 22.9999 16.75 22.9999Z" fill="#EAB221"/>
</svg>
