<svg width="122" height="23" viewBox="0 0 122 23" fill="none" xmlns="http://www.w3.org/2000/svg">
<g clip-path="url(#clip0)">
<path d="M15.6352 9.77372C18.5956 7.36142 24.6414 -1.33117 15.1766 0.207713C11.0488 0.831583 5.00298 4.82435 3.79382 9.44099C3.16839 8.19325 2.45958 7.02869 1.70906 5.86413C0.5416 4.28366 -0.750948 5.5314 0.499905 7.11187C4.20786 11.59 6.34571 17.155 6.58739 22.9582C6.87926 20.1715 6.42061 16.7611 5.29484 13.4338C5.83688 13.6001 6.46231 13.6833 7.00434 13.6833C8.92232 16.8442 11.8827 19.5477 15.1766 20.7954C18.2203 22.0016 22.2648 21.2945 20.5969 16.4283C19.7214 13.7665 17.6783 11.4374 15.6352 9.77372ZM16.0522 1.33068C21.3058 0.7484 15.6769 7.27824 13.8423 8.48439C12.1328 7.36142 9.96469 6.36323 7.87994 6.65437C9.38096 4.69958 13.0501 1.705 16.0522 1.33068ZM7.83824 8.06847C9.25588 7.9437 10.7986 8.73393 12.0078 9.56576C10.8403 10.148 9.58944 10.4808 8.29689 10.6055C6.37892 10.6055 5.96196 8.23484 7.83824 8.06847ZM15.0932 18.2168C12.6332 17.5097 10.2983 15.5133 8.63045 13.5169C10.0064 13.2258 11.3823 12.6851 12.6332 11.9365C13.0918 11.7285 13.5505 11.3958 13.9674 11.1046C15.4268 12.4356 16.9695 14.224 17.5532 16.262C18.1369 18.4663 16.5525 18.6327 15.0932 18.2168Z" fill="#F5A623"/>
<path d="M35.7735 4.28443H28.6019C28.3517 4.28443 28.1433 4.49238 28.1433 4.74193H28.1016V15.9716C28.1016 16.2211 28.31 16.4291 28.5602 16.4291C28.7687 16.4291 28.9772 16.2211 29.0189 15.9716V10.8974H35.1064C35.3565 10.8974 35.4816 10.6895 35.4816 10.4815C35.4816 10.232 35.3148 10.1072 35.1064 10.1072H28.9772V5.15784H35.7735C36.0237 5.15784 36.1487 4.94989 36.1487 4.74193C36.1487 4.61716 36.0237 4.45079 35.7735 4.28443ZM39.0674 3.70215H39.0257C38.8172 3.70215 38.6921 3.86851 38.6921 4.07647V15.93C38.6921 16.1795 38.8589 16.3459 39.0674 16.3459C39.3176 16.3459 39.4427 16.138 39.4427 15.93V4.15965C39.4427 3.86851 39.3176 3.70215 39.0674 3.70215ZM49.4495 7.94446C49.4495 7.69492 49.2827 7.52855 49.0743 7.52855C48.8241 7.52855 48.699 7.73651 48.699 7.94446V12.8938C48.699 14.5575 47.4064 15.8884 45.822 15.8468C44.1542 15.8468 43.1952 14.6823 43.1952 12.8522V7.94446C43.1952 7.69492 43.0284 7.52855 42.82 7.52855C42.6532 7.52855 42.4447 7.73651 42.4447 7.94446V12.977C42.4447 15.0566 43.6956 16.5955 45.7386 16.5955C46.9895 16.6371 48.157 15.93 48.7407 14.7654V16.0548C48.7407 16.3043 48.9492 16.4291 49.1159 16.4291C49.3661 16.4291 49.4912 16.2211 49.4912 16.0548H49.4495V7.94446ZM56.3292 8.36038C56.496 8.36038 56.7045 8.19401 56.7045 7.98606C56.7045 7.81969 56.496 7.61173 56.3292 7.61173H53.7024V5.15784C53.7024 4.94989 53.4939 4.74193 53.3272 4.74193H53.2855C53.077 4.74193 52.9519 4.94989 52.9519 5.15784V7.61173H52.0346C51.8261 7.61173 51.6594 7.73651 51.6594 7.94446C51.6594 8.15242 51.8261 8.36038 52.0346 8.36038H52.9519V14.1C52.9519 15.722 53.9943 16.5123 55.2034 16.5123C55.6204 16.5123 56.0374 16.4291 56.4126 16.3043C56.5377 16.2211 56.6628 16.0964 56.6628 15.93C56.6628 15.722 56.496 15.5973 56.3292 15.5973C56.0374 15.6805 55.7038 15.722 55.3702 15.722C54.3695 15.722 53.7024 15.2645 53.7024 14.0168V8.36038H56.3292ZM62.792 8.36038C63.0005 8.36038 63.1672 8.19401 63.1672 7.98606C63.1672 7.81969 63.0005 7.61173 62.792 7.61173H60.1652V5.15784C60.1652 4.94989 59.9984 4.74193 59.7899 4.74193H59.7482C59.5397 4.74193 59.4147 4.94989 59.4147 5.15784V7.61173H58.4974C58.3306 7.61173 58.1221 7.73651 58.1221 7.94446C58.1221 8.15242 58.3306 8.36038 58.4974 8.36038H59.4147V14.1C59.4147 15.722 60.457 16.5123 61.7079 16.5123C62.0832 16.5123 62.5001 16.4291 62.8754 16.3043C63.0421 16.2211 63.1255 16.0964 63.1255 15.93C63.1255 15.722 63.0005 15.5973 62.792 15.5973C62.5001 15.6805 62.1665 15.722 61.833 15.722C60.8323 15.722 60.1652 15.2645 60.1652 14.0168V8.36038H62.792ZM68.5042 7.36219C66.2944 7.36219 64.6266 9.35857 64.6266 11.9788V12.0204C64.6266 14.807 66.4612 16.6371 68.671 16.6371C69.8385 16.6786 71.0476 16.1795 71.8398 15.2229C71.9649 15.1398 72.0066 15.015 72.0066 14.9318C72.0066 14.7239 71.7981 14.5159 71.6314 14.5159L71.3812 14.5991C71.0504 14.9838 70.6414 15.2939 70.1814 15.5091C69.7213 15.7242 69.2207 15.8393 68.7127 15.8468C67.0866 15.8468 65.6273 14.5575 65.4605 12.3947H71.9649C72.1317 12.3947 72.3402 12.1868 72.3402 11.9788C72.3402 9.35857 70.8391 7.36219 68.5042 7.36219ZM65.4188 11.5629C65.5439 9.64971 66.8364 8.15242 68.4625 8.15242C70.3388 8.15242 71.3395 9.77448 71.4229 11.5629H65.4188ZM78.7195 7.48696C77.2185 7.61173 75.9677 8.65152 75.4256 10.1488V7.98606C75.4256 7.81969 75.2171 7.61173 75.0504 7.61173C74.8002 7.61173 74.6751 7.73651 74.6334 7.98606V16.138C74.6334 16.3459 74.8002 16.5539 75.0087 16.5539C75.2171 16.5539 75.3839 16.3875 75.4256 16.138V12.8938C75.4256 10.024 76.9683 8.65152 78.7195 8.44356H78.7612C79.0114 8.44356 79.1365 8.19401 79.1365 7.98606C79.1365 7.69492 78.9697 7.48696 78.7195 7.48696Z" fill="black"/>
<path d="M92.7711 7.0291C92.229 7.0291 91.7287 7.44502 91.6036 8.0273L90.1859 12.7687L88.81 8.0273C88.6849 7.44502 88.1429 6.98751 87.5175 6.98751H87.3924C86.7669 6.98751 86.2249 7.36183 86.0998 8.0273L84.7239 12.6855L83.3896 7.9857C83.2228 7.44502 82.7642 6.98751 82.1805 6.98751H82.1388C81.5133 6.98751 81.0547 7.5282 81.0547 8.19366L81.1381 8.81753L83.2645 15.3474C83.4313 16.0128 83.9734 16.4703 84.6405 16.5119H84.7239C85.3493 16.5119 85.8496 16.0544 86.0581 15.389L87.4341 10.7307L88.81 15.389C88.9768 16.0544 89.5188 16.5119 90.1443 16.5119H90.2693C90.9365 16.5119 91.4785 16.0544 91.6453 15.3474L93.7717 8.73435L93.8968 8.23525V8.19366C93.8968 7.5282 93.3965 7.0291 92.7711 7.0291ZM98.9003 7.0291C97.9413 6.98751 97.024 7.19547 96.1067 7.48661C95.7314 7.65297 95.5229 8.0273 95.5229 8.4848C95.5229 9.10867 95.9816 9.56617 96.5653 9.52458C96.6487 9.52458 96.7738 9.52458 96.8989 9.4414C97.4409 9.27504 98.0247 9.19185 98.6084 9.19185C99.8592 9.19185 100.485 9.77413 100.485 10.8971V11.0219C99.8176 10.7723 99.067 10.6891 98.3582 10.6891C96.3152 10.6891 94.8975 11.6457 94.8975 13.6837C94.8975 15.4721 96.2735 16.5119 97.8579 16.5119C98.8586 16.5535 99.8176 16.096 100.485 15.3474C100.526 16.0128 101.027 16.4703 101.652 16.4703C102.319 16.4703 102.861 15.8881 102.861 15.181V11.0219C102.903 9.98209 102.569 8.90071 101.902 8.11048C101.193 7.44502 100.235 7.0291 98.9003 7.0291ZM100.526 13.0598C100.526 14.058 99.6925 14.6819 98.5667 14.6403C97.7745 14.6403 97.2324 14.2244 97.2324 13.5174V13.4758C97.2324 12.6855 97.8996 12.1864 98.942 12.1864C99.4423 12.1864 100.026 12.3528 100.526 12.5608V13.0598ZM111.325 6.98751C110.825 6.98751 110.325 7.32024 110.2 7.90252L108.282 13.2678L106.447 7.94411C106.28 7.36183 105.822 6.98751 105.238 6.98751C104.613 6.98751 104.112 7.48661 104.029 8.19366C104.029 8.40162 104.112 8.60957 104.196 8.81753L106.864 15.3474C107.031 16.0128 107.573 16.4703 108.24 16.5119H108.407C108.991 16.4703 109.574 16.0544 109.824 15.389L112.41 8.85912L112.535 8.23525V8.19366C112.535 7.5282 112.034 6.98751 111.325 6.98751ZM117.788 6.94592C115.245 6.94592 113.494 9.10867 113.494 11.7289V12.1448C113.577 14.6819 115.662 16.6367 118.038 16.5119C119.122 16.5119 120.165 16.1376 121.04 15.389C121.291 15.181 121.374 14.9315 121.374 14.6403V14.5987C121.374 14.0164 120.957 13.5589 120.415 13.5589C120.207 13.5589 119.998 13.6005 119.831 13.7669C119.345 14.1843 118.721 14.4067 118.08 14.3908C117.038 14.4324 116.12 13.6837 115.995 12.5608H120.874C121.499 12.5192 121.999 11.9369 121.958 11.2714V11.0635C121.958 8.81753 120.081 6.86274 117.788 6.94592ZM115.912 11.0219C116.12 9.81572 116.788 9.06708 117.788 9.06708C118.789 9.06708 119.456 9.85731 119.581 11.0219H115.912Z" fill="#222222"/>
</g>
<defs>
<clipPath id="clip0">
<rect width="122" height="23" fill="white"/>
</clipPath>
</defs>
</svg>
