<svg width="17" height="12" viewBox="0 0 17 12" fill="none" xmlns="http://www.w3.org/2000/svg">
<path d="M14.5667 1.5C13.9667 0.5 12.8667 0 11.6667 0H5.66666C4.46666 0 3.36666 0.5 2.76666 1.5C0.466658 5 -0.0333415 10.3 1.56666 11.4C3.16666 12.5 6.76666 7.7 8.66666 7.7C10.5667 7.7 14.0667 12.5 15.7667 11.4C17.3667 10.3 16.8667 5 14.5667 1.5V1.5ZM6.66666 5H5.66666V6H4.66666V5H3.66666V4H4.66666V3H5.66666V4H6.66666V5ZM12.0667 5.5C12.0667 6 11.6667 6.4 11.1667 6.4C10.6667 6.4 10.2667 6 10.2667 5.5C10.2667 5 10.6667 4.6 11.1667 4.6C11.6667 4.6 12.0667 5 12.0667 5.5ZM13.9667 3.5C13.9667 4 13.5667 4.4 13.0667 4.4C12.5667 4.4 12.1667 4 12.1667 3.5C12.1667 3 12.5667 2.6 13.0667 2.6C13.5667 2.6 13.9667 3 13.9667 3.5Z" fill="#EAB221"/>
</svg>
