<svg width="31" height="31" viewBox="0 0 31 31" fill="none" xmlns="http://www.w3.org/2000/svg">
<g clip-path="url(#clip0)">
<path d="M30.9775 15.7807C30.9775 14.5516 30.8754 13.6547 30.6545 12.7246H16.2921V18.2721H24.7225C24.5526 19.6507 23.6348 21.7269 21.5951 23.122L21.5665 23.3077L26.1077 26.7455L26.4223 26.7762C29.3117 24.1685 30.9775 20.3317 30.9775 15.7807Z" fill="#4285F4"/>
<path d="M16.2925 30.3975C20.4227 30.3975 23.89 29.0686 26.4226 26.7766L21.5955 23.1223C20.3037 24.0027 18.57 24.6172 16.2925 24.6172C12.2472 24.6172 8.8139 22.0096 7.59001 18.4053L7.41062 18.4202L2.6887 21.9913L2.62695 22.159C5.14246 27.0422 10.3095 30.3975 16.2925 30.3975Z" fill="#34A853"/>
<path d="M7.59023 18.4055C7.2673 17.4754 7.0804 16.4787 7.0804 15.449C7.0804 14.4191 7.2673 13.4226 7.57324 12.4925L7.56469 12.2944L2.78358 8.66602L2.62715 8.73873C1.59038 10.7651 0.995483 13.0406 0.995483 15.449C0.995483 17.8574 1.59038 20.1328 2.62715 22.1591L7.59023 18.4055Z" fill="#FBBC05"/>
<path d="M16.2926 6.28004C19.1651 6.28004 21.1027 7.49252 22.2075 8.50576L26.5248 4.3866C23.8733 1.97824 20.4228 0.5 16.2926 0.5C10.3096 0.5 5.14249 3.85508 2.62695 8.73821L7.57307 12.492C8.81396 8.88775 12.2473 6.28004 16.2926 6.28004Z" fill="#EB4335"/>
</g>
<defs>
<clipPath id="clip0">
<rect width="30" height="30" fill="white" transform="translate(0.993652 0.5)"/>
</clipPath>
</defs>
</svg>
