<svg width="18" height="18" viewBox="0 0 18 18" fill="none" xmlns="http://www.w3.org/2000/svg">
<path d="M16.143 11.3837L17.3346 10.192L16.143 9.00033L13.168 11.9753L6.0263 4.83366L9.0013 1.85866L7.80964 0.666992L6.61797 1.85866L5.4263 0.666992L3.64297 2.45033L2.4513 1.25866L1.25964 2.45033L2.4513 3.64199L0.667969 5.42533L1.85964 6.61699L0.667969 7.80866L1.85964 9.00033L4.83464 6.02533L11.9763 13.167L9.0013 16.142L10.193 17.3337L11.3846 16.142L12.5763 17.3337L14.3596 15.5503L15.5513 16.742L16.743 15.5503L15.5513 14.3587L17.3346 12.5753L16.143 11.3837Z" fill="#EAB221"/>
</svg>
