<svg width="10" height="13" viewBox="0 0 10 13" fill="none" xmlns="http://www.w3.org/2000/svg">
<path d="M0.333374 12.626C0.333374 11.3883 0.825039 10.2013 1.70021 9.32615C2.57538 8.45098 3.76236 7.95931 5.00004 7.95931C6.23772 7.95931 7.4247 8.45098 8.29987 9.32615C9.17504 10.2013 9.66671 11.3883 9.66671 12.626H8.50004C8.50004 11.6977 8.13129 10.8075 7.47491 10.1511C6.81854 9.49473 5.9283 9.12598 5.00004 9.12598C4.07178 9.12598 3.18154 9.49473 2.52517 10.1511C1.86879 10.8075 1.50004 11.6977 1.50004 12.626H0.333374ZM5.00004 7.37598C3.06629 7.37598 1.50004 5.80973 1.50004 3.87598C1.50004 1.94223 3.06629 0.375977 5.00004 0.375977C6.93379 0.375977 8.50004 1.94223 8.50004 3.87598C8.50004 5.80973 6.93379 7.37598 5.00004 7.37598ZM5.00004 6.20931C6.28921 6.20931 7.33337 5.16514 7.33337 3.87598C7.33337 2.58681 6.28921 1.54264 5.00004 1.54264C3.71087 1.54264 2.66671 2.58681 2.66671 3.87598C2.66671 5.16514 3.71087 6.20931 5.00004 6.20931Z" fill="#9DA8B6"/>
</svg>
