<svg width="90" height="90" viewBox="0 0 90 90" fill="none" xmlns="http://www.w3.org/2000/svg">
<g filter="url(#filter0_d)">
<circle cx="45" cy="37" r="25" fill="#EAB221"/>
<path d="M34.7369 46.8016C34.6683 46.8016 34.5984 46.7922 34.5294 46.7718C34.1393 46.6559 33.9155 46.242 34.0299 45.8468C34.7297 43.4293 38.2038 41.9623 40.0704 41.1741C40.4306 41.0221 40.8388 40.8496 40.9419 40.7823C40.9751 40.7602 40.9945 40.7427 41.0054 40.7316C38.2362 38.2111 38.019 34.8321 38.019 33.8488C38.019 30.445 40.2455 27 44.5001 27C48.7547 27 50.9811 30.4455 50.9811 33.8488C50.9811 34.8308 50.7648 38.2039 48.0032 40.7235C48.0015 40.7291 47.9994 40.7342 47.9977 40.7397C48.0074 40.7444 48.0272 40.7619 48.0604 40.784C48.161 40.8496 48.5691 41.0221 48.9293 41.1741C50.796 41.9623 54.27 43.4289 54.9702 45.8468C55.0843 46.242 54.8608 46.6555 54.4703 46.7718C54.0807 46.8872 53.6708 46.6615 53.5564 46.2659C53.0544 44.531 49.8845 43.1926 48.3617 42.5491C47.826 42.323 47.4721 42.1735 47.2584 42.0343C46.7538 41.7013 46.5893 41.2874 46.5405 40.9982C46.4336 40.3714 46.774 39.8821 46.8435 39.7901C46.8729 39.7509 46.9062 39.7147 46.9428 39.6824C48.8334 38.0024 49.5075 35.5671 49.5075 33.8484C49.5075 31.2673 47.9401 28.49 44.4992 28.49C41.0584 28.49 39.491 31.2678 39.491 33.8484C39.491 35.5671 40.1647 38.002 42.0557 39.6824C42.0919 39.7147 42.1255 39.7509 42.155 39.7901C42.2244 39.8821 42.5644 40.3714 42.458 40.9982C42.4087 41.2874 42.2446 41.7009 41.7422 42.0326C41.5263 42.1735 41.1725 42.323 40.6364 42.5496C39.1135 43.1926 35.9445 44.5306 35.4421 46.2659C35.3491 46.5908 35.0554 46.8016 34.7369 46.8016Z" fill="white"/>
<path d="M53.1443 44.46C53.5651 44.5309 54.4067 45.3542 54.4067 46.3762C54.4067 47.3983 36.9438 46.5892 36.9438 46.5892" stroke="white" stroke-width="1.56"/>
<path d="M37.4162 46.5841C37.4162 46.9369 37.1336 47.2228 36.785 47.2228C36.4364 47.2228 36.1538 46.9369 36.1538 46.5841C36.1538 46.2313 36.4364 45.9453 36.785 45.9453C37.1336 45.9453 37.4162 46.2313 37.4162 46.5841Z" fill="white"/>
</g>
<defs>
<filter id="filter0_d" x="0" y="0" width="90" height="90" filterUnits="userSpaceOnUse" color-interpolation-filters="sRGB">
<feFlood flood-opacity="0" result="BackgroundImageFix"/>
<feColorMatrix in="SourceAlpha" type="matrix" values="0 0 0 0 0 0 0 0 0 0 0 0 0 0 0 0 0 0 127 0" result="hardAlpha"/>
<feOffset dy="8"/>
<feGaussianBlur stdDeviation="10"/>
<feColorMatrix type="matrix" values="0 0 0 0 0 0 0 0 0 0 0 0 0 0 0 0 0 0 0.05 0"/>
<feBlend mode="normal" in2="BackgroundImageFix" result="effect1_dropShadow"/>
<feBlend mode="normal" in="SourceGraphic" in2="effect1_dropShadow" result="shape"/>
</filter>
</defs>
</svg>
