<svg width="24" height="26" viewBox="0 0 24 26" fill="none" xmlns="http://www.w3.org/2000/svg">
<path d="M23.25 3H5.75C5.08696 3 4.45107 3.26339 3.98223 3.73223C3.51339 4.20107 3.25 4.83696 3.25 5.5C3.25 6.16304 3.51339 6.79893 3.98223 7.26777C4.45107 7.73661 5.08696 8 5.75 8H23.25V24.25C23.25 24.5815 23.1183 24.8995 22.8839 25.1339C22.6495 25.3683 22.3315 25.5 22 25.5H5.75C4.42392 25.5 3.15215 24.9732 2.21447 24.0355C1.27678 23.0979 0.75 21.8261 0.75 20.5V5.5C0.75 4.17392 1.27678 2.90215 2.21447 1.96447C3.15215 1.02678 4.42392 0.5 5.75 0.5H22C22.3315 0.5 22.6495 0.631696 22.8839 0.866116C23.1183 1.10054 23.25 1.41848 23.25 1.75V3ZM3.25 20.5C3.25 21.163 3.51339 21.7989 3.98223 22.2678C4.45107 22.7366 5.08696 23 5.75 23H20.75V10.5H5.75C4.87228 10.5014 4.00979 10.2707 3.25 9.83125V20.5ZM22 6.75H5.75C5.41848 6.75 5.10054 6.6183 4.86612 6.38388C4.6317 6.14946 4.5 5.83152 4.5 5.5C4.5 5.16848 4.6317 4.85054 4.86612 4.61612C5.10054 4.3817 5.41848 4.25 5.75 4.25H22V6.75Z" fill="white"/>
</svg>
