<svg width="18" height="14" viewBox="0 0 18 14" fill="none" xmlns="http://www.w3.org/2000/svg">
<path d="M16.9992 12.167L9.83257 6.79196V6.03363C11.2076 5.62529 12.1659 4.22529 11.8576 2.65863C11.6409 1.56696 10.7742 0.658628 9.68257 0.408628C7.78257 -0.0247056 6.08257 1.41696 6.08257 3.25029H7.74924C7.74924 2.55863 8.30757 2.00029 8.99924 2.00029C9.69091 2.00029 10.2492 2.55863 10.2492 3.25029C10.2492 3.95029 9.67424 4.51696 8.97424 4.50029C8.52424 4.49196 8.16591 4.87529 8.16591 5.32529V6.79196L0.99924 12.167C0.357573 12.6503 0.69924 13.667 1.49924 13.667H8.99924H16.4992C17.2992 13.667 17.6409 12.6503 16.9992 12.167ZM3.99924 12.0003L8.99924 8.25029L13.9992 12.0003H3.99924Z" fill="#EAB221"/>
</svg>
