<svg width="12" height="14" viewBox="0 0 12 14" fill="none" xmlns="http://www.w3.org/2000/svg">
<path d="M6.0013 6.99967C5.26797 6.99967 4.66797 6.39967 4.66797 5.66634C4.66797 4.93301 5.26797 4.33301 6.0013 4.33301C6.73463 4.33301 7.33463 4.93301 7.33463 5.66634C7.33463 6.39967 6.73463 6.99967 6.0013 6.99967ZM10.0013 5.79967C10.0013 3.37967 8.23463 1.66634 6.0013 1.66634C3.76797 1.66634 2.0013 3.37967 2.0013 5.79967C2.0013 7.35967 3.3013 9.42634 6.0013 11.893C8.7013 9.42634 10.0013 7.35967 10.0013 5.79967ZM6.0013 0.333008C8.8013 0.333008 11.3346 2.47967 11.3346 5.79967C11.3346 8.01301 9.55464 10.633 6.0013 13.6663C2.44797 10.633 0.667969 8.01301 0.667969 5.79967C0.667969 2.47967 3.2013 0.333008 6.0013 0.333008Z" fill="#636366"/>
</svg>
