<svg width="15" height="20" viewBox="0 0 15 20" fill="none" xmlns="http://www.w3.org/2000/svg">
<path fill-rule="evenodd" clip-rule="evenodd" d="M2.80627 6.25828L3.14933 9.34584L2.45511 9.40126C1.48701 9.47855 0.696512 10.2063 0.539579 11.1647C0.177888 13.3736 0.177888 15.6266 0.539579 17.8355C0.696512 18.7939 1.48701 19.5217 2.45511 19.5989L3.95124 19.7184C6.31338 19.907 8.6868 19.907 11.0489 19.7184L12.5451 19.5989C13.5132 19.5217 14.3037 18.7939 14.4606 17.8355C14.8223 15.6266 14.8223 13.3736 14.4606 11.1647C14.3037 10.2063 13.5132 9.47855 12.5451 9.40126L11.8507 9.34583L12.1938 6.25828C12.2342 5.8943 12.2342 5.52696 12.1938 5.16298L12.171 4.95809C11.9295 2.7847 10.2209 1.06504 8.04916 0.809534C7.68434 0.766614 7.31574 0.766614 6.95091 0.809534C4.77913 1.06504 3.07052 2.7847 2.82904 4.95809L2.80627 5.16298C2.76583 5.52696 2.76583 5.8943 2.80627 6.25828ZM7.8739 2.29926C7.62551 2.27004 7.37456 2.27004 7.12617 2.29926C5.64755 2.47322 4.48428 3.64402 4.31986 5.12373L4.2971 5.32863C4.26889 5.58252 4.26889 5.83874 4.2971 6.09263L4.6459 9.23182C6.5467 9.10992 8.45337 9.10991 10.3542 9.23182L10.703 6.09263C10.7312 5.83874 10.7312 5.58252 10.703 5.32863L10.6802 5.12373C10.5158 3.64402 9.35252 2.47322 7.8739 2.29926ZM7.50006 13.0001C6.67163 13.0001 6.00006 13.6717 6.00006 14.5001C6.00006 15.3285 6.67163 16.0001 7.50006 16.0001C8.32849 16.0001 9.00006 15.3285 9.00006 14.5001C9.00006 13.6717 8.32849 13.0001 7.50006 13.0001Z" fill="#9DA8B6"/>
</svg>
