<svg width="13" height="12" viewBox="0 0 13 12" fill="none" xmlns="http://www.w3.org/2000/svg">
<path d="M1.11129 0.542969H11.6113C11.766 0.542969 11.9144 0.604427 12.0238 0.713823C12.1332 0.823219 12.1946 0.971592 12.1946 1.1263V10.4596C12.1946 10.6143 12.1332 10.7627 12.0238 10.8721C11.9144 10.9815 11.766 11.043 11.6113 11.043H1.11129C0.956578 11.043 0.808205 10.9815 0.698808 10.8721C0.589412 10.7627 0.527954 10.6143 0.527954 10.4596V1.1263C0.527954 0.971592 0.589412 0.823219 0.698808 0.713823C0.808205 0.604427 0.956578 0.542969 1.11129 0.542969ZM11.028 3.01514L6.40329 7.1568L1.69462 3.0023V9.8763H11.028V3.01514ZM1.9927 1.70964L6.39687 5.5958L10.7375 1.70964H1.9927Z" fill="#9DA8B6"/>
</svg>
