<svg width="16" height="14" viewBox="0 0 16 14" fill="none" xmlns="http://www.w3.org/2000/svg">
<path d="M13.7667 1.00866C13.6 0.516992 13.1333 0.166992 12.5833 0.166992H3.41667C2.86667 0.166992 2.40833 0.516992 2.23333 1.00866L0.5 6.00033V12.667C0.5 13.1253 0.875 13.5003 1.33333 13.5003H2.16667C2.625 13.5003 3 13.1253 3 12.667V11.8337H13V12.667C13 13.1253 13.375 13.5003 13.8333 13.5003H14.6667C15.125 13.5003 15.5 13.1253 15.5 12.667V6.00033L13.7667 1.00866ZM3.41667 9.33366C2.725 9.33366 2.16667 8.77533 2.16667 8.08366C2.16667 7.39199 2.725 6.83366 3.41667 6.83366C4.10833 6.83366 4.66667 7.39199 4.66667 8.08366C4.66667 8.77533 4.10833 9.33366 3.41667 9.33366ZM12.5833 9.33366C11.8917 9.33366 11.3333 8.77533 11.3333 8.08366C11.3333 7.39199 11.8917 6.83366 12.5833 6.83366C13.275 6.83366 13.8333 7.39199 13.8333 8.08366C13.8333 8.77533 13.275 9.33366 12.5833 9.33366ZM2.16667 5.16699L3.41667 1.41699H12.5833L13.8333 5.16699H2.16667Z" fill="#EAB221"/>
</svg>
