<svg width="125" height="19" viewBox="0 0 125 19" fill="none" xmlns="http://www.w3.org/2000/svg">
	<path fillRule="evenodd" clipRule="evenodd" d="M35.648 14.0282L29.9849 0.963767H32.6735L32.6812 0.964459C33.2451 1.02479 33.7397 1.37155 33.9923 1.8792L33.9971 1.88961L37.3244 10.1542L40.2345 1.76963L40.2428 1.75576C40.5071 1.31954 40.9568 1.02618 41.4639 0.964459L41.4729 0.963073H44.0834L38.6653 15.0858C37.8696 16.7572 36.5287 18.7732 34.5174 18.9653L34.4067 19L33.8546 18.1033C32.8894 15.8917 35.284 16.1802 35.6493 14.0261L35.648 14.0282ZM12.8511 11.9157L7.35681 15.0955C7.16861 15.169 6.96312 15.2086 6.74864 15.2086C6.51132 15.2086 6.28508 15.1593 6.08028 15.0712L3.37017 13.5025V18.0839C2.77792 18.4265 2.35033 18.8308 1.6792 18.8308C1.13953 18.8308 0.0795667 18.1581 0 17.2981V11.553C2.37593 10.1778 3.5639 9.49053 3.5639 9.49053C3.64416 9.63547 3.78046 9.78943 3.97211 9.95172L6.05191 11.155C6.26363 11.2514 6.50648 11.3055 6.74518 11.3055C6.98319 11.3055 7.19352 11.259 7.39348 11.1751L9.43315 9.99471C9.61789 9.85532 9.77356 9.67847 9.8891 9.47596C10.015 9.25473 10.0932 9.0016 10.1098 8.73182V6.47651C10.0828 6.24141 10.0081 6.02157 9.89672 5.82669C9.78878 5.63806 9.64625 5.47161 9.47743 5.33707L7.42254 4.14769C7.21636 4.05684 6.98873 4.00622 6.74933 4.00622C6.46774 4.00622 6.20205 4.07626 5.96889 4.1997L4.14439 5.25523C3.91745 5.39948 3.72787 5.59714 3.59088 5.83016C3.4781 6.02226 3.4013 6.23864 3.37086 6.47027V7.65341L0.00138406 9.60357V4.57628C0.0242163 4.32454 0.102399 4.08944 0.223478 3.88208C0.366698 3.63657 0.570804 3.4299 0.813656 3.28357L6.06022 0.247365C6.47258 0.0621965 6.95344 0.0524877 7.37272 0.219625L12.6968 3.30091C12.9279 3.44585 13.1216 3.64559 13.2593 3.88208C13.3769 4.08319 13.4537 4.31136 13.48 4.55479V10.8692C13.4454 11.0724 13.3748 11.2638 13.2745 11.4351C13.1659 11.6217 13.022 11.7854 12.8524 11.9178L12.8511 11.9157ZM92.7727 11.9449L87.2909 15.1177C87.1027 15.1905 86.8979 15.2308 86.6841 15.2308C86.4475 15.2308 86.2219 15.1815 86.0172 15.0934L79.9514 11.5829L80.4489 11.8707C80.1977 11.6328 80.0192 11.3186 79.9514 10.9642V4.62067C79.9742 4.37031 80.0524 4.13521 80.1728 3.92785C80.3153 3.68234 80.5187 3.47706 80.7616 3.33073L85.9964 0.301459C86.4074 0.116291 86.8875 0.106582 87.3061 0.273719L92.6177 3.34738C92.8481 3.49232 93.0419 3.69136 93.1795 3.92715C93.2972 4.12827 93.374 4.35575 93.3996 4.59848V10.8991C93.365 11.1023 93.2944 11.2923 93.1941 11.4636C93.0854 11.6501 92.9415 11.8131 92.7727 11.9449ZM83.3133 9.0335C83.3721 9.43366 83.6315 9.78319 84.0916 10.0828L84.4071 10.2693L85.9895 11.1848C86.2005 11.2812 86.435 11.3346 86.6814 11.3346C86.9104 11.3346 87.129 11.2881 87.3283 11.2042L89.3631 10.0266C89.5478 9.88791 89.7028 9.71107 89.8177 9.50856C89.9436 9.28733 90.0211 9.03558 90.0377 8.7665V6.51674C90.0107 6.28302 89.9367 6.06318 89.8253 5.8683C89.7174 5.67967 89.5755 5.51392 89.4074 5.38007L87.3566 4.19346C87.1511 4.10261 86.9235 4.05268 86.6848 4.05268C86.4039 4.05268 86.1389 4.12203 85.9058 4.24548L84.0854 5.29893C83.8592 5.44248 83.6696 5.63944 83.5333 5.87246C83.4205 6.06387 83.3444 6.28025 83.314 6.5105V8.21932C83.314 8.49048 83.314 8.76164 83.314 9.0335H83.3133ZM25.3832 1.6663V0.963767H27.1253C27.9113 0.979024 28.5921 1.51372 28.7955 2.27243L28.8004 2.29185V4.44243V10.743V14.4616H26.6417L26.6237 14.4575C26.0647 14.3174 25.6163 13.9117 25.4108 13.3881L22.6917 14.9617C22.5035 15.0345 22.2987 15.0747 22.085 15.0747C21.8483 15.0747 21.6228 15.0255 21.4187 14.9374L15.8504 11.7153C15.5985 11.4774 15.4207 11.1633 15.3522 10.8089V4.46532C15.3757 4.21427 15.4532 3.97986 15.5736 3.7725C15.7168 3.527 15.9196 3.32172 16.1624 3.17538L21.3972 0.146112C21.8082 -0.0383625 22.2884 -0.0487648 22.707 0.118372L25.3832 1.66699V1.6663ZM18.7141 8.87746C18.7729 9.27762 19.0324 9.62784 19.4925 9.92675L19.808 10.1133L21.3903 11.0287C21.6013 11.1251 21.8352 11.1785 22.0822 11.1785C22.3112 11.1785 22.5298 11.1321 22.7291 11.0482L24.7639 9.87057C24.9487 9.73187 25.1036 9.55572 25.2192 9.35321C25.3444 9.13198 25.4226 8.88024 25.4392 8.61115V6.36139C25.4122 6.12768 25.3382 5.90783 25.2268 5.71295C25.1189 5.52432 24.977 5.35857 24.8089 5.22472L22.7582 4.03812C22.552 3.94727 22.325 3.89733 22.0863 3.89733C21.8054 3.89733 21.5404 3.96668 21.3073 4.09013L19.4869 5.14358C19.2607 5.28714 19.0711 5.48409 18.9348 5.71711C18.822 5.90852 18.7459 6.1249 18.7155 6.35584V8.06466C18.7155 8.33583 18.7155 8.60699 18.7155 8.87816L18.7141 8.87746ZM47.3706 8.4024C47.4321 9.37471 47.7124 10.347 48.4831 10.9968C49.2774 11.6675 50.2924 11.8838 51.3088 11.8838C52.413 11.8838 53.4557 11.5898 54.4312 11.0773L54.4478 11.069L54.4658 11.0648C54.5752 11.0378 54.6872 11.0246 54.8 11.0246C55.3383 11.0246 55.8288 11.3304 56.0682 11.8138L56.0717 11.8207L56.5062 12.9907L56.4107 13.0566C55.6254 13.6024 54.773 14.0525 53.8611 14.3444C52.9409 14.6392 51.9757 14.7557 51.0126 14.7557C49.0145 14.7557 47.1125 14.248 45.6644 12.8111C44.2702 11.4289 43.7015 9.67292 43.7015 7.72553C43.7015 6.80316 43.8565 5.9009 44.1754 5.0347C44.4819 4.20317 44.9227 3.44308 45.5039 2.77523C46.1058 2.08449 46.8544 1.57545 47.6895 1.20858C48.6125 0.804258 49.5964 0.629492 50.601 0.629492C54.2714 0.629492 56.646 3.24057 56.646 6.94602C56.6141 7.75535 55.9492 8.40171 55.1342 8.40171H47.3719L47.3706 8.4024ZM47.4439 5.98273H53.6197C53.4799 5.27257 53.199 4.59015 52.6586 4.09013C52.1307 3.6019 51.4949 3.3876 50.7795 3.3876C49.9658 3.3876 49.211 3.59427 48.58 4.12134C47.9919 4.61235 47.639 5.25593 47.4446 5.98204L47.4439 5.98273ZM120.09 14.8909C118.993 14.8909 117.901 14.746 116.858 14.3958C116.039 14.1211 115.185 13.7445 114.507 13.2008L114.447 13.1523L114.798 12.1391C115.012 11.63 115.507 11.3006 116.056 11.3006C116.203 11.3006 116.349 11.3242 116.488 11.3706L116.494 11.3727L116.5 11.3755C116.81 11.5204 117.128 11.6481 117.454 11.7549C118.214 12.0038 119.003 12.155 119.804 12.155C120.305 12.155 120.932 12.0968 121.362 11.8124C121.738 11.5628 121.858 11.1633 121.858 10.7271V10.4975C121.858 10.2444 121.761 10.0426 121.574 9.87404C121.278 9.60704 120.508 9.35252 120.131 9.23115L118.249 8.62294C117.845 8.49187 117.436 8.35386 117.044 8.18741C116.703 8.04247 116.373 7.8677 116.057 7.67283C115.754 7.48558 115.469 7.25256 115.253 6.96683C115.042 6.68665 114.892 6.36347 114.784 6.03128C114.651 5.62696 114.607 5.18727 114.607 4.76284C114.607 4.13313 114.721 3.50896 115.01 2.94514C115.276 2.42708 115.648 2.01028 116.14 1.69958C116.626 1.39236 117.157 1.17251 117.715 1.03381C118.333 0.87985 118.974 0.81882 119.61 0.81882C120.472 0.81882 121.327 0.930476 122.161 1.14408C122.957 1.34797 123.726 1.65728 124.411 2.11569L124.484 2.16424L124.013 3.42019L124.009 3.42782C123.775 3.85087 123.329 4.11093 122.845 4.11093C122.718 4.11093 122.592 4.0929 122.468 4.05684C122.21 3.96391 121.949 3.88346 121.688 3.81203C121.093 3.64836 120.462 3.52908 119.843 3.52908C119.385 3.52908 118.719 3.56236 118.309 3.78845C117.997 3.95975 117.877 4.23577 117.877 4.58253C117.877 4.77532 117.904 5.00141 118.013 5.16577C118.135 5.35094 118.424 5.51183 118.617 5.60893C119.097 5.84888 119.664 6.04029 120.173 6.21159L121.887 6.78929C122.459 6.98209 123.061 7.22967 123.566 7.56394C124.027 7.86909 124.366 8.29144 124.61 8.78314C124.908 9.37957 125 10.0807 125 10.7409C125 11.3006 124.914 11.854 124.702 12.3735C124.519 12.8208 124.265 13.2341 123.915 13.5705C123.582 13.8902 123.2 14.1447 122.782 14.3396C122.359 14.5372 121.917 14.6863 121.458 14.7709C121.006 14.8542 120.548 14.8916 120.088 14.8916L120.09 14.8909ZM103.911 2.44095C104.345 1.90001 104.889 1.48252 105.528 1.18014C106.24 0.843095 107.003 0.630184 107.795 0.630184C108.485 0.630184 109.191 0.711327 109.846 0.941574C110.45 1.15448 110.973 1.495 111.423 1.95272C111.941 2.48048 112.261 3.174 112.467 3.87653C112.741 4.80376 112.819 5.82322 112.819 6.78582V14.4609H111.08C110.12 14.4609 109.341 13.6807 109.341 12.7181V6.56667C109.341 5.84611 109.273 4.78018 108.824 4.18029C108.427 3.65113 107.764 3.51521 107.138 3.51521C106.812 3.51521 106.483 3.59773 106.179 3.71216C105.809 3.85087 105.461 4.03604 105.139 4.26489C104.798 4.50762 104.529 4.8204 104.32 5.18311C104.1 5.56385 103.994 5.97302 103.994 6.41271V14.4609H102.252C101.291 14.4609 100.511 13.68 100.511 12.7154V0.963767H102.22C103.084 0.963767 103.798 1.60665 103.912 2.44095H103.911ZM95.2725 12.8673V0.963767H97.079C97.912 1.02618 98.5721 1.68641 98.6364 2.5214V14.4609H96.8368C95.9893 14.3999 95.3202 13.7196 95.2725 12.8673ZM78.7427 13.1793L78.6451 13.248C77.9539 13.7348 77.2032 14.1371 76.3972 14.3965C75.5925 14.6558 74.7457 14.7543 73.9029 14.7543C72.8741 14.7543 71.8605 14.5795 70.9099 14.1766C70.0602 13.816 69.2957 13.3062 68.6834 12.61C68.098 11.9442 67.6545 11.1876 67.346 10.3553C67.0298 9.50162 66.8727 8.61046 66.8727 7.69918C66.8727 6.44531 67.119 5.23165 67.6954 4.11371C68.2551 3.02836 69.0729 2.18366 70.1266 1.56782C71.271 0.899963 72.5482 0.629492 73.8635 0.629492C75.6901 0.629492 77.4599 1.08444 78.7461 2.45066L78.8209 2.53042L78.2113 3.62894C77.9726 3.99165 77.4274 4.23091 77.096 4.23091C76.7646 4.23091 76.7127 4.18861 76.5446 4.11163C75.8375 3.708 75.0563 3.50272 74.1963 3.50272C73.1301 3.50272 72.1421 3.79816 71.4364 4.63107C70.7037 5.49519 70.4691 6.60412 70.4691 7.71305C70.4691 8.83169 70.741 9.89901 71.4993 10.7437C72.239 11.5669 73.2111 11.8838 74.3015 11.8838C74.4668 11.8838 74.6336 11.8797 74.7989 11.863C74.9484 11.8478 75.0978 11.8277 75.2459 11.7992C75.385 11.7722 75.5227 11.7368 75.6576 11.6938C75.7842 11.6529 75.9101 11.6092 76.0333 11.5683C76.1419 11.5253 76.2526 11.474 76.3577 11.4157C76.4207 11.3804 76.4858 11.3471 76.5501 11.3117C76.6954 11.2604 76.6643 11.2319 77.0144 11.2319C77.3644 11.2319 78.0183 11.5378 78.2501 11.9851L78.7427 13.18V13.1793ZM61.925 2.44927C62.316 1.97144 62.7636 1.51719 63.2708 1.17806C63.825 0.807726 64.4407 0.630184 65.1056 0.630184C65.5567 0.630184 66.0182 0.714794 66.4534 0.828531L66.5648 0.857659V3.97223L66.369 3.90774C65.875 3.74476 65.3478 3.62964 64.8254 3.62964C64.0332 3.62964 63.3337 3.87237 62.7767 4.44521C62.1589 5.08116 61.9825 5.98065 61.9825 6.83922V14.4616H60.1469C59.4204 14.4478 58.7784 13.9894 58.5265 13.309L58.5175 13.2841V13.257C58.5175 9.20896 58.5175 5.16161 58.5175 1.11356V0.964459H60.214C61.0789 0.981103 61.7915 1.61983 61.925 2.44997V2.44927Z" fill="#323232" />
</svg>
