<svg width="20" height="20" viewBox="0 0 20 20" fill="none" xmlns="http://www.w3.org/2000/svg">
<path d="M18.3346 17.5001C17.4096 17.5001 16.893 17.1918 16.518 16.9668C16.2096 16.7835 16.018 16.6668 15.5596 16.6668C15.093 16.6668 14.9096 16.7751 14.6013 16.9668C14.218 17.1918 13.7096 17.5001 12.7846 17.5001C11.8596 17.5001 11.343 17.1918 10.968 16.9668C10.6596 16.7835 10.468 16.6668 10.0096 16.6668C9.54297 16.6668 9.35964 16.7751 9.0513 16.9668C8.66797 17.1918 8.1513 17.5001 7.2263 17.5001C6.3013 17.5001 5.78464 17.1918 5.40964 16.9668C5.1013 16.7751 4.90964 16.6668 4.4513 16.6668C3.99297 16.6668 3.8013 16.7751 3.49297 16.9668C3.10964 17.1918 2.59297 17.5001 1.66797 17.5001V15.8335C2.13464 15.8335 2.31797 15.7251 2.6263 15.5335C3.00964 15.3085 3.5263 15.0001 4.4513 15.0001C5.3763 15.0001 5.89297 15.3085 6.26797 15.5335C6.5763 15.7251 6.75964 15.8335 7.2263 15.8335C7.69297 15.8335 7.8763 15.7251 8.18464 15.5335C8.56797 15.3085 9.08464 15.0001 10.0096 15.0001C10.9346 15.0001 11.4513 15.3085 11.8263 15.5335C12.1346 15.7168 12.3263 15.8335 12.7846 15.8335C13.243 15.8335 13.4346 15.7251 13.743 15.5335C14.118 15.3085 14.6346 15.0001 15.5596 15.0001C16.4846 15.0001 17.0013 15.3085 17.3763 15.5335C17.6846 15.7251 17.868 15.8335 18.3346 15.8335V17.5001ZM18.3346 13.7501C17.4096 13.7501 16.893 13.4418 16.518 13.2168C16.2096 13.0335 16.018 12.9168 15.5596 12.9168C15.093 12.9168 14.9096 13.0251 14.6013 13.2168C14.2263 13.4418 13.7096 13.7501 12.7846 13.7501C11.8596 13.7501 11.343 13.4418 10.968 13.2168C10.6596 13.0335 10.468 12.9168 10.0096 12.9168C9.54297 12.9168 9.35964 13.0251 9.0513 13.2168C8.6763 13.4418 8.15964 13.7501 7.23464 13.7501C6.30964 13.7501 5.79297 13.4418 5.41797 13.2168C5.10964 13.0335 4.91797 12.9168 4.45964 12.9168C4.0013 12.9168 3.80964 13.0251 3.5013 13.2168C3.10964 13.4418 2.59297 13.7501 1.66797 13.7501V12.0835C2.13464 12.0835 2.31797 11.9751 2.6263 11.7835C3.0013 11.5585 3.51797 11.2501 4.44297 11.2501C5.36797 11.2501 5.88464 11.5585 6.25964 11.7835C6.56797 11.9668 6.75964 12.0835 7.21797 12.0835C7.68464 12.0835 7.86797 11.9751 8.1763 11.7835C8.5513 11.5585 9.06797 11.2501 9.99297 11.2501C10.918 11.2501 11.4346 11.5585 11.8096 11.7835C12.118 11.9668 12.3096 12.0835 12.768 12.0835C13.2263 12.0835 13.418 11.9751 13.7263 11.7835C14.1013 11.5585 14.618 11.2501 15.543 11.2501C16.468 11.2501 16.9846 11.5585 17.3596 11.7835C17.668 11.9668 17.8596 12.0835 18.318 12.0835V13.7501H18.3346ZM7.2263 10.0001C7.69297 10.0001 7.8763 9.8918 8.18464 9.70013C8.56797 9.47513 9.08464 9.1668 10.0096 9.1668C10.9346 9.1668 11.4513 9.47513 11.8263 9.70013C12.1346 9.88347 12.3263 10.0001 12.7846 10.0001C13.243 10.0001 13.4346 9.8918 13.743 9.70013C13.843 9.6418 13.9596 9.57513 14.0846 9.50847L8.73464 4.1668C7.44297 2.87513 6.2513 2.4918 4.16797 2.50013V4.58347C5.68464 4.57513 6.5763 4.90847 7.5013 5.83347L8.33464 6.6668L5.6263 9.37513C5.88464 9.47513 6.09297 9.60013 6.26797 9.70013C6.5763 9.8918 6.75964 10.0001 7.2263 10.0001Z" fill="#EAB221"/>
<path d="M13.7513 6.66667C14.9019 6.66667 15.8346 5.73393 15.8346 4.58333C15.8346 3.43274 14.9019 2.5 13.7513 2.5C12.6007 2.5 11.668 3.43274 11.668 4.58333C11.668 5.73393 12.6007 6.66667 13.7513 6.66667Z" fill="#EAB221"/>
</svg>
