<svg width="19" height="20" viewBox="0 0 19 20" fill="none" xmlns="http://www.w3.org/2000/svg">
<path d="M18.3091 10.7693V10.7968C18.3091 12.0818 18.0413 13.3034 17.5595 14.4084L17.5818 14.3509C16.1587 17.6934 12.9231 19.9909 9.15453 19.9909C5.38594 19.9909 2.1504 17.6926 0.750401 14.4109L0.727261 14.3509C0.243567 13.2297 -0.00408015 12.0195 -1.17086e-05 10.7968V10.7676V10.7393C-1.17086e-05 7.74343 1.42891 5.0851 3.63635 3.4176L3.66032 3.40093C3.82125 3.27491 4.00597 3.18331 4.20321 3.13172C4.40044 3.08014 4.60604 3.06966 4.80743 3.10093L4.79916 3.1001C5.21321 3.14927 5.56693 3.37343 5.7909 3.69593L5.7942 3.7001C5.91909 3.85935 6.00949 4.04322 6.0596 4.23986C6.1097 4.4365 6.1184 4.64154 6.08511 4.84177L6.08594 4.83343C6.06087 5.03328 5.99605 5.22596 5.89537 5.39994C5.79468 5.57392 5.6602 5.72561 5.49999 5.84593L5.49586 5.84843C4.7341 6.42221 4.11563 7.16731 3.68966 8.02446C3.2637 8.88162 3.04197 9.82718 3.04214 10.7859C3.04228 11.8362 3.30857 12.8691 3.81574 13.7865C4.32291 14.7039 5.05414 15.4754 5.94005 16.0278C6.82595 16.5802 7.83715 16.8952 8.8777 16.9429C9.91824 16.9906 10.9536 16.7694 11.8856 16.3004C12.8175 15.8313 13.6152 15.1299 14.2028 14.2627C14.7905 13.3955 15.1486 12.3913 15.2433 11.3453C15.3379 10.2994 15.166 9.24636 14.7437 8.28624C14.3215 7.32611 13.6629 6.4907 12.8306 5.85927L12.8149 5.8476C12.6549 5.72789 12.5203 5.57705 12.4191 5.40401C12.3179 5.23096 12.2521 5.03922 12.2256 4.8401L12.2248 4.8326C12.1928 4.63305 12.2025 4.42899 12.2532 4.23342C12.3038 4.03785 12.3944 3.85508 12.519 3.69677L12.5165 3.7001C12.6309 3.53509 12.7786 3.39637 12.95 3.2931C13.1213 3.18982 13.3124 3.12433 13.5107 3.10093L13.5173 3.1001C13.7173 3.06918 13.9214 3.08015 14.1169 3.13234C14.3124 3.18453 14.4951 3.27682 14.6537 3.40343L14.6504 3.40093C16.8835 5.0851 18.3132 7.7451 18.3132 10.7418V10.7701V10.7684L18.3091 10.7693ZM10.681 1.53843V9.26177C10.681 9.66976 10.5202 10.061 10.2341 10.3495C9.94803 10.638 9.55998 10.8001 9.15536 10.8001C8.75074 10.8001 8.36269 10.638 8.07658 10.3495C7.79048 10.061 7.62974 9.66976 7.62974 9.26177V9.22844V9.2301V1.53843V1.5251C7.62974 1.1051 7.80329 0.725934 8.08181 0.456768L8.08263 0.455934C8.35453 0.174268 8.7347 -0.000732422 9.15536 -0.000732422C9.57602 -0.000732422 9.95619 0.174268 10.2281 0.455934C10.5074 0.725934 10.681 1.10427 10.681 1.52427V1.53843V1.5376V1.53843Z" fill="#EAB221"/>
</svg>
