<svg width="18" height="18" viewBox="0 0 18 18" fill="none" xmlns="http://www.w3.org/2000/svg">
<path d="M8.1665 0.708659V2.38533C6.48543 2.59923 4.94888 3.44522 3.86916 4.75134C2.78944 6.05747 2.24757 7.72571 2.35369 9.41702C2.45981 11.1083 3.20595 12.6958 4.44046 13.8567C5.67497 15.0176 7.30521 15.6649 8.99984 15.667C10.6237 15.667 12.1917 15.0743 13.4096 14.0003C14.6276 12.9263 15.4117 11.4447 15.6148 9.83366H17.2923C16.874 14.0445 13.3207 17.3337 8.99984 17.3337C4.39734 17.3337 0.666504 13.6028 0.666504 9.00033C0.666504 4.67949 3.95567 1.12616 8.1665 0.708659ZM15.6665 3.51199L8.99984 10.1787L7.8215 9.00033L14.4882 2.33366H10.6665V0.666992H17.3332V7.33366H15.6665V3.51199Z" fill="#EFC458"/>
</svg>
