<svg width="14" height="14" viewBox="0 0 14 14" fill="none" xmlns="http://www.w3.org/2000/svg">
<path d="M9.82422 9H9.23172L9.02172 8.7975C9.75672 7.9425 10.1992 6.8325 10.1992 5.625C10.1992 2.9325 8.01672 0.75 5.32422 0.75C2.63172 0.75 0.449219 2.9325 0.449219 5.625C0.449219 8.3175 2.63172 10.5 5.32422 10.5C6.53172 10.5 7.64172 10.0575 8.49672 9.3225L8.69922 9.5325V10.125L12.4492 13.8675L13.5667 12.75L9.82422 9ZM5.32422 9C3.45672 9 1.94922 7.4925 1.94922 5.625C1.94922 3.7575 3.45672 2.25 5.32422 2.25C7.19172 2.25 8.69922 3.7575 8.69922 5.625C8.69922 7.4925 7.19172 9 5.32422 9Z" fill="#EAB221"/>
</svg>
