<svg width="21" height="15" viewBox="0 0 21 15" fill="none" xmlns="http://www.w3.org/2000/svg">
<path fill-rule="evenodd" clip-rule="evenodd" d="M10.5001 5.99965C9.67306 5.99965 9.00006 6.67265 9.00006 7.49965C9.00006 8.32665 9.67306 8.99964 10.5001 8.99964C11.3271 8.99964 12.0001 8.32665 12.0001 7.49965C12.0001 6.67265 11.3271 5.99965 10.5001 5.99965ZM10.5002 10.9996C8.57019 10.9996 7.00019 9.42963 7.00019 7.49963C7.00019 5.56963 8.57019 3.99963 10.5002 3.99963C12.4302 3.99963 14.0002 5.56963 14.0002 7.49963C14.0002 9.42963 12.4302 10.9996 10.5002 10.9996ZM20.3681 7.00164C19.7291 5.88964 16.2061 0.315644 10.2291 0.502644C4.70212 0.643644 1.48612 5.51364 0.632122 7.00164C0.456122 7.31064 0.456122 7.68864 0.632122 7.99764C1.26212 9.09464 4.66212 14.4996 10.5251 14.4996C10.6061 14.4996 10.6881 14.4986 10.7711 14.4966C16.2981 14.3556 19.5141 9.48564 20.3681 7.99764C20.5441 7.68864 20.5441 7.31064 20.3681 7.00164Z" fill="#9DA8B6"/>
</svg>
