<svg width="19" height="18" viewBox="0 0 19 18" fill="none" xmlns="http://www.w3.org/2000/svg">
<path d="M17.401 2.00833H7.18762C6.90683 1.13266 6.11801 0.5 5.19056 0.5C4.26312 0.5 3.4743 1.13266 3.19351 2.00833H1.59928C1.22895 2.00833 0.928711 2.32358 0.928711 2.71243C0.928711 3.10128 1.22895 3.41653 1.59928 3.41653H3.19355C3.47434 4.2922 4.26316 4.92486 5.19061 4.92486C6.11806 4.92486 6.90688 4.2922 7.18767 3.41653H17.401C17.7713 3.41653 18.0716 3.10128 18.0716 2.71243C18.0716 2.32358 17.7713 2.00833 17.401 2.00833ZM5.19056 3.51666C4.76824 3.51666 4.42464 3.15587 4.42464 2.71243C4.42464 2.26899 4.76824 1.9082 5.19056 1.9082C5.61289 1.9082 5.95649 2.26899 5.95649 2.71243C5.95649 3.15587 5.61289 3.51666 5.19056 3.51666Z" fill="#636366"/>
<path d="M17.401 8.28958H15.8067C15.5259 7.41391 14.737 6.78125 13.8096 6.78125C12.8822 6.78125 12.0934 7.41391 11.8126 8.28958H1.59928C1.22895 8.28958 0.928711 8.60483 0.928711 8.99368C0.928711 9.38253 1.22895 9.69778 1.59928 9.69778H11.8126C12.0934 10.5734 12.8823 11.2061 13.8097 11.2061C14.7371 11.2061 15.5259 10.5734 15.8067 9.69778H17.401C17.7713 9.69778 18.0716 9.38253 18.0716 8.99368C18.0716 8.60483 17.7713 8.28958 17.401 8.28958ZM13.8097 9.7979C13.3873 9.7979 13.0437 9.43712 13.0437 8.99368C13.0437 8.55024 13.3873 8.18945 13.8097 8.18945C14.232 8.18945 14.5756 8.55024 14.5756 8.99368C14.5756 9.43712 14.232 9.7979 13.8097 9.7979Z" fill="#636366"/>
<path d="M17.401 14.3208H10.0607C9.77988 13.4452 8.99106 12.8125 8.06362 12.8125C7.13617 12.8125 6.34735 13.4452 6.06656 14.3208H1.59928C1.22895 14.3208 0.928711 14.6361 0.928711 15.0249C0.928711 15.4138 1.22895 15.729 1.59928 15.729H6.06656C6.34735 16.6047 7.13617 17.2374 8.06362 17.2374C8.99106 17.2374 9.77988 16.6047 10.0607 15.729H17.401C17.7713 15.729 18.0716 15.4138 18.0716 15.0249C18.0716 14.6361 17.7713 14.3208 17.401 14.3208ZM8.06362 15.8292C7.64129 15.8292 7.29769 15.4684 7.29769 15.025C7.29769 14.5815 7.64129 14.2208 8.06362 14.2208C8.48594 14.2208 8.82954 14.5815 8.82954 15.0249C8.82954 15.4684 8.48594 15.8292 8.06362 15.8292Z" fill="#636366"/>
</svg>
