<svg width="19" height="19" viewBox="0 0 19 19" fill="none" xmlns="http://www.w3.org/2000/svg">
<path d="M3.97868 4.56604C2.85668 5.68504 -2.04832 12.681 2.18968 16.918C6.42568 21.156 13.4197 16.25 14.5437 15.129C15.6647 14.01 14.2087 10.734 11.2917 7.81704C8.37268 4.89804 5.10068 3.44104 3.97868 4.56604ZM13.2427 14.156C12.9107 14.484 10.3477 13.699 7.87868 11.228C5.41168 8.75904 4.62268 6.19504 4.95468 5.86504C5.28268 5.53304 7.84868 6.32204 10.3147 8.79104C12.7857 11.258 13.5727 13.824 13.2427 14.156ZM14.1007 5.98204L16.0047 4.07604C16.1922 3.88853 16.2975 3.63421 16.2975 3.36904C16.2975 3.10386 16.1922 2.84955 16.0047 2.66204C15.8172 2.47453 15.5629 2.36919 15.2977 2.36919C15.0325 2.36919 14.7782 2.47453 14.5907 2.66204L12.6867 4.56804C12.4992 4.75555 12.3938 5.00986 12.3938 5.27504C12.3938 5.40634 12.4197 5.53636 12.4699 5.65766C12.5202 5.77897 12.5938 5.88919 12.6867 5.98204C12.7795 6.07488 12.8897 6.14853 13.0111 6.19878C13.1324 6.24903 13.2624 6.27489 13.3937 6.27489C13.6589 6.27489 13.9132 6.16955 14.1007 5.98204ZM9.79068 3.80004C9.90545 3.86387 10.0317 3.90446 10.1621 3.9195C10.2926 3.93455 10.4248 3.92375 10.551 3.88772C10.6773 3.85169 10.7953 3.79114 10.8982 3.70952C11.0011 3.6279 11.0869 3.52682 11.1507 3.41204L12.2377 1.48604C12.3666 1.25424 12.3981 0.98073 12.3253 0.725681C12.2526 0.470631 12.0815 0.254933 11.8497 0.126038C11.6179 -0.00285715 11.3444 -0.0343913 11.0893 0.0383728C10.8343 0.111137 10.6186 0.282239 10.4897 0.514038L9.40268 2.44004C9.33885 2.55481 9.29826 2.68103 9.28322 2.8115C9.26817 2.94196 9.27897 3.07411 9.315 3.2004C9.35103 3.32669 9.41158 3.44464 9.4932 3.54753C9.57482 3.65042 9.6759 3.73622 9.79068 3.80004ZM18.5387 6.81604C18.475 6.70116 18.3892 6.59998 18.2863 6.51829C18.1835 6.4366 18.0655 6.376 17.9392 6.33996C17.8128 6.30392 17.6806 6.29315 17.5501 6.30826C17.4197 6.32338 17.2934 6.36408 17.1787 6.42804L15.2387 7.48904C15.1239 7.55286 15.0228 7.63866 14.9412 7.74155C14.8596 7.84444 14.799 7.96239 14.763 8.08868C14.727 8.21497 14.7162 8.34712 14.7312 8.47758C14.7463 8.60804 14.7869 8.73426 14.8507 8.84904C14.9145 8.96381 15.0003 9.06489 15.1032 9.14651C15.2061 9.22812 15.324 9.28867 15.4503 9.3247C15.5766 9.36073 15.7088 9.37153 15.8392 9.35649C15.9697 9.34145 16.0959 9.30086 16.2107 9.23704L18.1507 8.17604C18.2655 8.11222 18.3665 8.02642 18.4482 7.92353C18.5298 7.82064 18.5903 7.70269 18.6264 7.5764C18.6624 7.45011 18.6732 7.31796 18.6581 7.1875C18.6431 7.05703 18.6025 6.93081 18.5387 6.81604Z" fill="#EAB221"/>
</svg>
