<svg width="20" height="15" viewBox="0 0 20 20" fill="none" xmlns="http://www.w3.org/2000/svg">
	<path fillRule="evenodd" clipRule="evenodd" d="M14.6338 17.0117C14.5022 17.0117 14.3697 16.9808 14.248 16.9175L9.99883 14.6975L5.7505 16.9175C5.46883 17.0633 5.12883 17.0383 4.87383 16.8517C4.61716 16.665 4.48966 16.3492 4.54383 16.0367L5.353 11.3467L1.91966 8.02582C1.69133 7.80499 1.60883 7.47332 1.70633 7.16999C1.80383 6.86832 2.06466 6.64749 2.37966 6.60249L7.12966 5.91249L9.253 1.64082C9.53466 1.07415 10.4638 1.07415 10.7455 1.64082L12.8688 5.91249L17.6188 6.60249C17.9338 6.64749 18.1947 6.86832 18.2922 7.16999C18.3897 7.47332 18.3072 7.80499 18.0788 8.02582L14.6455 11.3467L15.4547 16.0367C15.5088 16.3492 15.3805 16.665 15.1247 16.8517C14.9797 16.9583 14.8072 17.0117 14.6338 17.0117Z" fill="#FFBB0B" />
	<mask id="mask0" mask-type="alpha" maskUnits="userSpaceOnUse" x="1" y="1" width="18" height="17">
		<path fillRule="evenodd" clipRule="evenodd" d="M14.6338 17.5009C14.5022 17.5009 14.3697 17.4701 14.248 17.4067L9.99883 15.1867L5.7505 17.4067C5.46883 17.5526 5.12883 17.5276 4.87383 17.3409C4.61716 17.1542 4.48966 16.8384 4.54383 16.5259L5.353 11.8359L1.91966 8.51508C1.69133 8.29424 1.60883 7.96258 1.70633 7.65924C1.80383 7.35758 2.06466 7.13674 2.37966 7.09174L7.12966 6.40174L9.253 2.13008C9.53466 1.56341 10.4638 1.56341 10.7455 2.13008L12.8688 6.40174L17.6188 7.09174C17.9338 7.13674 18.1947 7.35758 18.2922 7.65924C18.3897 7.96258 18.3072 8.29424 18.0788 8.51508L14.6455 11.8359L15.4547 16.5259C15.5088 16.8384 15.3805 17.1542 15.1247 17.3409C14.9797 17.4476 14.8072 17.5009 14.6338 17.5009Z" fill="white" />
	</mask>
	<g mask="url(#mask0)">
		<rect width="20" height="20" fill="#FFBB0B" />
	</g>
</svg>
