<svg width="139" height="101" viewBox="0 0 139 101" fill="none" xmlns="http://www.w3.org/2000/svg">
<path d="M124.107 0.957031H14.8928C6.66775 0.957031 0 7.62478 0 15.8499V85.3497C0 93.5748 6.66775 100.243 14.8928 100.243H124.107C132.332 100.243 139 93.5748 139 85.3497V15.8499C139 7.62478 132.332 0.957031 124.107 0.957031ZM129.071 58.4731L97.8312 27.233C95.8928 25.2949 92.7501 25.2949 90.8117 27.233L49.6429 68.4016L33.2954 52.054C31.357 50.1159 28.2144 50.1159 26.276 52.054L9.92847 68.4016V15.8499C9.92847 13.1081 12.1511 10.8855 14.8928 10.8855H124.107C126.849 10.8855 129.072 13.1081 129.072 15.8499V58.4731H129.071Z" fill="#636366" fill-opacity="0.49"/>
</svg>
