<svg width="10" height="12" viewBox="0 0 10 12" fill="none" xmlns="http://www.w3.org/2000/svg">
<path d="M5.6496 10.087C6.28294 10.0863 6.89012 9.83436 7.33796 9.38652C7.7858 8.93868 8.03773 8.33149 8.03849 7.69815V3.51425C8.03923 3.26311 7.99012 3.01433 7.894 2.78231C7.79788 2.55029 7.65666 2.33966 7.47853 2.16262L6.40735 1.09144C6.23032 0.913315 6.01969 0.772097 5.78767 0.675977C5.55565 0.579856 5.30686 0.530744 5.05572 0.531487H2.78293C2.14959 0.532246 1.54241 0.784175 1.09457 1.23201C0.646731 1.67985 0.394802 2.28704 0.394043 2.92038V7.69815C0.394802 8.33149 0.646731 8.93868 1.09457 9.38652C1.54241 9.83436 2.14959 10.0863 2.78293 10.087H5.6496ZM1.3496 7.69815V2.92038C1.3496 2.54023 1.50061 2.17566 1.76941 1.90686C2.03821 1.63805 2.40279 1.48704 2.78293 1.48704C2.78293 1.48704 5.13312 1.49373 5.17182 1.49851V2.4426C5.17182 2.69603 5.2725 2.93908 5.4517 3.11828C5.6309 3.29748 5.87395 3.39815 6.12738 3.39815H7.07147C7.07624 3.43685 7.08293 7.69815 7.08293 7.69815C7.08293 8.0783 6.93192 8.44287 6.66312 8.71167C6.39432 8.98048 6.02974 9.13149 5.6496 9.13149H2.78293C2.40279 9.13149 2.03821 8.98048 1.76941 8.71167C1.50061 8.44287 1.3496 8.0783 1.3496 7.69815ZM9.9496 4.35371V9.60927C9.94884 10.2426 9.69691 10.8498 9.24907 11.2976C8.80123 11.7455 8.19405 11.9974 7.56071 11.9982H3.26071C3.134 11.9982 3.01247 11.9478 2.92287 11.8582C2.83327 11.7686 2.78293 11.6471 2.78293 11.5204C2.78293 11.3937 2.83327 11.2721 2.92287 11.1825C3.01247 11.0929 3.134 11.0426 3.26071 11.0426H7.56071C7.94085 11.0426 8.30543 10.8916 8.57423 10.6228C8.84303 10.354 8.99404 9.98941 8.99404 9.60927V4.35371C8.99404 4.22699 9.04438 4.10547 9.13398 4.01587C9.22358 3.92627 9.34511 3.87593 9.47182 3.87593C9.59854 3.87593 9.72006 3.92627 9.80966 4.01587C9.89926 4.10547 9.9496 4.22699 9.9496 4.35371Z" fill="#F9FAFC"/>
</svg>
