<svg width="18" height="17" viewBox="0 0 18 17" fill="none" xmlns="http://www.w3.org/2000/svg">
<path d="M9.0013 7.16667C8.08464 7.16667 7.33464 7.91667 7.33464 8.83333C7.33464 9.75 8.08464 10.5 9.0013 10.5C9.91797 10.5 10.668 9.75 10.668 8.83333C10.668 7.91667 9.91797 7.16667 9.0013 7.16667ZM14.0013 8.83333C14.0013 6.075 11.7596 3.83333 9.0013 3.83333C6.24297 3.83333 4.0013 6.075 4.0013 8.83333C4.0013 10.6833 5.00964 12.2917 6.5013 13.1583L7.33464 11.7083C6.34297 11.125 5.66797 10.0667 5.66797 8.83333C5.66797 6.99167 7.15964 5.5 9.0013 5.5C10.843 5.5 12.3346 6.99167 12.3346 8.83333C12.3346 10.0667 11.6596 11.125 10.668 11.7083L11.5013 13.1583C12.993 12.2917 14.0013 10.6833 14.0013 8.83333ZM9.0013 0.5C4.4013 0.5 0.667969 4.23333 0.667969 8.83333C0.667969 11.9167 2.34297 14.6 4.8263 16.0417L5.65964 14.6C3.6763 13.4417 2.33464 11.3 2.33464 8.83333C2.33464 5.15 5.31797 2.16667 9.0013 2.16667C12.6846 2.16667 15.668 5.15 15.668 8.83333C15.668 11.3 14.3263 13.4417 12.3346 14.6L13.168 16.0417C15.6596 14.6 17.3346 11.9167 17.3346 8.83333C17.3346 4.23333 13.6013 0.5 9.0013 0.5Z" fill="#EAB221"/>
</svg>
