<svg width="17" height="17" viewBox="0 0 17 17" fill="none" xmlns="http://www.w3.org/2000/svg">
<path d="M4.5 16.9999C4.5 16.9999 3.5 16.9999 3.5 15.8749C3.5 14.7499 4.5 11.3749 8.5 11.3749C12.5 11.3749 13.5 14.7499 13.5 15.8749C13.5 16.9999 12.5 16.9999 12.5 16.9999H4.5ZM8.5 10.3062C9.16304 10.3062 9.79893 10.0098 10.2678 9.48239C10.7366 8.95494 11 8.23957 11 7.49365C11 6.74773 10.7366 6.03236 10.2678 5.50491C9.79893 4.97747 9.16304 4.68115 8.5 4.68115C7.83696 4.68115 7.20107 4.97747 6.73223 5.50491C6.26339 6.03236 6 6.74773 6 7.49365C6 8.23957 6.26339 8.95494 6.73223 9.48239C7.20107 10.0098 7.83696 10.3062 8.5 10.3062Z" fill="#EAB221"/>
<path d="M2.5 0.125C1.96957 0.125 1.46086 0.362053 1.08579 0.78401C0.710714 1.20597 0.5 1.77826 0.5 2.375L0.5 13.0625C0.5 13.5101 0.658035 13.9393 0.93934 14.2557C1.22064 14.5722 1.60218 14.75 2 14.75H2.653C2.86209 13.9233 3.22551 13.1562 3.719 12.5H1.5V2.375C1.5 2.07663 1.60536 1.79048 1.79289 1.5795C1.98043 1.36853 2.23478 1.25 2.5 1.25H14.5C14.7652 1.25 15.0196 1.36853 15.2071 1.5795C15.3946 1.79048 15.5 2.07663 15.5 2.375V12.5H13.281C13.835 13.2358 14.171 14.0446 14.347 14.75H15C15.3978 14.75 15.7794 14.5722 16.0607 14.2557C16.342 13.9393 16.5 13.5101 16.5 13.0625V2.375C16.5 1.77826 16.2893 1.20597 15.9142 0.78401C15.5391 0.362053 15.0304 0.125 14.5 0.125H2.5Z" fill="#EAB221"/>
</svg>
