<svg width="1440" height="721" viewBox="0 0 1440 721" fill="none" xmlns="http://www.w3.org/2000/svg">
<g opacity="0.7">
<rect opacity="0.5" x="-260.008" y="375.518" width="1962.39" height="1.63124" fill="#DDDDDD"/>
<rect opacity="0.5" x="-260.008" y="465.238" width="1962.39" height="1.63124" fill="#DDDDDD"/>
<rect opacity="0.5" x="-260.008" y="554.957" width="1962.39" height="1.63124" fill="#DDDDDD"/>
<rect opacity="0.5" x="-260.008" y="644.672" width="1962.39" height="1.63124" fill="#DDDDDD"/>
<rect opacity="0.5" x="69.502" y="750.705" width="796.047" height="1.63124" transform="rotate(-90 69.502 750.705)" fill="#DDDDDD"/>
<rect opacity="0.5" x="160.854" y="750.705" width="796.047" height="1.63124" transform="rotate(-90 160.854 750.705)" fill="#DDDDDD"/>
<rect opacity="0.5" x="252.205" y="750.705" width="796.047" height="1.63124" transform="rotate(-90 252.205 750.705)" fill="#DDDDDD"/>
<rect opacity="0.5" x="343.549" y="750.705" width="796.047" height="1.63124" transform="rotate(-90 343.549 750.705)" fill="#DDDDDD"/>
<rect opacity="0.5" x="434.902" y="750.705" width="796.047" height="1.63124" transform="rotate(-90 434.902 750.705)" fill="#DDDDDD"/>
<rect opacity="0.5" x="526.254" y="750.705" width="796.047" height="1.63124" transform="rotate(-90 526.254 750.705)" fill="#DDDDDD"/>
<rect opacity="0.5" x="617.598" y="750.705" width="796.047" height="1.63124" transform="rotate(-90 617.598 750.705)" fill="#DDDDDD"/>
<rect opacity="0.5" x="708.949" y="750.705" width="796.047" height="1.63124" transform="rotate(-90 708.949 750.705)" fill="#DDDDDD"/>
<rect opacity="0.5" x="800.299" y="750.705" width="796.047" height="1.63124" transform="rotate(-90 800.299 750.705)" fill="#DDDDDD"/>
<rect opacity="0.5" x="891.646" y="750.705" width="796.047" height="1.63124" transform="rotate(-90 891.646 750.705)" fill="#DDDDDD"/>
<rect opacity="0.5" x="982.998" y="750.705" width="796.047" height="1.63124" transform="rotate(-90 982.998 750.705)" fill="#DDDDDD"/>
<rect opacity="0.5" x="1074.35" y="750.705" width="796.047" height="1.63124" transform="rotate(-90 1074.35 750.705)" fill="#DDDDDD"/>
<rect opacity="0.5" x="1165.7" y="750.705" width="796.047" height="1.63124" transform="rotate(-90 1165.7 750.705)" fill="#DDDDDD"/>
<rect opacity="0.5" x="1257.05" y="750.705" width="796.047" height="1.63124" transform="rotate(-90 1257.05 750.705)" fill="#DDDDDD"/>
<rect opacity="0.5" x="1348.4" y="750.705" width="796.047" height="1.63124" transform="rotate(-90 1348.4 750.705)" fill="#DDDDDD"/>
<rect opacity="0.5" x="1439.75" y="750.705" width="796.047" height="1.63124" transform="rotate(-90 1439.75 750.705)" fill="#DDDDDD"/>
<rect opacity="0.5" x="-260.008" y="285.801" width="1962.39" height="1.63124" fill="#DDDDDD"/>
<rect opacity="0.5" x="-260.008" y="196.083" width="1962.39" height="1.63124" fill="#DDDDDD"/>
<rect opacity="0.5" x="-260.008" y="106.364" width="1962.39" height="1.63124" fill="#DDDDDD"/>
<rect opacity="0.5" x="-260.008" y="16.6475" width="1962.39" height="1.63124" fill="#DDDDDD"/>
</g>
</svg>
