<svg width="33" height="33" viewBox="0 0 33 33" fill="none" xmlns="http://www.w3.org/2000/svg">
<path d="M30.25 6.66734V23.0161C30.25 24.3498 29.1637 25.5736 27.83 25.7386L27.4038 25.7936C25.1488 26.0961 21.9725 27.0311 19.415 28.1036C18.5212 28.4748 17.5312 27.8011 17.5312 26.8248V7.69859C17.5312 7.18984 17.82 6.72234 18.2737 6.47484C20.79 5.11359 24.5988 3.90359 27.1838 3.68359H27.2662C28.9163 3.68359 30.25 5.01734 30.25 6.66734Z" fill="#0ECC22"/>
<path d="M14.7263 6.47484C12.2101 5.11359 8.40133 3.90359 5.81633 3.68359H5.72008C4.07008 3.68359 2.73633 5.01734 2.73633 6.66734V23.0161C2.73633 24.3498 3.82258 25.5736 5.15633 25.7386L5.58258 25.7936C7.83758 26.0961 11.0138 27.0311 13.5713 28.1036C14.4651 28.4748 15.4551 27.8011 15.4551 26.8248V7.69859C15.4551 7.17609 15.1801 6.72234 14.7263 6.47484ZM6.87508 10.6411H9.96883C10.5326 10.6411 11.0001 11.1086 11.0001 11.6723C11.0001 12.2498 10.5326 12.7036 9.96883 12.7036H6.87508C6.31133 12.7036 5.84383 12.2498 5.84383 11.6723C5.84383 11.1086 6.31133 10.6411 6.87508 10.6411ZM11.0001 16.8286H6.87508C6.31133 16.8286 5.84383 16.3748 5.84383 15.7973C5.84383 15.2336 6.31133 14.7661 6.87508 14.7661H11.0001C11.5638 14.7661 12.0313 15.2336 12.0313 15.7973C12.0313 16.3748 11.5638 16.8286 11.0001 16.8286Z" fill="#0ECC22"/>
</svg>
