<svg width="40" height="40" viewBox="0 0 40 40" fill="none" xmlns="http://www.w3.org/2000/svg">
<rect x="0.5" y="0.5" width="39" height="39" rx="1.5" fill="white"/>
<rect x="0.5" y="0.5" width="39" height="39" rx="1.5" stroke="#EAEAEA"/>
<path d="M17.5 13.5H21.5V11.5H17.5V13.5ZM25.5 30.5C24.1167 30.5 22.9377 30.0123 21.963 29.037C20.9883 28.0617 20.5007 26.8827 20.5 25.5C20.4993 24.1173 20.987 22.9383 21.963 21.963C22.939 20.9877 24.118 20.5 25.5 20.5C26.882 20.5 28.0613 20.9877 29.038 21.963C30.0147 22.9383 30.502 24.1173 30.5 25.5C30.498 26.8827 30.0103 28.062 29.037 29.038C28.0637 30.014 26.8847 30.5013 25.5 30.5ZM11.5 28.5C10.95 28.5 10.4793 28.3043 10.088 27.913C9.69667 27.5217 9.50067 27.0507 9.5 26.5V15.5C9.5 14.95 9.696 14.4793 10.088 14.088C10.48 13.6967 10.9507 13.5007 11.5 13.5H15.5V11.5C15.5 10.95 15.696 10.4793 16.088 10.088C16.48 9.69667 16.9507 9.50067 17.5 9.5H21.5C22.05 9.5 22.521 9.696 22.913 10.088C23.305 10.48 23.5007 10.9507 23.5 11.5V13.5H27.5C28.05 13.5 28.521 13.696 28.913 14.088C29.305 14.48 29.5007 14.9507 29.5 15.5V18.4C29.5 18.7 29.371 18.925 29.113 19.075C28.855 19.225 28.584 19.2333 28.3 19.1C27.8667 18.9 27.4127 18.75 26.938 18.65C26.4633 18.55 25.984 18.5 25.5 18.5C23.5667 18.5 21.9167 19.1833 20.55 20.55C19.1833 21.9167 18.5 23.5667 18.5 25.5C18.5 25.8 18.521 26.1043 18.563 26.413C18.605 26.7217 18.6673 27.0257 18.75 27.325C18.8333 27.6083 18.7877 27.875 18.613 28.125C18.4383 28.375 18.209 28.5 17.925 28.5H11.5ZM26 25.3V23C26 22.8667 25.95 22.75 25.85 22.65C25.75 22.55 25.6333 22.5 25.5 22.5C25.3667 22.5 25.25 22.55 25.15 22.65C25.05 22.75 25 22.8667 25 23V25.275C25 25.4083 25.025 25.5377 25.075 25.663C25.125 25.7883 25.2 25.9007 25.3 26L26.8 27.5C26.9 27.6 27.0167 27.65 27.15 27.65C27.2833 27.65 27.4 27.6 27.5 27.5C27.6 27.4 27.65 27.2833 27.65 27.15C27.65 27.0167 27.6 26.9 27.5 26.8L26 25.3Z" fill="black"/>
</svg>
