<svg width="24" height="20" viewBox="0 0 24 20" fill="none" xmlns="http://www.w3.org/2000/svg">
<g clip-path="url(#clip0_8560_5231)">
<path d="M0 4.43285C0 3.14859 0.367979 2.05561 1.15845 1.27686L2.52134 2.64309C1.00854 4.1596 2.33054 8.87309 6.65089 13.204C10.9712 17.535 15.6732 18.8602 17.186 17.3437L18.5489 18.7099C15.9867 21.2785 10.1671 19.4477 5.288 14.5703C1.90804 11.1684 0 7.32925 0 4.43285Z" fill="white"/>
<path d="M8.60139 19.8849C7.32028 19.8849 6.22997 19.516 5.45312 18.7236L6.81601 17.3574C8.32882 18.8739 13.0308 17.5487 17.3511 13.2177C21.6715 8.88676 22.9935 4.17327 21.4807 2.65676L22.8436 1.29053C25.4058 3.85904 23.5795 9.69284 18.714 14.5839C15.3204 17.9722 11.4771 19.8849 8.60139 19.8849Z" fill="white"/>
<path d="M19.1516 12.6299C18.3202 10.239 16.6302 7.68413 14.3951 5.44351C9.51595 0.552407 3.69643 -1.26468 1.1342 1.29017C0.957028 1.48144 1.12057 1.9323 1.48855 2.30118C1.85653 2.67006 2.31991 2.83401 2.49709 2.6564C4.00989 1.13989 8.71185 2.46513 13.0322 6.79608C15.0765 8.84542 16.603 11.1407 17.3389 13.2583C17.9795 15.1164 17.925 16.6193 17.1754 17.3707C16.9982 17.5483 17.1481 17.9992 17.5297 18.3817C17.9113 18.7642 18.3611 18.9145 18.5383 18.7369C19.8466 17.4117 20.0647 15.2394 19.1516 12.6299Z" fill="white"/>
<path d="M22.8344 1.29031C21.526 -0.021272 19.359 -0.239869 16.7559 0.661843C14.3708 1.49524 11.8222 3.18937 9.58711 5.42998C4.70798 10.3211 2.89534 16.1549 5.45756 18.7234C5.63474 18.901 6.09812 18.7507 6.4661 18.3682C6.83408 17.9856 6.99762 17.5348 6.82045 17.3572C5.30764 15.8407 6.62965 11.1272 10.95 6.79621C12.9943 4.74687 15.284 3.21669 17.3828 2.47893C19.2363 1.8368 20.7355 1.89145 21.4851 2.64288C21.6623 2.82049 22.112 2.6702 22.4936 2.28766C22.8752 1.90511 23.0252 1.48158 22.8344 1.29031Z" fill="white"/>
</g>
<defs>
<clipPath id="clip0_8560_5231">
<rect width="24" height="19.769" fill="white" transform="translate(0 0.115723)"/>
</clipPath>
</defs>
</svg>
