<svg width="25" height="24" viewBox="0 0 25 24" fill="none" xmlns="http://www.w3.org/2000/svg">
<g clip-path="url(#clip0_8560_5238)">
<path d="M22.1242 4.07995L17.9002 7.14995C17.5796 7.38401 17.3648 7.73563 17.3029 8.12776C17.2411 8.51989 17.3372 8.92055 17.5702 9.24195C17.8041 9.56246 18.1555 9.77724 18.5473 9.83927C18.9392 9.90131 19.3398 9.80555 19.6612 9.57295L23.8832 6.50295C24.5532 6.01295 24.6962 5.07995 24.2152 4.40995C24.1002 4.2501 23.9546 4.11465 23.7868 4.01142C23.6191 3.9082 23.4326 3.83925 23.238 3.80856C23.0435 3.77787 22.8448 3.78606 22.6535 3.83264C22.4621 3.87922 22.2819 3.96328 22.1232 4.07995M12.4742 2.89795C11.6462 2.89795 10.9762 3.56795 10.9762 4.39495V6.91595C10.9762 7.31324 11.134 7.69427 11.415 7.97519C11.6959 8.25612 12.0769 8.41395 12.4742 8.41395C12.8715 8.41395 13.2525 8.25612 13.5335 7.97519C13.8144 7.69427 13.9722 7.31324 13.9722 6.91595V4.39595C13.9722 3.56695 13.3022 2.89795 12.4742 2.89795ZM0.788204 4.40995C0.298204 5.07995 0.449204 6.01295 1.1182 6.50295L5.3412 9.57295C6.0112 10.0629 6.9442 9.91195 7.4332 9.24195C7.9222 8.57195 7.7722 7.63895 7.1022 7.14995L2.8802 4.07995C2.55881 3.84693 2.15815 3.75082 1.76602 3.81268C1.37389 3.87453 1.02227 4.08931 0.788204 4.40995ZM4.4832 12.1999C6.6792 10.2306 9.5255 9.14223 12.4752 9.14395C15.5452 9.14395 18.3452 10.3029 20.4682 12.1999H4.4832ZM19.0382 13.8329C17.6912 13.8329 16.8022 14.2759 16.2382 14.8259C15.6432 15.4129 15.2152 16.3309 15.2152 17.4759C15.2152 18.7769 15.7792 19.6199 16.2242 20.0639C17.0672 20.9069 18.1502 21.1019 19.0532 21.1019C20.5352 21.1019 21.3332 20.6439 21.8372 20.1549C22.2357 19.7693 22.5219 19.2826 22.6652 18.7469H20.3252C20.2269 18.9366 20.0781 19.0955 19.8952 19.2059C19.5872 19.3709 19.1592 19.3869 19.0982 19.3869C18.5492 19.3869 18.2402 19.1989 18.0902 19.0479C17.7962 18.7619 17.6602 18.2729 17.6602 17.9039H22.7552V17.641C22.7552 16.8809 22.6352 15.6839 21.6722 14.7659C20.8582 13.9979 19.8362 13.8329 19.0382 13.8329ZM19.0982 15.3909C19.3392 15.3909 19.7832 15.4359 20.1062 15.7589C20.2942 15.9469 20.4452 16.2339 20.5062 16.4969H17.7362C17.7812 16.1889 17.9392 15.9399 18.1052 15.7589C18.3612 15.4959 18.6852 15.3909 19.0982 15.3909ZM2.2482 14.0359H4.6932V14.8639C5.2732 14.1639 6.0702 13.9149 6.7402 13.9149C7.2302 13.9149 7.6892 14.021 8.0572 14.2249C8.5622 14.4879 8.8402 14.8639 9.0052 15.2019C9.2852 14.7129 9.6312 14.4199 9.9392 14.2539C10.4292 13.9759 10.9022 13.9159 11.3622 13.9159C11.8652 13.9159 12.6932 13.9909 13.2582 14.5399C13.8682 15.1349 13.8982 15.948 13.8982 16.422V20.8769H11.4502V17.4969C11.4502 16.7749 11.3752 16.287 11.0972 16.03C10.9612 15.91 10.7732 15.8039 10.4572 15.8039C10.3244 15.8001 10.1921 15.8229 10.0681 15.8708C9.94415 15.9187 9.83097 15.9908 9.7352 16.0829C9.3212 16.4819 9.2912 17.0459 9.2912 17.3849V20.8919H6.8462V17.5119C6.8462 16.8579 6.8012 16.3319 6.5222 16.0449C6.3122 15.8189 6.0322 15.7669 5.7852 15.7669C5.5212 15.7669 5.3112 15.8119 5.1152 16.0149C4.6862 16.4289 4.6862 17.084 4.6862 17.5129V20.8919H2.2402V14.0359H2.2482Z" fill="white"/>
</g>
<defs>
<clipPath id="clip0_8560_5238">
<rect width="24" height="24" fill="white" transform="translate(0.5)"/>
</clipPath>
</defs>
</svg>
