<svg width="165" height="36" viewBox="0 0 165 36" fill="none" xmlns="http://www.w3.org/2000/svg">
<g clip-path="url(#clip0_447_4123)">
<path d="M32.3045 0H3.69541C1.65449 0 0 1.65449 0 3.69541V32.3045C0 34.3454 1.65449 35.9999 3.69541 35.9999H32.3045C34.3454 35.9999 35.9999 34.3454 35.9999 32.3045V3.69541C35.9999 1.65449 34.3454 0 32.3045 0Z" fill="#1453FF"/>
<path d="M15.1318 14.4783H21.1362V5.3125H26.4056V28.7394H21.1362V18.3965H15.6083C15.4607 17.0701 15.2997 15.7335 15.1318 14.4783Z" fill="white"/>
<path fill-rule="evenodd" clip-rule="evenodd" d="M11.6962 8.53727C11.4924 10.5901 9.88071 24.1954 9.59473 27.7082C10.4575 28.6491 11.8556 29.8469 12.7966 30.6886C14.1516 29.459 15.1204 28.4518 15.9832 27.7082C15.714 24.4133 14.176 11.168 13.5451 8.52877C12.9601 8.47336 12.3569 8.42371 11.6962 8.53727Z" fill="white"/>
<path fill-rule="evenodd" clip-rule="evenodd" d="M10.165 5.33822C10.3161 5.68156 11.5759 7.85367 11.6941 7.99538C12.4123 7.92696 12.8305 7.92961 13.548 7.99493C13.6311 7.89615 14.9908 5.53313 15.0766 5.33822C12.6212 5.30158 12.6209 5.30636 10.165 5.33822Z" fill="white"/>
<path d="M45.0547 24.5412V10.7188H48.0561V16.1884H53.98V10.7188H56.9814V24.5412H53.98V18.6765H48.0561V24.5412H45.0547Z" fill="#050212"/>
<path d="M59.2307 22.0139C59.244 21.3689 59.4019 20.8093 59.7046 20.3354C60.0075 19.8616 60.4451 19.4798 61.0178 19.1902C61.5905 18.9006 62.2289 18.6735 62.9332 18.509C63.6375 18.3443 64.4701 18.216 65.4311 18.1238V17.7486C65.4311 16.8403 64.8914 16.3861 63.8119 16.3861C62.6139 16.3861 61.8898 16.906 61.6398 17.9461L59.1123 17.3932C59.1912 16.564 59.6552 15.8531 60.5043 15.2606C61.3534 14.6682 62.4494 14.3721 63.7922 14.3721C65.2139 14.3721 66.3033 14.6945 67.0602 15.3397C67.8171 15.9847 68.1956 16.9391 68.1956 18.2028V21.8164C68.1956 22.0797 68.2284 22.2442 68.2944 22.3101C68.3601 22.3758 68.5248 22.4089 68.788 22.4089H69.6568V24.5414H67.5044C66.4251 24.5414 65.8326 24.0609 65.7273 23.0999C64.9638 24.2715 63.8382 24.8574 62.3506 24.8574C61.4555 24.8574 60.7117 24.594 60.1193 24.0674C59.5269 23.5408 59.2306 22.8563 59.2306 22.0137L59.2307 22.0139ZM65.4311 20.4935V19.8616C64.2991 20.0064 63.4565 20.2104 62.9037 20.4738C62.3507 20.737 62.0743 21.1583 62.0743 21.7375C62.0743 22.4484 62.5021 22.8038 63.3577 22.8038C63.9501 22.8038 64.4438 22.6062 64.8387 22.2114C65.2338 21.8165 65.4311 21.2438 65.4311 20.4934V20.4935Z" fill="#050212"/>
<path d="M70.467 19.585C70.467 18.0449 70.9738 16.7909 71.9874 15.8233C73.001 14.8559 74.2648 14.3721 75.7786 14.3721C76.9109 14.3721 77.8916 14.6419 78.7208 15.1816C79.5502 15.7214 80.136 16.4389 80.4783 17.3341L77.8915 18.3017C77.4833 17.1563 76.7462 16.5837 75.6798 16.5837C74.9822 16.5837 74.4094 16.847 73.9618 17.3735C73.5143 17.9002 73.2905 18.6374 73.2905 19.5851C73.2905 20.533 73.5177 21.2768 73.9717 21.8166C74.426 22.3563 75.0019 22.6262 75.6997 22.6262C76.779 22.6262 77.5427 22.0009 77.9901 20.7503L80.6362 21.6982C80.2545 22.6592 79.6292 23.426 78.7604 23.9986C77.8915 24.5711 76.891 24.8576 75.7588 24.8576C74.2185 24.8576 72.9515 24.3705 71.9576 23.3963C70.9637 22.4221 70.4668 21.1517 70.4668 19.5851L70.467 19.585Z" fill="#050212"/>
<path d="M89.7205 24.5412L86.64 20.4339L85.1985 21.836V24.5412H82.3945V10.7188H85.1985V15.1222V18.6568L89.1676 14.6679H92.6035L88.5752 18.5777L93.255 24.5412H89.7205Z" fill="#050212"/>
<path d="M95.3674 21.955V16.8011H93.2939V14.6685H95.3674V11.5684H98.1714V14.6685H100.739V16.8011H98.1714V21.4416C98.1714 21.7443 98.2406 21.9648 98.3787 22.1031C98.5169 22.2412 98.7375 22.3104 99.0404 22.3104H101.173V24.5418H97.8753C97.0987 24.5418 96.4865 24.3048 96.0389 23.8308C95.5913 23.3569 95.3674 22.7316 95.3674 21.955H95.3674Z" fill="#050212"/>
<path d="M102.971 24.5413V10.7188H105.775V14.2928V16.1884C106.525 14.9775 107.598 14.3718 108.993 14.3718C110.033 14.3718 110.817 14.6811 111.343 15.2998C111.87 15.9185 112.133 16.7939 112.133 17.9262V24.5412H109.329V18.5383C109.329 17.3009 108.802 16.6822 107.749 16.6822C107.157 16.6822 106.716 16.8599 106.426 17.2153C105.992 17.7419 105.775 18.6238 105.775 19.8614V24.5413H102.971Z" fill="#050212"/>
<path d="M114.106 19.585C114.106 18.0712 114.58 16.8239 115.528 15.8432C116.476 14.8624 117.667 14.3721 119.102 14.3721C120.59 14.3721 121.761 14.8592 122.617 15.8333C123.473 16.8075 123.901 18.0646 123.901 19.6048C123.901 19.9077 123.894 20.1314 123.881 20.2762H116.91C116.95 21.0793 117.167 21.6882 117.562 22.1028C117.957 22.5174 118.477 22.7248 119.122 22.7248C120.149 22.7248 120.912 22.1521 121.413 21.0068L123.92 21.9744C123.578 22.7642 123.025 23.4488 122.262 24.0281C121.511 24.581 120.465 24.8575 119.122 24.8575C117.608 24.8575 116.394 24.3802 115.479 23.4258C114.564 22.4713 114.106 21.1912 114.106 19.585ZM117.009 18.3016H121.116C120.972 17.0246 120.3 16.3862 119.102 16.3862C118.536 16.3862 118.069 16.5507 117.7 16.8798C117.332 17.209 117.101 17.6829 117.009 18.3016H117.009Z" fill="#050212"/>
<path d="M126.073 13.3055V10.7188H128.996V13.3055H126.073ZM123.921 28.3919V26.1604H125.303C125.619 26.1604 125.843 26.0914 125.975 25.9532C126.106 25.8149 126.172 25.5945 126.172 25.2916V14.668H128.936V25.805C128.936 26.608 128.716 27.2399 128.275 27.7007C127.834 28.1615 127.225 28.3919 126.448 28.3919H123.921Z" fill="#050212"/>
<path d="M130.989 19.6048C130.989 18.0515 131.476 16.7909 132.451 15.8233C133.425 14.8559 134.669 14.3721 136.183 14.3721C137.71 14.3721 138.957 14.8559 139.925 15.8233C140.892 16.7909 141.376 18.0515 141.376 19.6048C141.376 21.1845 140.895 22.455 139.934 23.416C138.973 24.3769 137.723 24.8575 136.182 24.8575C134.695 24.8575 133.458 24.3606 132.47 23.3665C131.483 22.3726 130.989 21.1187 130.989 19.6048H130.989ZM137.851 21.8658C138.253 21.359 138.453 20.6185 138.453 19.6444C138.453 18.6703 138.253 17.9167 137.851 17.3834C137.45 16.8503 136.894 16.5837 136.183 16.5837C135.472 16.5837 134.916 16.8503 134.514 17.3834C134.113 17.9167 133.912 18.6703 133.912 19.6444C133.912 20.6186 134.113 21.3591 134.514 21.8658C134.916 22.3727 135.472 22.6261 136.183 22.6261C136.894 22.6261 137.45 22.3727 137.851 21.8658Z" fill="#050212"/>
<path d="M146.155 23.2183V24.5413H143.43V10.7188H146.234V14.2928V15.991C146.523 15.5565 146.948 15.178 147.507 14.8557C148.067 14.5331 148.715 14.3718 149.452 14.3718C150.742 14.3718 151.776 14.8489 152.553 15.8034C153.329 16.7578 153.718 18.0249 153.718 19.6045C153.718 21.1711 153.326 22.4383 152.543 23.4059C151.759 24.3735 150.723 24.8572 149.433 24.8572C148.695 24.8572 148.044 24.7024 147.478 24.3932C146.912 24.0837 146.471 23.6922 146.155 23.2182L146.155 23.2183ZM148.465 22.7246C150.005 22.7246 150.775 21.6847 150.775 19.6046C150.775 17.5247 150.005 16.4847 148.465 16.4847C147.741 16.4847 147.168 16.7546 146.747 17.2944C146.326 17.834 146.115 18.6041 146.115 19.6045C146.115 20.6052 146.326 21.3752 146.747 21.9149C147.168 22.4547 147.741 22.7245 148.465 22.7245V22.7246Z" fill="#050212"/>
<path d="M154.981 21.9941L157.529 21.1845C157.608 21.5399 157.799 21.9085 158.101 22.2904C158.391 22.659 158.951 22.8433 159.78 22.8433C160.241 22.8433 160.606 22.751 160.876 22.5668C161.146 22.3825 161.281 22.1455 161.281 21.8559C161.281 21.5795 161.188 21.359 161.004 21.1945C160.82 21.0298 160.504 20.9015 160.056 20.8092L158.654 20.5328C157.509 20.309 156.676 19.9734 156.156 19.5258C155.636 19.0782 155.376 18.4003 155.376 17.4919C155.376 16.544 155.758 15.7871 156.522 15.2212C157.285 14.655 158.319 14.3721 159.622 14.3721C160.701 14.3721 161.6 14.5957 162.317 15.0434C163.035 15.491 163.525 16.0241 163.789 16.6428L161.478 17.6894C161.136 16.7678 160.471 16.307 159.484 16.307C159.036 16.307 158.691 16.3926 158.447 16.5639C158.204 16.735 158.082 16.9654 158.082 17.2549C158.082 17.5314 158.177 17.7387 158.368 17.8769C158.559 18.0151 158.918 18.1303 159.444 18.2225L160.807 18.4792C163.071 18.9137 164.203 19.9404 164.203 21.5597C164.203 22.5602 163.795 23.3533 162.979 23.9391C162.163 24.525 161.044 24.8178 159.622 24.8178C158.45 24.8178 157.433 24.5611 156.571 24.0478C155.709 23.5344 155.179 22.8497 154.982 21.9941H154.981Z" fill="#050212"/>
</g>
<defs>
<clipPath id="clip0_447_4123">
<rect width="164.204" height="36" fill="white"/>
</clipPath>
</defs>
</svg>
