<svg width="21" height="21" viewBox="0 0 21 21" fill="none" xmlns="http://www.w3.org/2000/svg">
<path fill-rule="evenodd" clip-rule="evenodd" d="M4.46361 0C1.99843 0 0 1.99843 0 4.46362V16.3666C0 18.8317 1.99843 20.8302 4.46361 20.8302H16.3666C18.8318 20.8302 20.8301 18.8317 20.8301 16.3666V4.46362C20.8301 1.99843 18.8318 0 16.3666 0H4.46361ZM17.6515 4.47008C17.6515 5.18016 17.0758 5.7558 16.3658 5.7558C15.6557 5.7558 15.08 5.18016 15.08 4.47008C15.08 3.75999 15.6557 3.18437 16.3658 3.18437C17.0758 3.18437 17.6515 3.75999 17.6515 4.47008ZM10.4153 6.84919C8.44598 6.84919 6.8495 8.44567 6.8495 10.415C6.8495 12.3843 8.44598 13.9808 10.4153 13.9808C12.3847 13.9808 13.9811 12.3843 13.9811 10.415C13.9811 8.44567 12.3847 6.84919 10.4153 6.84919ZM5.13521 10.415C5.13521 7.49888 7.4992 5.1349 10.4153 5.1349C13.3314 5.1349 15.6954 7.49888 15.6954 10.415C15.6954 13.3311 13.3314 15.6951 10.4153 15.6951C7.4992 15.6951 5.13521 13.3311 5.13521 10.415Z" fill="#292D32"/>
</svg>
