<svg width="141" height="152" viewBox="0 0 141 152" fill="none" xmlns="http://www.w3.org/2000/svg">
<path d="M5.894 115.964C17.2978 117.522 26.1003 118.385 42.9206 119.618C53.5676 120.355 63.3641 121.158 64.7343 121.386C66.1045 121.614 67.3854 121.566 67.567 121.344C67.8071 121.095 66.5395 117.652 64.7741 113.728C63.0249 109.762 61.5612 106.196 61.5202 105.792C61.4368 105.372 62.1322 102.771 62.977 100.032C64.9624 93.6463 66.8526 85.7193 66.6609 84.4325C66.4385 82.8427 65.0287 83.2306 58.3458 86.7657C56.0562 87.9367 53.9642 88.8428 53.667 88.73C53.3699 88.6173 52.1666 86.4126 51.0498 83.8522C47.2615 75.2764 46.7975 74.3234 46.1226 74.3102C45.7772 74.3248 43.2342 76.4196 40.4878 78.9227C24.7341 93.4397 14.8537 102.075 7.83991 107.378C4.8871 109.658 2.07189 112.086 1.63854 112.844C0.985583 114.054 0.989969 114.298 1.7585 114.832C2.24596 115.212 2.76564 115.506 2.893 115.554C3.03646 115.56 4.38033 115.73 5.894 115.964ZM9.68124 113.662C12.511 112.987 19.3753 112.046 34.2458 110.354C43.167 109.368 52.296 108.218 54.5402 107.806C56.7683 107.438 58.8046 107.19 59.0593 107.287C60.2055 107.722 65.3068 118.981 64.5031 119.307C63.6833 119.676 11.1759 114.714 9.27572 114.09C8.83509 113.972 8.98441 113.834 9.68124 113.662ZM10.7018 108.027C11.9389 106.942 16.6192 103.182 21.0169 99.6538C31.6409 91.1065 37.2654 86.3929 41.9692 82.0585C44.0758 80.0896 46.0214 78.5453 46.2337 78.6258C46.4884 78.7224 47.8117 81.5068 49.2711 84.8285C50.688 88.1341 52.4387 91.712 53.1413 92.8041L54.4836 94.7702L51.8339 95.6104C50.3919 96.0831 42.6814 98.7427 34.6942 101.492C21.9711 105.843 8.89234 110.109 8.55272 109.98C8.46782 109.948 9.43843 109.053 10.7018 108.027ZM15.9264 110.64C15.9586 110.555 21.0458 108.795 27.2075 106.761C38.6847 103.005 42.8247 101.565 52.4838 97.9936C57.8111 95.9839 58.0028 95.8624 59.947 93.2977C62.8472 89.4931 63.2454 89.5956 61.6671 93.756C60.9263 95.7088 59.7491 99.1958 59.0391 101.452L57.8063 105.597L39.0168 107.891C28.6757 109.164 19.2861 110.361 18.1428 110.558C15.9308 110.885 15.8298 110.895 15.9264 110.64ZM55.3284 92.0312C54.8161 91.2056 54.923 91.0519 57.7133 89.5851C59.3163 88.6878 60.7378 88.013 60.8227 88.0452C61.0774 88.1419 59.7949 89.9863 58.1831 91.803C56.7367 93.4396 56.2316 93.4908 55.3284 92.0312Z" fill="#405173"/>
<path d="M73.9875 91.1767C74.7649 90.7917 75.3563 90.3848 75.2611 90.2516C75.0504 89.7831 71.4301 90.1094 71.4227 90.6408C71.3817 91.6451 72.5499 91.894 73.9875 91.1767Z" fill="#405173"/>
<path d="M85.0167 88.2124C86.971 87.157 88.0646 86.0664 87.4278 85.8248C86.8335 85.5994 82.8911 86.7747 81.9586 87.4408C80.6103 88.4347 80.6044 88.5782 81.7931 89.0291C82.4723 89.2868 83.5469 89.0145 85.0167 88.2124Z" fill="#405173"/>
<path d="M95.236 82.9088C96.7409 82.6541 99.6952 79.987 100.089 78.4367C100.525 76.9026 99.7701 75.6933 99.2547 77.0518C99.0776 77.5188 98.0586 78.5406 96.9768 79.3442C93.7897 81.7288 93.0826 83.2088 95.236 82.9088Z" fill="#405173"/>
<path d="M93.1356 72.5888C94.7503 72.8128 95.9302 72.7748 95.8409 72.4981C95.6931 72.2478 93.6832 71.1454 91.3703 70.0737C87.5188 68.3212 87.0781 68.2026 86.5394 68.7267C85.1676 70.2945 87.9036 71.9152 93.1356 72.5888Z" fill="#405173"/>
<path d="M83.2454 66.7932C83.5675 65.9442 83.3905 63.5946 82.9733 62.9022C81.7056 60.8673 80.0982 62.9284 81.1682 65.2282C81.7844 66.6761 82.9716 67.5149 83.2454 66.7932Z" fill="#405173"/>
<path d="M102.044 73.5464C103.149 73.5772 108.845 70.979 109.07 70.3847C109.393 69.5356 108.691 69.4638 106.839 70.1211C105.892 70.4416 105.078 70.667 104.951 70.6187C104.824 70.5704 104.982 69.5134 105.247 68.3028C105.528 67.0497 105.534 65.498 105.319 64.785C104.866 63.5451 104.866 63.5451 103.704 67.3775C102.751 70.6581 102.424 71.2627 101.514 71.7428C100.018 72.4864 100.306 73.5185 102.044 73.5464Z" fill="#405173"/>
<path d="M82.1636 58.6198C83.7344 57.8074 85.6727 55.3862 85.2233 54.7786C84.7315 54.155 83.2266 54.4097 82.5912 55.1884C81.3146 56.8894 80.3718 58.8628 80.7114 58.9916C80.9661 59.0882 81.6205 58.8994 82.1636 58.6198Z" fill="#405173"/>
<path d="M114.237 67.6391C116.127 66.7535 119.301 63.6355 120.558 61.3445C121.415 59.727 121.431 59.6845 120.446 60.2334C119.886 60.5555 118.447 61.6607 117.285 62.6766C116.08 63.6764 114.427 65.089 113.596 65.7448C112.423 66.6597 112.145 67.1369 112.382 67.6639C112.619 68.1909 113.066 68.1661 114.237 67.6391Z" fill="#405173"/>
<path d="M103.16 60.2333C105.287 59.8747 102.076 54.7714 99.7847 54.9221C98.7907 54.982 98.8434 55.0992 100.25 56.8954C101.112 57.951 101.746 58.9684 101.682 59.1382C101.472 59.6901 102.421 60.3899 103.16 60.2333Z" fill="#405173"/>
<path d="M92.7507 53.5077C95.1456 53.9792 96.4822 51.8639 94.3172 51.0425C92.3643 50.3017 88.6372 50.7817 89.0426 51.7611C89.2695 52.1871 91.4815 53.269 92.7507 53.5077Z" fill="#405173"/>
<path d="M126.437 55.9567C128.375 54.9437 131.747 48.7442 130.558 48.2933C130.176 48.1483 125.374 53.1254 124.374 54.7372C123.775 55.6755 123.822 55.9361 124.502 56.1938C124.969 56.3709 125.835 56.2626 126.437 55.9567Z" fill="#405173"/>
<path d="M137.586 43.7255C137.964 43.626 138.764 42.6672 139.284 41.5532C140.066 40.0044 140.18 39.3193 139.823 38.2125L139.403 36.8877L138.539 37.6284C137.094 38.877 135.455 42.4314 135.973 43.1136C136.517 43.8543 136.687 43.9187 137.586 43.7255Z" fill="#405173"/>
</svg>
