<svg width="40" height="40" viewBox="0 0 40 40" fill="none" xmlns="http://www.w3.org/2000/svg">
<path d="M11.9667 18.312C12.7078 15.5466 15.5505 12.7039 18.3159 11.9628L35.5572 7.3423C38.3227 6.60118 39.9637 8.24225 39.2226 11.0077L34.6021 28.249C33.861 31.0145 31.0184 33.8571 28.2529 34.5982L11.0116 39.2187C8.24615 39.9598 6.60508 38.3188 7.3462 35.5533L11.9667 18.312Z" fill="#98A2B3"/>
<path d="M5.05457 11.4019C5.79569 8.63639 8.63835 5.79374 11.4038 5.05262L28.6451 0.432138C31.4106 -0.308982 33.0516 1.33209 32.3105 4.09757L27.69 21.3388C26.9489 24.1043 24.1063 26.947 21.3408 27.6881L4.09952 32.3086C1.33404 33.0497 -0.307027 31.4086 0.434093 28.6431L5.05457 11.4019Z" fill="#667085"/>
</svg>
