<svg width="25" height="24" viewBox="0 0 25 24" fill="none" xmlns="http://www.w3.org/2000/svg">
<path d="M4.77273 2C4.17129 2.00428 3.59569 2.24511 3.1704 2.6704C2.74511 3.09569 2.50428 3.67129 2.5 4.27273V19.7273C2.5 20.97 3.53 22 4.77273 22H20.2273C21.47 22 22.5 20.97 22.5 19.7273V4.27273C22.5 3.03 21.47 2 20.2273 2H4.77273ZM4.77273 3.81818H20.2273C20.4864 3.81818 20.6818 4.01364 20.6818 4.27273V19.7273C20.6831 19.7873 20.6721 19.847 20.6497 19.9027C20.6273 19.9584 20.5939 20.009 20.5514 20.0514C20.509 20.0939 20.4584 20.1273 20.4027 20.1497C20.347 20.1721 20.2873 20.1831 20.2273 20.1818H4.77273C4.71266 20.1832 4.65294 20.1724 4.59718 20.15C4.54141 20.1276 4.49076 20.0942 4.44827 20.0517C4.40579 20.0092 4.37236 19.9586 4.35 19.9028C4.32764 19.8471 4.31681 19.7873 4.31818 19.7273V4.27273C4.31818 4.01364 4.51364 3.81818 4.77273 3.81818ZM7.44364 5.38091C7.2353 5.37588 7.02807 5.41258 6.83413 5.48883C6.64019 5.56508 6.46346 5.67935 6.31434 5.82492C6.16522 5.97049 6.04672 6.14441 5.96581 6.33646C5.8849 6.5285 5.84322 6.73479 5.84322 6.94318C5.84322 7.15157 5.8849 7.35786 5.96581 7.54991C6.04672 7.74195 6.16522 7.91587 6.31434 8.06144C6.46346 8.20701 6.64019 8.32128 6.83413 8.39754C7.02807 8.47379 7.2353 8.51048 7.44364 8.50546C7.85145 8.49562 8.23925 8.3267 8.52421 8.03479C8.80916 7.74288 8.96868 7.35112 8.96868 6.94318C8.96868 6.53525 8.80916 6.14348 8.52421 5.85157C8.23925 5.55966 7.85145 5.39075 7.44364 5.38091ZM15.6527 9.52818C14.35 9.52818 13.4836 10.2418 13.1255 10.92H13.0682V9.72727H10.5109V18.3636H13.1818V14.1018C13.1818 12.9764 13.4055 11.8864 14.8009 11.8864C16.1755 11.8864 16.1936 13.1573 16.1936 14.1591V18.3636H18.8636V13.6191C18.8636 11.2973 18.3691 9.52818 15.6527 9.52818ZM6.13636 9.72727V18.3636H8.83545V9.72727H6.13636Z" fill="#373737"/>
</svg>
