<svg width="165" height="36" viewBox="0 0 165 36" fill="none" xmlns="http://www.w3.org/2000/svg">
<g clip-path="url(#clip0_675_32)">
<path d="M32.3047 0.000224113H3.69565C1.65473 0.000224113 0.000244141 1.65471 0.000244141 3.69563V32.3047C0.000244141 34.3456 1.65473 36.0001 3.69565 36.0001H32.3047C34.3457 36.0001 36.0002 34.3456 36.0002 32.3047V3.69563C36.0002 1.65471 34.3457 0.000224113 32.3047 0.000224113Z" fill="#1453FF"/>
<path d="M15.1326 14.478H21.1369V5.31224H26.4064V28.7392H21.1369V18.3962H15.609C15.4614 17.0698 15.3005 15.7332 15.1326 14.478Z" fill="white"/>
<path fill-rule="evenodd" clip-rule="evenodd" d="M11.6967 8.53667C11.4929 10.5895 9.8812 24.1948 9.59521 27.7076C10.4579 28.6484 11.8561 29.8463 12.7971 30.688C14.1521 29.4584 15.1209 28.4512 15.9837 27.7076C15.7145 24.4127 14.1765 11.1674 13.5456 8.52817C12.9606 8.47276 12.3573 8.4231 11.6967 8.53667Z" fill="white"/>
<path fill-rule="evenodd" clip-rule="evenodd" d="M10.1655 5.33786C10.3166 5.6812 11.5764 7.8533 11.6946 7.99501C12.4128 7.92659 12.831 7.92925 13.5485 7.99457C13.6316 7.89579 14.9913 5.53276 15.0771 5.33786C12.6217 5.30122 12.6214 5.306 10.1655 5.33786Z" fill="white"/>
<path d="M45.0542 24.5411V10.7187H48.0556V16.1883H53.9796V10.7187H56.9809V24.5411H53.9796V18.6764H48.0556V24.5411H45.0542Z" fill="#050212"/>
<path d="M59.2307 22.0135C59.244 21.3686 59.4019 20.809 59.7046 20.3351C60.0075 19.8613 60.4451 19.4794 61.0178 19.1898C61.5905 18.9003 62.2289 18.6732 62.9332 18.5086C63.6375 18.344 64.4701 18.2156 65.4311 18.1234V17.7482C65.4311 16.84 64.8914 16.3857 63.8119 16.3857C62.6139 16.3857 61.8898 16.9057 61.6398 17.9458L59.1123 17.3928C59.1912 16.5636 59.6552 15.8527 60.5043 15.2603C61.3534 14.6679 62.4494 14.3717 63.7922 14.3717C65.2139 14.3717 66.3033 14.6942 67.0602 15.3393C67.8171 15.9843 68.1956 16.9388 68.1956 18.2025V21.8161C68.1956 22.0793 68.2284 22.2439 68.2944 22.3097C68.3601 22.3755 68.5248 22.4085 68.788 22.4085H69.6568V24.541H67.5044C66.4251 24.541 65.8326 24.0605 65.7273 23.0995C64.9638 24.2712 63.8382 24.857 62.3506 24.857C61.4555 24.857 60.7117 24.5936 60.1193 24.067C59.5269 23.5405 59.2306 22.8559 59.2306 22.0134L59.2307 22.0135ZM65.4311 20.4932V19.8613C64.2991 20.0061 63.4565 20.21 62.9037 20.4734C62.3507 20.7367 62.0743 21.1579 62.0743 21.7371C62.0743 22.4481 62.5021 22.8034 63.3577 22.8034C63.9501 22.8034 64.4438 22.6059 64.8387 22.211C65.2338 21.8162 65.4311 21.2434 65.4311 20.4931V20.4932Z" fill="#050212"/>
<path d="M70.4672 19.5847C70.4672 18.0445 70.974 16.7905 71.9876 15.823C73.0013 14.8555 74.265 14.3717 75.7789 14.3717C76.9111 14.3717 77.8918 14.6416 78.721 15.1812C79.5504 15.7211 80.1363 16.4386 80.4785 17.3337L77.8918 18.3013C77.4835 17.156 76.7464 16.5834 75.68 16.5834C74.9824 16.5834 74.4097 16.8466 73.9621 17.3732C73.5145 17.8998 73.2908 18.637 73.2908 19.5848C73.2908 20.5326 73.5179 21.2764 73.972 21.8163C74.4262 22.3559 75.0022 22.6258 75.6999 22.6258C76.7792 22.6258 77.5429 22.0005 77.9904 20.7499L80.6365 21.6978C80.2547 22.6588 79.6294 23.4256 78.7606 23.9983C77.8918 24.5708 76.8912 24.8572 75.759 24.8572C74.2187 24.8572 72.9518 24.3701 71.9579 23.3959C70.964 22.4218 70.467 21.1513 70.467 19.5848L70.4672 19.5847Z" fill="#050212"/>
<path d="M89.7205 24.5411L86.64 20.4338L85.1985 21.8359V24.5411H82.3945V10.7187H85.1985V15.1221V18.6567L89.1676 14.6679H92.6035L88.5752 18.5776L93.255 24.5411H89.7205Z" fill="#050212"/>
<path d="M95.3676 21.9545V16.8006H93.2942V14.668H95.3676V11.5679H98.1716V14.668H100.739V16.8006H98.1716V21.4411C98.1716 21.7438 98.2408 21.9643 98.379 22.1026C98.5171 22.2408 98.7377 22.31 99.0406 22.31H101.173V24.5413H97.8755C97.0989 24.5413 96.4868 24.3043 96.0391 23.8304C95.5915 23.3565 95.3677 22.7311 95.3677 21.9545H95.3676Z" fill="#050212"/>
<path d="M102.971 24.541V10.7185H105.775V14.2926V16.1882C106.525 14.9772 107.598 14.3716 108.993 14.3716C110.033 14.3716 110.817 14.6809 111.343 15.2996C111.87 15.9183 112.133 16.7937 112.133 17.926V24.541H109.329V18.5381C109.329 17.3007 108.802 16.682 107.749 16.682C107.157 16.682 106.716 16.8596 106.426 17.2151C105.992 17.7417 105.775 18.6236 105.775 19.8612V24.541H102.971Z" fill="#050212"/>
<path d="M114.106 19.5847C114.106 18.0708 114.58 16.8235 115.528 15.8428C116.476 14.8621 117.667 14.3717 119.102 14.3717C120.59 14.3717 121.761 14.8588 122.617 15.833C123.473 16.8071 123.901 18.0643 123.901 19.6044C123.901 19.9073 123.894 20.1311 123.881 20.2759H116.91C116.95 21.0789 117.167 21.6878 117.562 22.1024C117.957 22.517 118.477 22.7244 119.122 22.7244C120.149 22.7244 120.912 22.1517 121.413 21.0064L123.92 21.9741C123.578 22.7639 123.025 23.4484 122.262 24.0277C121.511 24.5806 120.465 24.8571 119.122 24.8571C117.608 24.8571 116.394 24.3798 115.479 23.4254C114.564 22.471 114.106 21.1908 114.106 19.5847ZM117.009 18.3012H121.116C120.972 17.0243 120.3 16.3858 119.102 16.3858C118.536 16.3858 118.069 16.5504 117.7 16.8795C117.332 17.2086 117.101 17.6825 117.009 18.3012H117.009Z" fill="#050212"/>
<path d="M126.073 13.3053V10.7185H128.996V13.3053H126.073ZM123.921 28.3917V26.1602H125.303C125.619 26.1602 125.843 26.0912 125.975 25.953C126.106 25.8147 126.172 25.5943 126.172 25.2914V14.6678H128.936V25.8047C128.936 26.6078 128.716 27.2397 128.275 27.7005C127.834 28.1613 127.225 28.3917 126.448 28.3917H123.921Z" fill="#050212"/>
<path d="M130.989 19.6044C130.989 18.0511 131.476 16.7906 132.45 15.823C133.424 14.8555 134.668 14.3717 136.182 14.3717C137.709 14.3717 138.957 14.8555 139.924 15.823C140.892 16.7906 141.375 18.0511 141.375 19.6044C141.375 21.1841 140.895 22.4546 139.934 23.4156C138.973 24.3766 137.722 24.8571 136.182 24.8571C134.694 24.8571 133.457 24.3602 132.47 23.3661C131.482 22.3722 130.989 21.1183 130.989 19.6044H130.989ZM137.851 21.8655C138.252 21.3586 138.453 20.6181 138.453 19.6441C138.453 18.6699 138.252 17.9163 137.851 17.383C137.449 16.8499 136.893 16.5834 136.182 16.5834C135.471 16.5834 134.915 16.8499 134.514 17.383C134.112 17.9163 133.911 18.6699 133.911 19.6441C133.911 20.6182 134.112 21.3587 134.514 21.8655C134.915 22.3723 135.471 22.6257 136.182 22.6257C136.893 22.6257 137.449 22.3723 137.851 21.8655Z" fill="#050212"/>
<path d="M146.155 23.218V24.541H143.43V10.7185H146.234V14.2926V15.9908C146.524 15.5563 146.948 15.1778 147.508 14.8555C148.067 14.5329 148.715 14.3716 149.453 14.3716C150.743 14.3716 151.776 14.8487 152.553 15.8032C153.329 16.7576 153.718 18.0247 153.718 19.6043C153.718 21.1709 153.326 22.4381 152.543 23.4057C151.76 24.3733 150.723 24.857 149.433 24.857C148.696 24.857 148.044 24.7022 147.478 24.393C146.912 24.0835 146.471 23.6919 146.155 23.218L146.155 23.218ZM148.465 22.7244C150.006 22.7244 150.776 21.6845 150.776 19.6044C150.776 17.5245 150.006 16.4845 148.465 16.4845C147.741 16.4845 147.169 16.7544 146.747 17.2942C146.326 17.8338 146.115 18.6039 146.115 19.6043C146.115 20.605 146.326 21.375 146.747 21.9147C147.169 22.4545 147.741 22.7243 148.465 22.7243V22.7244Z" fill="#050212"/>
<path d="M154.981 21.9937L157.529 21.1841C157.608 21.5396 157.798 21.9081 158.101 22.2901C158.391 22.6586 158.95 22.8429 159.78 22.8429C160.24 22.8429 160.606 22.7507 160.876 22.5665C161.145 22.3821 161.28 22.1452 161.28 21.8556C161.28 21.5791 161.188 21.3586 161.004 21.1941C160.82 21.0295 160.504 20.9011 160.056 20.8089L158.654 20.5325C157.509 20.3086 156.676 19.9731 156.156 19.5255C155.636 19.0778 155.376 18.3999 155.376 17.4915C155.376 16.5436 155.758 15.7868 156.521 15.2208C157.285 14.6547 158.318 14.3717 159.622 14.3717C160.701 14.3717 161.6 14.5954 162.317 15.043C163.035 15.4906 163.525 16.0237 163.788 16.6424L161.478 17.6891C161.136 16.7675 160.471 16.3067 159.483 16.3067C159.036 16.3067 158.69 16.3923 158.447 16.5636C158.203 16.7346 158.082 16.965 158.082 17.2546C158.082 17.531 158.177 17.7384 158.368 17.8765C158.559 18.0147 158.918 18.13 159.444 18.2221L160.807 18.4788C163.071 18.9133 164.203 19.94 164.203 21.5594C164.203 22.5598 163.795 23.3529 162.979 23.9388C162.162 24.5247 161.044 24.8175 159.622 24.8175C158.45 24.8175 157.433 24.5608 156.571 24.0474C155.709 23.534 155.179 22.8494 154.981 21.9937H154.981Z" fill="#050212"/>
</g>
<defs>
<clipPath id="clip0_675_32">
<rect width="164.204" height="36" fill="white"/>
</clipPath>
</defs>
</svg>
