<svg width="26" height="24" viewBox="0 0 26 24" fill="none" xmlns="http://www.w3.org/2000/svg">
<mask id="path-1-inside-1_399_9351" fill="white">
<path d="M23 19.5H20.5V8.5625L13 13.25L5.5 8.5625V19.5H3V4.5H4.5L13 9.8125L21.5 4.5H23M23 2H3C1.6125 2 0.5 3.1125 0.5 4.5V19.5C0.5 20.163 0.763392 20.7989 1.23223 21.2678C1.70107 21.7366 2.33696 22 3 22H23C23.663 22 24.2989 21.7366 24.7678 21.2678C25.2366 20.7989 25.5 20.163 25.5 19.5V4.5C25.5 3.83696 25.2366 3.20107 24.7678 2.73223C24.2989 2.26339 23.663 2 23 2Z"/>
</mask>
<path d="M20.5 19.5H19V21H20.5V19.5ZM20.5 8.5625H22V5.85613L19.705 7.2905L20.5 8.5625ZM13 13.25L12.205 14.522L13 15.0189L13.795 14.522L13 13.25ZM5.5 8.5625L6.295 7.2905L4 5.85613V8.5625H5.5ZM5.5 19.5V21H7V19.5H5.5ZM3 19.5H1.5V21H3V19.5ZM3 4.5V3H1.5V4.5H3ZM4.5 4.5L5.295 3.228L4.93019 3H4.5V4.5ZM13 9.8125L12.205 11.0845L13 11.5814L13.795 11.0845L13 9.8125ZM21.5 4.5V3H21.0698L20.705 3.228L21.5 4.5ZM23 2V0.5V2ZM0.5 19.5H-1H0.5ZM23 18H20.5V21H23V18ZM22 19.5V8.5625H19V19.5H22ZM19.705 7.2905L12.205 11.978L13.795 14.522L21.295 9.8345L19.705 7.2905ZM13.795 11.978L6.295 7.2905L4.705 9.8345L12.205 14.522L13.795 11.978ZM4 8.5625V19.5H7V8.5625H4ZM5.5 18H3V21H5.5V18ZM4.5 19.5V4.5H1.5V19.5H4.5ZM3 6H4.5V3H3V6ZM3.705 5.772L12.205 11.0845L13.795 8.5405L5.295 3.228L3.705 5.772ZM13.795 11.0845L22.295 5.772L20.705 3.228L12.205 8.5405L13.795 11.0845ZM21.5 6H23V3H21.5V6ZM23 0.5H3V3.5H23V0.5ZM3 0.5C0.784073 0.5 -1 2.28407 -1 4.5H2C2 3.94093 2.44093 3.5 3 3.5V0.5ZM-1 4.5V19.5H2V4.5H-1ZM-1 19.5C-1 20.5609 -0.578573 21.5783 0.171573 22.3284L2.29289 20.2071C2.10536 20.0196 2 19.7652 2 19.5H-1ZM0.171573 22.3284C0.921718 23.0786 1.93913 23.5 3 23.5V20.5C2.73478 20.5 2.48043 20.3946 2.29289 20.2071L0.171573 22.3284ZM3 23.5H23V20.5H3V23.5ZM23 23.5C24.0609 23.5 25.0783 23.0786 25.8284 22.3284L23.7071 20.2071C23.5196 20.3946 23.2652 20.5 23 20.5V23.5ZM25.8284 22.3284C26.5786 21.5783 27 20.5609 27 19.5H24C24 19.7652 23.8946 20.0196 23.7071 20.2071L25.8284 22.3284ZM27 19.5V4.5H24V19.5H27ZM27 4.5C27 3.43913 26.5786 2.42172 25.8284 1.67157L23.7071 3.79289C23.8946 3.98043 24 4.23478 24 4.5H27ZM25.8284 1.67157C25.0783 0.921427 24.0609 0.5 23 0.5V3.5C23.2652 3.5 23.5196 3.60536 23.7071 3.79289L25.8284 1.67157Z" fill="black" mask="url(#path-1-inside-1_399_9351)"/>
</svg>
