<svg width="57" height="57" viewBox="0 0 57 57" fill="none" xmlns="http://www.w3.org/2000/svg">
<rect opacity="0.2" x="0.5" y="0.388672" width="56" height="56" rx="4" fill="white"/>
<path fill-rule="evenodd" clip-rule="evenodd" d="M29.9004 31.9958C30.8947 31.4209 31.7634 30.6519 32.4547 29.7347C32.2319 29.3882 32.0734 29.0043 31.9867 28.6015L31.9541 28.4507C31.8608 28.02 31.6408 27.627 31.3225 27.3222C31.0043 27.0173 30.6022 26.8145 30.1678 26.7398C26.6158 26.1227 26.6158 21.0244 30.1678 20.4055C30.5873 20.3333 30.9771 20.1416 31.2903 19.8533C31.6035 19.565 31.8269 19.1925 31.9336 18.7804C31.0983 17.8702 30.0762 17.1514 28.9372 16.673C27.7982 16.1947 26.5693 15.9682 25.3347 16.0091C24.1 16.05 22.8888 16.3572 21.7839 16.9099C20.6791 17.4625 19.7067 18.2474 18.9335 19.2108C18.1603 20.1743 17.6045 21.2934 17.3041 22.4917C17.0037 23.69 16.9659 24.939 17.1933 26.1532C17.4206 27.3675 17.9077 28.5182 18.6213 29.5267C19.3348 30.5351 20.2579 31.3774 21.3273 31.9958V33.9998C21.3273 34.4545 21.5079 34.8905 21.8294 35.212C22.1509 35.5335 22.5869 35.7141 23.0416 35.7141H28.1844C28.6391 35.7141 29.0751 35.5335 29.3966 35.212C29.7181 34.8905 29.8987 34.4545 29.8987 33.9998L29.9004 31.9958ZM21.329 38.7141C21.329 38.3731 21.4644 38.0461 21.7056 37.805C21.9467 37.5639 22.2737 37.4284 22.6147 37.4284H28.6147C28.9557 37.4284 29.2827 37.5639 29.5238 37.805C29.765 38.0461 29.9004 38.3731 29.9004 38.7141C29.9004 39.0551 29.765 39.3821 29.5238 39.6232C29.2827 39.8644 28.9557 39.9998 28.6147 39.9998H22.6147C22.2737 39.9998 21.9467 39.8644 21.7056 39.6232C21.4644 39.3821 21.329 39.0551 21.329 38.7141ZM33.809 18.9433C34.1227 17.5101 36.1627 17.5015 36.4884 18.9313L36.5038 18.9998L36.5347 19.1335C36.7197 19.9166 37.1303 20.6282 37.7156 21.1803C38.301 21.7324 39.0353 22.1008 39.8278 22.2398C41.3227 22.5004 41.3227 24.6467 39.8278 24.9073C39.0307 25.0469 38.2925 25.4185 37.7055 25.9756C37.1186 26.5327 36.7089 27.2505 36.5278 28.0393L36.4884 28.2141C36.1627 29.6455 34.121 29.637 33.8056 28.2021L33.773 28.053C33.6002 27.2612 33.1955 26.5388 32.6105 25.978C32.0255 25.4171 31.2868 25.0432 30.4884 24.9038C28.9953 24.645 28.9953 22.5021 30.4884 22.2415C31.284 22.1032 32.0206 21.7319 32.6049 21.1747C33.1893 20.6174 33.5952 19.8993 33.7713 19.1113L33.797 18.9998L33.809 18.9433Z" fill="white"/>
</svg>
