<svg width="57" height="57" viewBox="0 0 57 57" fill="none" xmlns="http://www.w3.org/2000/svg">
<rect opacity="0.2" x="0.5" y="0.388672" width="56" height="56" rx="4" fill="white"/>
<path d="M23.56 16.8189C21.67 16.8089 19.83 18.6289 20.67 20.8889H17.5C16.9696 20.8889 16.4609 21.0996 16.0858 21.4747C15.7107 21.8497 15.5 22.3585 15.5 22.8889V24.8889C15.5 25.1541 15.6054 25.4085 15.7929 25.596C15.9804 25.7835 16.2348 25.8889 16.5 25.8889H25.5V22.8889H27.5V25.8889H36.5C36.7652 25.8889 37.0196 25.7835 37.2071 25.596C37.3946 25.4085 37.5 25.1541 37.5 24.8889V22.8889C37.5 22.3585 37.2893 21.8497 36.9142 21.4747C36.5391 21.0996 36.0304 20.8889 35.5 20.8889H32.33C33.5 17.6189 29.1 15.3089 27.07 18.1289L26.5 18.8889L25.93 18.1089C25.3 17.2189 24.43 16.8289 23.56 16.8189ZM23.5 18.8889C24.39 18.8889 24.84 19.9689 24.21 20.5989C23.58 21.2289 22.5 20.7789 22.5 19.8889C22.5 19.6237 22.6054 19.3693 22.7929 19.1818C22.9804 18.9942 23.2348 18.8889 23.5 18.8889ZM29.5 18.8889C30.39 18.8889 30.84 19.9689 30.21 20.5989C29.58 21.2289 28.5 20.7789 28.5 19.8889C28.5 19.6237 28.6054 19.3693 28.7929 19.1818C28.9804 18.9942 29.2348 18.8889 29.5 18.8889ZM16.5 26.8889V34.8889C16.5 35.4193 16.7107 35.928 17.0858 36.3031C17.4609 36.6782 17.9696 36.8889 18.5 36.8889H34.5C35.0304 36.8889 35.5391 36.6782 35.9142 36.3031C36.2893 35.928 36.5 35.4193 36.5 34.8889V26.8889H27.5V34.8889H25.5V26.8889H16.5Z" fill="white"/>
</svg>
