<svg width="57" height="57" viewBox="0 0 57 57" fill="none" xmlns="http://www.w3.org/2000/svg">
<rect opacity="0.2" x="0.5" y="0.388672" width="56" height="56" rx="4" fill="white"/>
<path d="M26.5 18.3887C24.9177 18.3887 23.371 18.8579 22.0554 19.7369C20.7398 20.616 19.7145 21.8654 19.109 23.3272C18.5035 24.789 18.345 26.3975 18.6537 27.9494C18.9624 29.5012 19.7243 30.9267 20.8431 32.0455C21.962 33.1643 23.3874 33.9263 24.9393 34.235C26.4911 34.5436 28.0997 34.3852 29.5615 33.7797C31.0233 33.1742 32.2727 32.1488 33.1518 30.8332C34.0308 29.5176 34.5 27.9709 34.5 26.3887C34.4992 24.2672 33.6561 22.2328 32.156 20.7327C30.6559 19.2326 28.6215 18.3895 26.5 18.3887ZM20.5 26.3887C20.5014 26.0212 20.5365 25.6547 20.605 25.2937L24.1 28.7887V29.5887C24.1013 30.0126 24.2703 30.4188 24.5701 30.7186C24.8699 31.0184 25.2761 31.1874 25.7 31.1887V32.3287C24.2617 32.1343 22.9425 31.4255 21.9865 30.3335C21.0305 29.2414 20.5024 27.8401 20.5 26.3887ZM29.7 29.5887H28.9V27.1887C28.9 27.0836 28.8793 26.9796 28.8391 26.8825C28.7989 26.7855 28.74 26.6973 28.6657 26.623C28.5914 26.5487 28.5032 26.4898 28.4061 26.4496C28.3091 26.4094 28.2051 26.3887 28.1 26.3887H23.3V24.7887H24.9C25.1122 24.7887 25.3157 24.7044 25.4657 24.5544C25.6157 24.4043 25.7 24.2008 25.7 23.9887V22.3887H27.3C27.7058 22.3869 28.0959 22.231 28.3911 21.9525C28.6863 21.674 28.8646 21.2937 28.89 20.8887C29.7545 21.2624 30.5186 21.8348 31.1201 22.5595C31.7217 23.2841 32.1438 24.1405 32.352 25.059C32.5602 25.9775 32.5488 26.9322 32.3185 27.8454C32.0883 28.7587 31.6458 29.6047 31.027 30.3147C30.8848 30.0917 30.6887 29.9082 30.4567 29.7813C30.2247 29.6544 29.9644 29.5881 29.7 29.5887ZM27.5 15.3887C27.5 15.5865 27.4414 15.7798 27.3315 15.9442C27.2216 16.1087 27.0654 16.2369 26.8827 16.3126C26.7 16.3882 26.4989 16.408 26.3049 16.3695C26.1109 16.3309 25.9327 16.2356 25.7929 16.0958C25.653 15.9559 25.5578 15.7777 25.5192 15.5838C25.4806 15.3898 25.5004 15.1887 25.5761 15.006C25.6518 14.8233 25.78 14.6671 25.9444 14.5572C26.1089 14.4473 26.3022 14.3887 26.5 14.3887C26.7652 14.3887 27.0196 14.494 27.2071 14.6816C27.3946 14.8691 27.5 15.1235 27.5 15.3887ZM32.5 16.3887C32.5 16.5865 32.4414 16.7798 32.3315 16.9442C32.2216 17.1087 32.0654 17.2369 31.8827 17.3126C31.7 17.3882 31.4989 17.408 31.3049 17.3695C31.1109 17.3309 30.9327 17.2356 30.7929 17.0958C30.653 16.9559 30.5578 16.7777 30.5192 16.5838C30.4806 16.3898 30.5004 16.1887 30.5761 16.006C30.6518 15.8233 30.78 15.6671 30.9444 15.5572C31.1089 15.4473 31.3022 15.3887 31.5 15.3887C31.7652 15.3887 32.0196 15.494 32.2071 15.6816C32.3946 15.8691 32.5 16.1235 32.5 16.3887ZM36.5 20.3887C36.5 20.5865 36.4414 20.7798 36.3315 20.9442C36.2216 21.1087 36.0654 21.2369 35.8827 21.3126C35.7 21.3882 35.4989 21.408 35.3049 21.3695C35.1109 21.3309 34.9327 21.2356 34.7929 21.0958C34.653 20.9559 34.5578 20.7777 34.5192 20.5838C34.4806 20.3898 34.5004 20.1887 34.5761 20.006C34.6518 19.8233 34.78 19.6671 34.9444 19.5572C35.1089 19.4473 35.3022 19.3887 35.5 19.3887C35.7652 19.3887 36.0196 19.494 36.2071 19.6816C36.3946 19.8691 36.5 20.1235 36.5 20.3887ZM38.5 26.3887C38.5 26.5865 38.4414 26.7798 38.3315 26.9442C38.2216 27.1087 38.0654 27.2369 37.8827 27.3126C37.7 27.3882 37.4989 27.408 37.3049 27.3695C37.1109 27.3309 36.9327 27.2356 36.7929 27.0958C36.653 26.9559 36.5578 26.7777 36.5192 26.5838C36.4806 26.3898 36.5004 26.1887 36.5761 26.006C36.6518 25.8233 36.78 25.6671 36.9444 25.5572C37.1089 25.4473 37.3022 25.3887 37.5 25.3887C37.7652 25.3887 38.0196 25.494 38.2071 25.6816C38.3946 25.8691 38.5 26.1235 38.5 26.3887ZM36.5 32.3887C36.5 32.5865 36.4414 32.7798 36.3315 32.9442C36.2216 33.1087 36.0654 33.2369 35.8827 33.3126C35.7 33.3882 35.4989 33.408 35.3049 33.3695C35.1109 33.3309 34.9327 33.2356 34.7929 33.0958C34.653 32.9559 34.5578 32.7777 34.5192 32.5838C34.4806 32.3898 34.5004 32.1887 34.5761 32.006C34.6518 31.8233 34.78 31.6671 34.9444 31.5572C35.1089 31.4473 35.3022 31.3887 35.5 31.3887C35.7652 31.3887 36.0196 31.494 36.2071 31.6816C36.3946 31.8691 36.5 32.1235 36.5 32.3887ZM32.5 36.3887C32.5 36.5865 32.4414 36.7798 32.3315 36.9442C32.2216 37.1087 32.0654 37.2369 31.8827 37.3126C31.7 37.3882 31.4989 37.408 31.3049 37.3695C31.1109 37.3309 30.9327 37.2356 30.7929 37.0958C30.653 36.9559 30.5578 36.7777 30.5192 36.5838C30.4806 36.3898 30.5004 36.1887 30.5761 36.006C30.6518 35.8233 30.78 35.6671 30.9444 35.5572C31.1089 35.4473 31.3022 35.3887 31.5 35.3887C31.7652 35.3887 32.0196 35.494 32.2071 35.6816C32.3946 35.8691 32.5 36.1235 32.5 36.3887ZM27.5 37.3887C27.5 37.5865 27.4414 37.7798 27.3315 37.9442C27.2216 38.1087 27.0654 38.2369 26.8827 38.3126C26.7 38.3882 26.4989 38.408 26.3049 38.3695C26.1109 38.3309 25.9327 38.2356 25.7929 38.0958C25.653 37.9559 25.5578 37.7777 25.5192 37.5838C25.4806 37.3898 25.5004 37.1887 25.5761 37.006C25.6518 36.8233 25.78 36.6671 25.9444 36.5572C26.1089 36.4473 26.3022 36.3887 26.5 36.3887C26.7652 36.3887 27.0196 36.494 27.2071 36.6816C27.3946 36.8691 27.5 37.1235 27.5 37.3887ZM22.5 36.3887C22.5 36.5865 22.4414 36.7798 22.3315 36.9442C22.2216 37.1087 22.0654 37.2369 21.8827 37.3126C21.7 37.3882 21.4989 37.408 21.3049 37.3695C21.1109 37.3309 20.9327 37.2356 20.7929 37.0958C20.653 36.9559 20.5578 36.7777 20.5192 36.5838C20.4806 36.3898 20.5004 36.1887 20.5761 36.006C20.6518 35.8233 20.78 35.6671 20.9444 35.5572C21.1089 35.4473 21.3022 35.3887 21.5 35.3887C21.7652 35.3887 22.0196 35.494 22.2071 35.6816C22.3946 35.8691 22.5 36.1235 22.5 36.3887ZM18.5 32.3887C18.5 32.5865 18.4414 32.7798 18.3315 32.9442C18.2216 33.1087 18.0654 33.2369 17.8827 33.3126C17.7 33.3882 17.4989 33.408 17.3049 33.3695C17.1109 33.3309 16.9327 33.2356 16.7929 33.0958C16.653 32.9559 16.5578 32.7777 16.5192 32.5838C16.4806 32.3898 16.5004 32.1887 16.5761 32.006C16.6518 31.8233 16.78 31.6671 16.9444 31.5572C17.1089 31.4473 17.3022 31.3887 17.5 31.3887C17.7652 31.3887 18.0196 31.494 18.2071 31.6816C18.3946 31.8691 18.5 32.1235 18.5 32.3887ZM16.5 26.3887C16.5 26.5865 16.4414 26.7798 16.3315 26.9442C16.2216 27.1087 16.0654 27.2369 15.8827 27.3126C15.7 27.3882 15.4989 27.408 15.3049 27.3695C15.1109 27.3309 14.9327 27.2356 14.7929 27.0958C14.653 26.9559 14.5578 26.7777 14.5192 26.5838C14.4806 26.3898 14.5004 26.1887 14.5761 26.006C14.6518 25.8233 14.78 25.6671 14.9444 25.5572C15.1089 25.4473 15.3022 25.3887 15.5 25.3887C15.7652 25.3887 16.0196 25.494 16.2071 25.6816C16.3946 25.8691 16.5 26.1235 16.5 26.3887ZM18.5 20.3887C18.5 20.5865 18.4414 20.7798 18.3315 20.9442C18.2216 21.1087 18.0654 21.2369 17.8827 21.3126C17.7 21.3882 17.4989 21.408 17.3049 21.3695C17.1109 21.3309 16.9327 21.2356 16.7929 21.0958C16.653 20.9559 16.5578 20.7777 16.5192 20.5838C16.4806 20.3898 16.5004 20.1887 16.5761 20.006C16.6518 19.8233 16.78 19.6671 16.9444 19.5572C17.1089 19.4473 17.3022 19.3887 17.5 19.3887C17.7652 19.3887 18.0196 19.494 18.2071 19.6816C18.3946 19.8691 18.5 20.1235 18.5 20.3887ZM22.5 16.3887C22.5 16.5865 22.4414 16.7798 22.3315 16.9442C22.2216 17.1087 22.0654 17.2369 21.8827 17.3126C21.7 17.3882 21.4989 17.408 21.3049 17.3695C21.1109 17.3309 20.9327 17.2356 20.7929 17.0958C20.653 16.9559 20.5578 16.7777 20.5192 16.5838C20.4806 16.3898 20.5004 16.1887 20.5761 16.006C20.6518 15.8233 20.78 15.6671 20.9444 15.5572C21.1089 15.4473 21.3022 15.3887 21.5 15.3887C21.7652 15.3887 22.0196 15.494 22.2071 15.6816C22.3946 15.8691 22.5 16.1235 22.5 16.3887Z" fill="white"/>
</svg>
