<svg width="155" height="148" viewBox="0 0 155 148" fill="none" xmlns="http://www.w3.org/2000/svg">
<path d="M77.1241 0.89328C76.8794 1.46416 76.5532 4.07388 76.3086 6.76517C75.493 14.5128 72.2309 18.7536 65.7065 20.7109C54.5337 24.0546 46.4598 20.6293 38.7122 9.37488C35.45 4.64476 33.7374 3.50301 30.9646 4.4001C28.5995 5.13408 28.1917 7.98846 29.8228 13.4526C32.8403 23.8915 28.9257 38.0819 21.0966 45.177L17.6713 48.2761L10.6577 47.8683C-1.33077 47.1343 -2.88029 49.1732 4.378 56.1868C9.76056 61.3247 14.6538 69.317 14.6538 72.8238C14.6538 77.7986 11.5547 86.4433 7.3955 93.2939C0.789632 103.977 2.66537 106.995 12.4518 101.531C18.813 97.9424 23.7878 97.6162 29.3335 100.389C36.5102 104.059 38.6306 109.768 38.7938 125.915C38.8753 140.84 38.6306 139.698 41.9744 139.127C43.9317 138.801 46.4598 137.17 49.9666 133.989C63.423 121.675 72.2309 123.713 82.5882 141.574C87.4814 149.974 88.8679 150.055 92.3747 142.308C95.066 136.436 98.6543 133.092 104.118 131.543C112.111 129.178 121.979 132.032 127.769 138.312C129.156 139.943 130.705 140.921 131.194 140.595C134.375 138.638 128.748 131.624 120.837 127.791C116.107 125.426 114.557 125.1 109.256 125.1C104.445 125.181 102.161 125.589 98.5728 127.302C94.4951 129.178 87.2368 135.457 87.2368 137.088C87.2368 138.638 85.8504 137.496 84.3824 134.805C82.5067 131.298 77.7765 126.976 73.3726 124.692C65.7881 120.859 57.388 122.082 49.1511 128.28C46.5414 130.238 44.3394 131.787 44.2579 131.706C44.1763 131.624 44.5025 129.912 44.9103 127.954C46.2152 122.49 45.2365 114.009 42.7899 108.544C38.3044 98.758 30.7199 93.7016 20.5257 93.7016H14.6538L16.2849 90.4395C19.9548 83.1812 21.4228 71.9267 19.4655 65.8917C18.9762 64.3422 17.4266 61.7325 16.1218 60.0199C13.7567 57.0024 13.7567 57.0024 15.6324 57.0024C18.813 57.0024 25.9082 52.2722 29.4151 47.7868C33.819 42.3227 35.45 38.245 37.2442 29.274C38.386 23.2391 38.8753 22.0157 39.854 22.4235C49.8035 26.5828 63.5861 27.643 70.1105 24.707C73.5357 23.0759 77.3688 19.5691 81.1202 14.2681L82.7513 11.9031L85.361 14.105C93.598 21.0371 110.48 20.9555 117.901 13.9419L119.614 12.3108L122.468 15.6545C127.851 22.0973 137.556 25.7672 145.874 24.4624L150.033 23.8099L149.381 25.9303C147.994 30.8236 148.892 38.0819 151.583 43.546C154.274 48.9285 159.412 54.2295 162.837 55.0451C165.447 55.6975 165.202 56.513 161.696 58.1441C156.639 60.5092 152.969 64.016 150.36 68.583C148.321 72.3345 147.994 73.7209 147.994 79.4297C147.994 87.1773 149.789 91.1735 156.721 99.3288C159.086 102.183 160.88 104.711 160.717 105.038C160.554 105.282 157.781 106.506 154.6 107.647C137.8 113.764 132.01 119.717 132.091 130.89C132.173 138.475 135.435 144.265 139.594 144.265C142.286 144.265 142.367 143.939 140.247 139.78C139.105 137.496 138.616 134.968 138.616 130.809C138.616 119.962 142.204 116.618 158.678 111.97C169.198 108.952 173.113 107.484 174.092 105.935C174.907 104.63 172.95 101.857 171.074 101.857C168.22 101.857 162.429 97.9424 159.983 94.2725C156.639 89.3793 155.497 85.3831 155.905 79.3481C156.15 75.2704 156.721 73.4763 158.678 70.7034C161.859 66.1364 167.404 62.7927 172.705 62.1403C177.354 61.6509 179.066 59.9383 178.169 57.0024C177.517 54.9635 174.826 53.414 173.031 54.148C172.134 54.4742 169.932 52.7616 165.855 48.6023C161.125 43.7906 159.738 41.7518 158.515 37.9188C156.476 31.5575 157.699 26.0119 162.674 18.5089C164.713 15.4914 166.344 12.4739 166.344 11.8215C166.344 8.96712 162.919 9.61955 153.459 14.1866C142.204 19.6507 138.045 20.14 132.907 16.7147C129.237 14.2681 124.996 8.07002 123.773 3.42145C122.468 -1.71645 120.429 -1.14557 115.047 6.03117C110.887 11.4953 107.951 12.9633 101.101 12.9633C94.4135 12.9633 91.396 11.4953 84.8717 5.21564C79.4076 -0.0853729 77.695 -0.982468 77.1241 0.89328Z" fill="#1C2435"/>
</svg>
