<svg width="72" height="54" viewBox="0 0 72 54" fill="none" xmlns="http://www.w3.org/2000/svg">
<path d="M6.94302 21.2622C10.514 23.3417 18.712 27.2144 21.3558 28.0382C23.519 28.7122 23.9143 28.5717 23.4429 27.5459C22.7706 25.7543 7.66693 18.9389 6.19583 19.711C5.46028 20.0971 5.73604 20.6225 6.94302 21.2622Z" fill="#383E4C"/>
<path d="M7.65686 46.616C9.57965 47.2151 19.7038 43.7775 23.8965 41.0407C26.5182 39.3966 26.8532 38.8857 25.8616 38.4009C24.4393 37.6062 18.5537 39.2881 11.3979 42.508C6.18863 44.8401 5.25338 45.8671 7.65686 46.616Z" fill="#383E4C"/>
<path d="M27.0868 14.4352C29.2325 18.2679 31.2773 21.0145 31.5873 20.5837C32.2073 19.7222 30.0458 15.0935 26.7378 10.1954C22.693 4.27679 22.9909 7.2701 27.0868 14.4352Z" fill="#383E4C"/>
<path d="M41.2811 10.0739C41.2777 17.9833 41.1976 17.9584 42.4585 17.2965C43.9296 16.5244 44.2076 7.73367 42.8943 5.74241C41.526 3.64606 41.2461 4.26203 41.2811 10.0739Z" fill="#383E4C"/>
<path d="M53.5383 24.57C55.5249 24.9008 64.3943 14.5532 65.663 10.511C66.6973 6.85504 64.2557 8.74529 58.8348 15.754C52.9588 23.4526 52.3795 24.3769 53.5383 24.57Z" fill="#383E4C"/>
</svg>
