<svg xmlns="http://www.w3.org/2000/svg" fill="none" viewBox="0 0 24 24" id="More-Vert--Streamline-Rounded-Material" height="24" width="24">
  <desc>
    More Vert Streamline Icon: https://streamlinehq.com
  </desc>
  <path fill="#000000" d="M11.9965 20c-0.331 0 -0.6132 -0.11785 -0.8465 -0.3535 -0.23335 -0.23565 -0.35 -0.519 -0.35 -0.85 0 -0.331 0.1178 -0.61315 0.3535 -0.8465 0.23565 -0.23335 0.519 -0.35 0.85 -0.35 0.331 0 0.61315 0.11785 0.8465 0.3535 0.2333 0.23565 0.35 0.519 0.35 0.85 0 0.331 -0.11785 0.61315 -0.3535 0.8465 -0.2357 0.23335 -0.519 0.35 -0.85 0.35Zm0 -6.8c-0.331 0 -0.6132 -0.11785 -0.8465 -0.3535 -0.23335 -0.23565 -0.35 -0.519 -0.35 -0.85 0 -0.331 0.1178 -0.61315 0.3535 -0.8465 0.23565 -0.23335 0.519 -0.35 0.85 -0.35 0.331 0 0.61315 0.11785 0.8465 0.3535 0.2333 0.23565 0.35 0.519 0.35 0.85 0 0.331 -0.11785 0.61315 -0.3535 0.8465 -0.2357 0.23335 -0.519 0.35 -0.85 0.35Zm0 -6.8c-0.331 0 -0.6132 -0.11785 -0.8465 -0.3535 -0.23335 -0.23565 -0.35 -0.519 -0.35 -0.85 0 -0.331 0.1178 -0.613165 0.3535 -0.8465 0.23565 -0.233335 0.519 -0.35 0.85 -0.35 0.331 0 0.61315 0.117835 0.8465 0.3535 0.2333 0.235665 0.35 0.519 0.35 0.85 0 0.331 -0.11785 0.61315 -0.3535 0.8465 -0.2357 0.23335 -0.519 0.35 -0.85 0.35Z" stroke-width="0.5"></path>
</svg>