<svg width="81" height="81" viewBox="0 0 81 81" fill="none" xmlns="http://www.w3.org/2000/svg">
<path d="M40.4997 0.414062C62.6401 0.414062 80.5859 18.3599 80.5859 40.5003C80.5859 62.6407 62.6401 80.5865 40.4997 80.5865C18.3593 80.5865 0.413521 62.6407 0.413521 40.5003C0.413521 18.3599 18.3593 0.414062 40.4997 0.414062ZM29.2756 54.4214C29.2758 54.9049 29.4039 55.3797 29.6471 55.7976C29.8902 56.2155 30.2397 56.5616 30.6599 56.8007C31.0801 57.0398 31.5561 57.1634 32.0396 57.159C32.5231 57.1545 32.9968 57.0221 33.4125 56.7753L56.8004 42.8541C57.2077 42.6113 57.5449 42.2668 57.7791 41.8545C58.0133 41.4422 58.1365 40.9761 58.1365 40.5019C58.1365 40.0277 58.0133 39.5616 57.7791 39.1493C57.5449 38.7369 57.2077 38.3925 56.8004 38.1496L33.4125 24.2285C32.9972 23.9807 32.5236 23.8475 32.04 23.8424C31.5564 23.8373 31.0801 23.9604 30.6597 24.1994C30.2392 24.4383 29.8896 24.7844 29.6464 25.2024C29.4033 25.6205 29.2753 26.0955 29.2756 26.5791V54.4214Z" fill="#1453FF"/>
</svg>
