<svg width="33" height="33" viewBox="0 0 33 33" fill="none" xmlns="http://www.w3.org/2000/svg">
<circle cx="16.5415" cy="15.9492" r="15.8539" fill="#1453FF"/>
<path opacity="0.4" d="M24.4898 14.2314V19.5213C24.4898 20.3875 24.0258 21.1918 23.2756 21.6327L18.6817 24.2853C17.9315 24.7184 17.0035 24.7184 16.2456 24.2853L11.6517 21.6327C10.9015 21.1996 10.4375 20.3952 10.4375 19.5213V14.2314C10.4375 13.3652 10.9015 12.5609 11.6517 12.1201L16.2456 9.4674C16.9957 9.03431 17.9238 9.03431 18.6817 9.4674L23.2756 12.1201C24.0258 12.5609 24.4898 13.3575 24.4898 14.2314Z" fill="#FBFCFD"/>
<path d="M17.466 16.8764C18.4612 16.8764 19.268 16.0696 19.268 15.0744C19.268 14.0792 18.4612 13.2725 17.466 13.2725C16.4708 13.2725 15.6641 14.0792 15.6641 15.0744C15.6641 16.0696 16.4708 16.8764 17.466 16.8764Z" fill="#FBFCFD"/>
<path d="M19.5395 20.4802C20.166 20.4802 20.5295 19.7842 20.1814 19.266C19.6555 18.4849 18.6347 17.959 17.4669 17.959C16.2991 17.959 15.2782 18.4849 14.7523 19.266C14.4043 19.7842 14.7678 20.4802 15.3942 20.4802H19.5395Z" fill="#FBFCFD"/>
</svg>
