<svg version="1.1" id="Layer_1" xmlns="http://www.w3.org/2000/svg" xmlns:xlink="http://www.w3.org/1999/xlink" x="0px" y="0px"
	 width="100%" viewBox="0 0 558 200" enable-background="new 0 0 558 200" xml:space="preserve">
<path fill="#FFFFFF" opacity="1.000000" stroke="none" 
	d="
M559.000000,137.000000 
	C559.000000,158.313339 559.000000,179.626678 559.000000,201.000000 
	C424.979126,201.000000 290.958221,201.000000 156.650635,200.621613 
	C158.680817,200.116394 161.080765,200.338074 163.301743,199.808823 
	C185.424896,194.537003 199.483429,177.464951 199.766205,156.054855 
	C200.271149,117.824615 199.482468,79.573257 198.933762,41.335049 
	C198.699677,25.021385 183.875763,7.757987 168.001007,3.941949 
	C163.996338,2.979293 160.000107,1.981595 156.000000,1.000000 
	C290.333344,1.000000 424.666687,1.000000 559.000000,1.000000 
	C559.000000,21.434309 559.000000,41.748497 558.534180,62.530724 
	C554.130798,62.998764 550.193237,62.998764 546.289551,62.998764 
	C546.289551,87.961205 546.289551,112.354179 546.289551,137.000000 
	C550.718140,137.000000 554.859070,137.000000 559.000000,137.000000 
M283.000000,87.534149 
	C283.582184,75.183090 276.266876,67.079170 267.169434,65.468018 
	C255.458786,63.394058 243.264343,64.051903 231.309555,63.534435 
	C231.309555,88.660049 231.309555,112.721054 231.309555,136.670532 
	C235.693588,136.670532 239.758530,136.670532 244.256134,136.670532 
	C244.256134,128.272537 244.256134,120.199730 244.256134,112.000671 
	C249.687943,112.000671 254.679855,111.894394 259.665863,112.021095 
	C273.238556,112.366013 283.784943,101.930000 283.000000,87.534149 
M518.011475,86.033279 
	C512.706482,86.692329 507.273285,86.842583 502.128937,88.139069 
	C495.679077,89.764565 491.604614,96.909958 492.453552,103.999916 
	C494.041351,103.999916 495.676392,103.999916 497.311432,103.999916 
	C499.121307,103.999916 500.931183,103.999916 502.684265,103.999916 
	C503.504944,98.773201 508.166046,95.311752 513.770569,96.071938 
	C519.652954,96.869804 522.537781,98.854271 522.599548,105.999496 
	C520.118408,105.999496 517.570068,105.632179 515.169434,106.071823 
	C509.178406,107.169037 503.050476,108.063278 497.358429,110.102402 
	C491.077118,112.352623 489.639709,119.535248 490.140228,123.842514 
	C490.963379,130.926453 495.446991,135.437485 501.295868,137.065506 
	C509.409760,139.323990 516.471619,137.430527 523.174194,131.915802 
	C523.699158,133.965714 524.076965,135.440704 524.382874,136.635376 
	C528.096863,136.635376 531.492493,136.635376 534.832825,136.635376 
	C534.913818,135.943909 534.984985,135.617935 534.985291,135.291901 
	C534.994568,125.974754 534.998352,116.657600 534.999573,107.340454 
	C535.001282,94.637169 530.971375,89.399864 518.011475,86.033279 
M416.318573,137.000793 
	C425.320129,134.940872 431.890381,130.037613 434.576202,120.903183 
	C437.763000,110.065063 436.350342,99.734718 427.548126,92.362488 
	C419.417633,85.552826 408.392181,83.202904 397.024109,89.069794 
	C386.260773,94.624611 383.081207,103.917412 383.821167,115.796005 
	C384.789703,131.344666 402.819092,141.222961 416.318573,137.000793 
M326.991425,101.723396 
	C326.648071,103.460098 326.429565,105.232750 325.941498,106.927780 
	C322.235992,119.796608 331.712006,135.072525 345.704498,137.247696 
	C355.741669,138.807968 364.202942,136.852386 370.906036,129.796982 
	C378.647491,121.648666 379.702240,111.509399 375.595764,101.305389 
	C371.673523,91.559074 363.526825,86.570976 353.320038,86.140312 
	C341.830444,85.655533 332.381226,89.931549 326.991425,101.723396 
M487.486176,91.007072 
	C487.843018,90.063400 488.199860,89.119736 488.623077,88.000565 
	C485.556702,88.000565 482.880493,88.150093 480.227936,87.963310 
	C476.789886,87.721207 474.954285,88.360458 473.635864,92.364464 
	C470.475983,101.961082 466.262695,111.210854 462.529236,120.465027 
	C458.583130,109.766037 454.596558,98.957405 450.656616,88.275162 
	C446.022278,88.275162 441.614319,88.275162 436.598083,88.275162 
	C441.838654,101.065857 447.042206,113.350014 451.909088,125.766144 
	C456.458313,137.371887 456.301117,137.434128 468.065979,136.936218 
	C468.224365,136.929504 468.378693,136.826492 468.522858,136.763474 
	C474.697815,121.733513 480.872803,106.703545 487.486176,91.007072 
M316.609558,87.000412 
	C312.388611,88.131607 308.167664,89.262802 303.710785,90.457222 
	C303.653717,90.353867 302.978058,89.129623 302.514862,88.290359 
	C298.432129,88.290359 294.837830,88.290359 291.264465,88.290359 
	C291.264465,104.627792 291.264465,120.673965 291.264465,136.720367 
	C295.598816,136.720367 299.661652,136.720367 304.000214,136.720367 
	C304.000214,128.485870 303.947021,120.528763 304.016113,112.572716 
	C304.077423,105.513428 306.764771,101.900116 313.679535,99.869064 
	C316.260834,99.110870 319.022644,98.967255 321.721893,98.540283 
	C321.721893,94.733009 321.721893,90.998680 321.721893,87.000427 
	C320.141815,87.000427 318.837494,87.000427 316.609558,87.000412 
z"/>
<path fill="#1553FF" opacity="1.000000" stroke="none" 
	d="
M155.531342,1.000000 
	C160.000107,1.981595 163.996338,2.979293 168.001007,3.941949 
	C183.875763,7.757987 198.699677,25.021385 198.933762,41.335049 
	C199.482468,79.573257 200.271149,117.824615 199.766205,156.054855 
	C199.483429,177.464951 185.424896,194.537003 163.301743,199.808823 
	C161.080765,200.338074 158.680817,200.116394 156.181976,200.621613 
	C118.979103,201.000000 81.958214,201.000000 44.290043,200.621078 
	C30.258469,199.508438 18.895857,194.476715 11.082980,183.390701 
	C7.081035,177.712173 4.321197,171.158279 0.999999,165.000000 
	C1.000000,122.645775 1.000000,80.291542 1.353507,37.327053 
	C6.273818,20.616049 15.686384,8.982674 32.140587,3.966935 
	C36.033463,2.780269 40.043732,1.978710 44.000000,1.000000 
	C81.020897,1.000000 118.041786,1.000000 155.531342,1.000000 
M56.666798,55.213280 
	C50.841576,62.634323 47.309834,71.094849 47.203953,80.473679 
	C46.931400,104.615967 47.004902,128.764526 47.253784,152.907349 
	C47.284977,155.933121 49.202744,158.939438 50.246387,161.954773 
	C52.958504,160.062317 56.691963,158.767136 58.207779,156.175095 
	C65.159050,144.288513 71.525002,132.057846 78.013771,119.904076 
	C79.302521,117.490196 80.208344,114.871887 81.732552,111.317596 
	C75.884300,112.740463 71.151421,113.891960 66.045273,115.134270 
	C64.493370,109.101830 63.032028,103.421448 61.516232,97.529396 
	C76.900215,93.238022 91.598450,89.137932 106.721649,84.919304 
	C110.975151,100.054062 115.178154,115.009125 119.480598,130.318039 
	C113.241058,132.053406 107.571503,133.630234 101.745064,135.250717 
	C100.164032,130.075836 98.749481,125.445877 96.942963,119.532982 
	C92.443253,127.307793 88.659897,133.844864 84.743340,140.612076 
	C93.914932,140.612076 102.392906,140.900955 110.845024,140.556091 
	C133.201187,139.643921 149.059494,127.011040 152.427048,106.237480 
	C153.925156,96.996063 153.678772,87.273804 152.840286,77.893501 
	C151.170944,59.218418 136.929947,43.530727 118.515533,40.685028 
	C108.742012,39.174667 98.591599,39.944416 88.611938,39.966469 
	C75.905724,39.994545 65.398788,44.999065 56.666798,55.213280 
z"/>
<path fill="#373435" opacity="1.000000" stroke="none" 
	d="
M559.000000,136.531342 
	C554.859070,137.000000 550.718140,137.000000 546.289551,137.000000 
	C546.289551,112.354179 546.289551,87.961205 546.289551,62.998764 
	C550.193237,62.998764 554.130798,62.998764 558.534180,62.999382 
	C559.000000,87.354225 559.000000,111.708458 559.000000,136.531342 
z"/>
<path fill="#FFFFFF" opacity="1.000000" stroke="none" 
	d="
M0.999999,165.468658 
	C4.321197,171.158279 7.081035,177.712173 11.082980,183.390701 
	C18.895857,194.476715 30.258469,199.508438 43.821384,200.621078 
	C29.746515,201.000000 15.493032,201.000000 1.000000,201.000000 
	C1.000000,189.313522 1.000000,177.625427 0.999999,165.468658 
z"/>
<path fill="#FFFFFF" opacity="1.000000" stroke="none" 
	d="
M43.531342,1.000000 
	C40.043732,1.978710 36.033463,2.780269 32.140587,3.966935 
	C15.686384,8.982674 6.273818,20.616049 1.353507,36.858395 
	C1.000000,25.066851 1.000000,13.133701 1.000000,1.000000 
	C15.020257,1.000000 29.041470,1.000000 43.531342,1.000000 
z"/>
<path fill="#373435" opacity="1.000000" stroke="none" 
	d="
M283.000000,87.998154 
	C283.784943,101.930000 273.238556,112.366013 259.665863,112.021095 
	C254.679855,111.894394 249.687943,112.000671 244.256134,112.000671 
	C244.256134,120.199730 244.256134,128.272537 244.256134,136.670532 
	C239.758530,136.670532 235.693588,136.670532 231.309555,136.670532 
	C231.309555,112.721054 231.309555,88.660049 231.309555,63.534435 
	C243.264343,64.051903 255.458786,63.394058 267.169434,65.468018 
	C276.266876,67.079170 283.582184,75.183090 283.000000,87.998154 
M248.615295,99.999367 
	C251.944931,99.999107 255.281311,100.133469 258.602600,99.966782 
	C263.491028,99.721451 268.447754,95.438965 268.993378,91.222305 
	C269.992371,83.502228 267.822021,78.523277 261.609802,77.170128 
	C255.973572,75.942451 250.038284,76.087769 244.000916,75.609222 
	C244.000916,83.304649 244.161224,89.955116 243.928864,96.591835 
	C243.823013,99.615440 245.008301,100.394989 248.615295,99.999367 
z"/>
<path fill="#373435" opacity="1.000000" stroke="none" 
	d="
M518.427246,86.184692 
	C530.971375,89.399864 535.001282,94.637169 534.999573,107.340454 
	C534.998352,116.657600 534.994568,125.974754 534.985291,135.291901 
	C534.984985,135.617935 534.913818,135.943909 534.832825,136.635376 
	C531.492493,136.635376 528.096863,136.635376 524.382874,136.635376 
	C524.076965,135.440704 523.699158,133.965714 523.174194,131.915802 
	C516.471619,137.430527 509.409760,139.323990 501.295868,137.065506 
	C495.446991,135.437485 490.963379,130.926453 490.140228,123.842514 
	C489.639709,119.535248 491.077118,112.352623 497.358429,110.102402 
	C503.050476,108.063278 509.178406,107.169037 515.169434,106.071823 
	C517.570068,105.632179 520.118408,105.999496 522.599548,105.999496 
	C522.537781,98.854271 519.652954,96.869804 513.770569,96.071938 
	C508.166046,95.311752 503.504944,98.773201 502.684265,103.999916 
	C500.931183,103.999916 499.121307,103.999916 497.311432,103.999916 
	C495.676392,103.999916 494.041351,103.999916 492.453552,103.999916 
	C491.604614,96.909958 495.679077,89.764565 502.128937,88.139069 
	C507.273285,86.842583 512.706482,86.692329 518.427246,86.184692 
M515.709473,114.999939 
	C512.758484,115.676117 509.557953,115.864410 506.944672,117.200943 
	C505.218262,118.083908 503.385315,120.600365 503.354675,122.415108 
	C503.326660,124.074371 505.573792,127.112160 506.963501,127.198257 
	C510.783112,127.434898 515.176880,127.383942 518.409546,125.677498 
	C521.886169,123.842224 523.630249,119.746078 522.773499,115.000053 
	C520.556580,115.000053 518.589722,115.000053 515.709473,114.999939 
z"/>
<path fill="#373435" opacity="1.000000" stroke="none" 
	d="
M415.886871,137.004776 
	C402.819092,141.222961 384.789703,131.344666 383.821167,115.796005 
	C383.081207,103.917412 386.260773,94.624611 397.024109,89.069794 
	C408.392181,83.202904 419.417633,85.552826 427.548126,92.362488 
	C436.350342,99.734718 437.763000,110.065063 434.576202,120.903183 
	C431.890381,130.037613 425.320129,134.940872 415.886871,137.004776 
M410.414185,98.000984 
	C400.278320,97.098251 395.949707,105.096497 396.230774,112.089867 
	C396.568970,120.504890 400.804016,126.761002 411.123993,126.028473 
	C417.718414,125.560387 422.926331,120.029922 422.999817,113.071236 
	C423.095062,104.053436 418.762634,98.482330 410.414185,98.000984 
z"/>
<path fill="#373435" opacity="1.000000" stroke="none" 
	d="
M327.004456,101.317116 
	C332.381226,89.931549 341.830444,85.655533 353.320038,86.140312 
	C363.526825,86.570976 371.673523,91.559074 375.595764,101.305389 
	C379.702240,111.509399 378.647491,121.648666 370.906036,129.796982 
	C364.202942,136.852386 355.741669,138.807968 345.704498,137.247696 
	C331.712006,135.072525 322.235992,119.796608 325.941498,106.927780 
	C326.429565,105.232750 326.648071,103.460098 327.004456,101.317116 
M352.333191,98.000862 
	C343.571472,98.027313 338.324432,102.785728 338.000397,110.998764 
	C337.678741,119.152290 342.511017,125.396568 349.435791,126.018692 
	C358.746033,126.855141 363.650757,121.712357 364.901337,114.108986 
	C366.123383,106.679047 361.502502,98.752296 352.333191,98.000862 
z"/>
<path fill="#373435" opacity="1.000000" stroke="none" 
	d="
M487.266968,91.340332 
	C480.872803,106.703545 474.697815,121.733513 468.528870,136.765961 
	C468.378693,136.826492 468.224365,136.929504 468.065979,136.936218 
	C456.301117,137.434128 456.458313,137.371887 451.909088,125.766144 
	C447.042206,113.350014 441.838654,101.065857 436.598083,88.275162 
	C441.614319,88.275162 446.022278,88.275162 450.656616,88.275162 
	C454.596558,98.957405 458.583130,109.766037 462.529236,120.465027 
	C466.262695,111.210854 470.475983,101.961082 473.635864,92.364464 
	C474.954285,88.360458 476.789886,87.721207 480.227936,87.963310 
	C482.880493,88.150093 485.556702,88.000565 488.623077,88.000565 
	C488.199860,89.119736 487.843018,90.063400 487.266968,91.340332 
z"/>
<path fill="#373435" opacity="1.000000" stroke="none" 
	d="
M317.071350,87.000420 
	C318.837494,87.000427 320.141815,87.000427 321.721893,87.000427 
	C321.721893,90.998680 321.721893,94.733009 321.721893,98.540283 
	C319.022644,98.967255 316.260834,99.110870 313.679535,99.869064 
	C306.764771,101.900116 304.077423,105.513428 304.016113,112.572716 
	C303.947021,120.528763 304.000214,128.485870 304.000214,136.720367 
	C299.661652,136.720367 295.598816,136.720367 291.264465,136.720367 
	C291.264465,120.673965 291.264465,104.627792 291.264465,88.290359 
	C294.837830,88.290359 298.432129,88.290359 302.514862,88.290359 
	C302.978058,89.129623 303.653717,90.353867 303.710785,90.457222 
	C308.167664,89.262802 312.388611,88.131607 317.071350,87.000420 
z"/>
<path fill="#FCFDFE" opacity="1.000000" stroke="none" 
	d="
M56.903084,54.945114 
	C65.398788,44.999065 75.905724,39.994545 88.611938,39.966469 
	C98.591599,39.944416 108.742012,39.174667 118.515533,40.685028 
	C136.929947,43.530727 151.170944,59.218418 152.840286,77.893501 
	C153.678772,87.273804 153.925156,96.996063 152.427048,106.237480 
	C149.059494,127.011040 133.201187,139.643921 110.845024,140.556091 
	C102.392906,140.900955 93.914932,140.612076 84.743340,140.612076 
	C88.659897,133.844864 92.443253,127.307793 96.942963,119.532982 
	C98.749481,125.445877 100.164032,130.075836 101.745064,135.250717 
	C107.571503,133.630234 113.241058,132.053406 119.480598,130.318039 
	C115.178154,115.009125 110.975151,100.054062 106.721649,84.919304 
	C91.598450,89.137932 76.900215,93.238022 61.516232,97.529396 
	C63.032028,103.421448 64.493370,109.101830 66.045273,115.134270 
	C71.151421,113.891960 75.884300,112.740463 81.732552,111.317596 
	C80.208344,114.871887 79.302521,117.490196 78.013771,119.904076 
	C71.525002,132.057846 65.159050,144.288513 58.207779,156.175095 
	C56.691963,158.767136 52.958504,160.062317 50.246387,161.954773 
	C49.202744,158.939438 47.284977,155.933121 47.253784,152.907349 
	C47.004902,128.764526 46.931400,104.615967 47.203953,80.473679 
	C47.309834,71.094849 50.841576,62.634323 56.903084,54.945114 
z"/>
<path fill="#FFFFFF" opacity="1.000000" stroke="none" 
	d="
M248.134033,99.999329 
	C245.008301,100.394989 243.823013,99.615440 243.928864,96.591835 
	C244.161224,89.955116 244.000916,83.304649 244.000916,75.609222 
	C250.038284,76.087769 255.973572,75.942451 261.609802,77.170128 
	C267.822021,78.523277 269.992371,83.502228 268.993378,91.222305 
	C268.447754,95.438965 263.491028,99.721451 258.602600,99.966782 
	C255.281311,100.133469 251.944931,99.999107 248.134033,99.999329 
z"/>
<path fill="#FFFFFF" opacity="1.000000" stroke="none" 
	d="
M516.166138,115.000000 
	C518.589722,115.000053 520.556580,115.000053 522.773499,115.000053 
	C523.630249,119.746078 521.886169,123.842224 518.409546,125.677498 
	C515.176880,127.383942 510.783112,127.434898 506.963501,127.198257 
	C505.573792,127.112160 503.326660,124.074371 503.354675,122.415108 
	C503.385315,120.600365 505.218262,118.083908 506.944672,117.200943 
	C509.557953,115.864410 512.758484,115.676117 516.166138,115.000000 
z"/>
<path fill="#FFFFFF" opacity="1.000000" stroke="none" 
	d="
M410.847168,98.000893 
	C418.762634,98.482330 423.095062,104.053436 422.999817,113.071236 
	C422.926331,120.029922 417.718414,125.560387 411.123993,126.028473 
	C400.804016,126.761002 396.568970,120.504890 396.230774,112.089867 
	C395.949707,105.096497 400.278320,97.098251 410.847168,98.000893 
z"/>
<path fill="#FFFFFF" opacity="1.000000" stroke="none" 
	d="
M352.762695,98.000870 
	C361.502502,98.752296 366.123383,106.679047 364.901337,114.108986 
	C363.650757,121.712357 358.746033,126.855141 349.435791,126.018692 
	C342.511017,125.396568 337.678741,119.152290 338.000397,110.998764 
	C338.324432,102.785728 343.571472,98.027313 352.762695,98.000870 
z"/>
</svg>