<svg width="25" height="24" viewBox="0 0 25 24" fill="none" xmlns="http://www.w3.org/2000/svg">
<g clip-path="url(#clip0_8560_5227)">
<path d="M3.5 0C2.70435 0 1.94129 0.316071 1.37868 0.87868C0.816071 1.44129 0.5 2.20435 0.5 3L0.5 21C0.5 21.7956 0.816071 22.5587 1.37868 23.1213C1.94129 23.6839 2.70435 24 3.5 24H21.5C22.2956 24 23.0587 23.6839 23.6213 23.1213C24.1839 22.5587 24.5 21.7956 24.5 21V3C24.5 2.20435 24.1839 1.44129 23.6213 0.87868C23.0587 0.316071 22.2956 0 21.5 0L3.5 0ZM12.839 8.0775C11.963 8.0775 11.4335 8.3235 11.4335 8.967C11.4335 9.669 12.344 9.978 13.4735 10.362C15.3155 10.9845 17.7395 11.8065 17.75 14.8515C17.75 17.802 15.386 19.5 11.945 19.5C10.3927 19.4935 8.85761 19.1741 7.4315 18.561V14.637C8.8205 15.396 10.574 15.957 11.9465 15.957C12.872 15.957 13.5335 15.7095 13.5335 14.9505C13.5335 14.1735 12.5465 13.818 11.354 13.389C9.539 12.735 7.25 11.91 7.25 9.165C7.25 6.2475 9.482 4.5 12.839 4.5C14.2419 4.48745 15.6341 4.74461 16.94 5.2575V9.132C15.683 8.457 14.096 8.0775 12.839 8.0775Z" fill="white"/>
</g>
<defs>
<clipPath id="clip0_8560_5227">
<rect width="24" height="24" fill="white" transform="translate(0.5)"/>
</clipPath>
</defs>
</svg>
