<svg width="1319" height="535" viewBox="0 0 1319 535" fill="none" xmlns="http://www.w3.org/2000/svg">
<rect opacity="0.5" y="282.645" width="1317.86" height="1.09547" fill="white" fill-opacity="0.15"/>
<rect opacity="0.5" y="342.897" width="1317.86" height="1.09547" fill="white" fill-opacity="0.15"/>
<rect opacity="0.5" y="403.147" width="1317.86" height="1.09547" fill="white" fill-opacity="0.15"/>
<rect opacity="0.5" y="463.397" width="1317.86" height="1.09547" fill="white" fill-opacity="0.15"/>
<rect opacity="0.5" x="37.2461" y="534.604" width="534.591" height="1.09547" transform="rotate(-90 37.2461 534.604)" fill="white" fill-opacity="0.15"/>
<rect opacity="0.5" x="98.5938" y="534.604" width="534.591" height="1.09547" transform="rotate(-90 98.5938 534.604)" fill="white" fill-opacity="0.15"/>
<rect opacity="0.5" x="159.938" y="534.604" width="534.591" height="1.09547" transform="rotate(-90 159.938 534.604)" fill="white" fill-opacity="0.15"/>
<rect opacity="0.5" x="221.285" y="534.604" width="534.591" height="1.09547" transform="rotate(-90 221.285 534.604)" fill="white" fill-opacity="0.15"/>
<rect opacity="0.5" x="282.633" y="534.604" width="534.591" height="1.09547" transform="rotate(-90 282.633 534.604)" fill="white" fill-opacity="0.15"/>
<rect opacity="0.5" x="343.98" y="534.604" width="534.591" height="1.09547" transform="rotate(-90 343.98 534.604)" fill="white" fill-opacity="0.15"/>
<rect opacity="0.5" x="405.324" y="534.604" width="534.591" height="1.09547" transform="rotate(-90 405.324 534.604)" fill="white" fill-opacity="0.15"/>
<rect opacity="0.5" x="466.672" y="534.604" width="534.591" height="1.09547" transform="rotate(-90 466.672 534.604)" fill="white" fill-opacity="0.15"/>
<rect opacity="0.5" x="528.02" y="534.604" width="534.591" height="1.09547" transform="rotate(-90 528.02 534.604)" fill="white" fill-opacity="0.15"/>
<rect opacity="0.5" x="589.363" y="534.604" width="534.591" height="1.09547" transform="rotate(-90 589.363 534.604)" fill="white" fill-opacity="0.15"/>
<rect opacity="0.5" x="650.711" y="534.604" width="534.591" height="1.09547" transform="rotate(-90 650.711 534.604)" fill="white" fill-opacity="0.15"/>
<rect opacity="0.5" x="712.059" y="534.604" width="534.591" height="1.09547" transform="rotate(-90 712.059 534.604)" fill="white" fill-opacity="0.15"/>
<rect opacity="0.5" x="773.402" y="534.604" width="534.591" height="1.09547" transform="rotate(-90 773.402 534.604)" fill="white" fill-opacity="0.15"/>
<rect opacity="0.5" x="834.75" y="534.604" width="534.591" height="1.09547" transform="rotate(-90 834.75 534.604)" fill="white" fill-opacity="0.15"/>
<rect opacity="0.5" x="896.098" y="534.604" width="534.591" height="1.09547" transform="rotate(-90 896.098 534.604)" fill="white" fill-opacity="0.15"/>
<rect opacity="0.5" x="957.445" y="534.604" width="534.591" height="1.09547" transform="rotate(-90 957.445 534.604)" fill="white" fill-opacity="0.15"/>
<rect opacity="0.5" x="1018.79" y="534.604" width="534.591" height="1.09547" transform="rotate(-90 1018.79 534.604)" fill="white" fill-opacity="0.15"/>
<rect opacity="0.5" x="1080.14" y="534.604" width="534.591" height="1.09547" transform="rotate(-90 1080.14 534.604)" fill="white" fill-opacity="0.15"/>
<rect opacity="0.5" x="1141.48" y="534.604" width="534.591" height="1.09547" transform="rotate(-90 1141.48 534.604)" fill="white" fill-opacity="0.15"/>
<rect opacity="0.5" x="1202.83" y="534.604" width="534.591" height="1.09547" transform="rotate(-90 1202.83 534.604)" fill="white" fill-opacity="0.15"/>
<rect opacity="0.5" x="1264.18" y="534.604" width="534.591" height="1.09547" transform="rotate(-90 1264.18 534.604)" fill="white" fill-opacity="0.15"/>
<rect opacity="0.5" x="1.09766" y="519.268" width="1317.86" height="1.09547" fill="white" fill-opacity="0.15"/>
<rect opacity="0.5" y="222.393" width="1317.86" height="1.09547" fill="white" fill-opacity="0.15"/>
<rect opacity="0.5" y="162.143" width="1317.86" height="1.09547" fill="white" fill-opacity="0.15"/>
<rect opacity="0.5" y="101.891" width="1317.86" height="1.09547" fill="white" fill-opacity="0.15"/>
<rect opacity="0.5" y="41.6411" width="1317.86" height="1.09547" fill="white" fill-opacity="0.15"/>
</svg>
