<svg width="25" height="24" viewBox="0 0 25 24" fill="none" xmlns="http://www.w3.org/2000/svg">
<mask id="path-1-inside-1_399_9348" fill="white">
<path d="M13.8629 9.96857L21.0958 1.5H19.3815L13.1029 8.85286L8.08576 1.5H2.30005L9.88576 12.62L2.30005 21.5H4.01433L10.6458 13.7343L15.9443 21.5H21.73L13.8629 9.96857ZM11.5158 12.7171L10.7472 11.61L4.63148 2.8H7.26433L12.1986 9.91L12.9672 11.0171L19.3829 20.26H16.75L11.5158 12.7171Z"/>
</mask>
<path d="M13.8629 9.96857L12.3421 8.66967L11.349 9.83249L12.2108 11.0957L13.8629 9.96857ZM21.0958 1.5L22.6166 2.7989L25.4341 -0.5H21.0958V1.5ZM19.3815 1.5V-0.5H18.4593L17.8605 0.201267L19.3815 1.5ZM13.1029 8.85286L11.4509 9.98012L12.9252 12.1409L14.6239 10.1516L13.1029 8.85286ZM8.08576 1.5L9.73782 0.372739L9.14231 -0.5H8.08576V1.5ZM2.30005 1.5V-0.5H-1.48532L0.647864 2.62707L2.30005 1.5ZM9.88576 12.62L11.4065 13.919L12.3998 12.7563L11.5379 11.4929L9.88576 12.62ZM2.30005 21.5L0.779362 20.201L-2.03884 23.5H2.30005V21.5ZM4.01433 21.5V23.5H4.93645L5.53525 22.7988L4.01433 21.5ZM10.6458 13.7343L12.2978 12.6071L10.8235 10.4463L9.12484 12.4355L10.6458 13.7343ZM15.9443 21.5L14.2923 22.6272L14.8878 23.5H15.9443V21.5ZM21.73 21.5V23.5H25.5156L23.3822 20.3729L21.73 21.5ZM11.5158 12.7171L13.1589 11.5769L13.1587 11.5766L11.5158 12.7171ZM10.7472 11.61L9.10425 12.7505L9.10426 12.7505L10.7472 11.61ZM4.63148 2.8V0.8H0.808467L2.98853 3.9405L4.63148 2.8ZM7.26433 2.8L8.90742 1.65971L8.31079 0.8H7.26433V2.8ZM12.1986 9.91L10.5555 11.0503L10.5557 11.0505L12.1986 9.91ZM12.9672 11.0171L14.6102 9.8767L14.6101 9.87663L12.9672 11.0171ZM19.3829 20.26V22.26H23.2058L21.0259 19.1196L19.3829 20.26ZM16.75 20.26L15.1069 21.4002L15.7035 22.26H16.75V20.26ZM15.3837 11.2675L22.6166 2.7989L19.575 0.201102L12.3421 8.66967L15.3837 11.2675ZM21.0958 -0.5H19.3815V3.5H21.0958V-0.5ZM17.8605 0.201267L11.582 7.55412L14.6239 10.1516L20.9024 2.79873L17.8605 0.201267ZM14.755 7.7256L9.73782 0.372739L6.43371 2.62726L11.4509 9.98012L14.755 7.7256ZM8.08576 -0.5H2.30005V3.5H8.08576V-0.5ZM0.647864 2.62707L8.23358 13.7471L11.5379 11.4929L3.95223 0.372931L0.647864 2.62707ZM8.36508 11.321L0.779362 20.201L3.82074 22.799L11.4065 13.919L8.36508 11.321ZM2.30005 23.5H4.01433V19.5H2.30005V23.5ZM5.53525 22.7988L12.1667 15.0331L9.12484 12.4355L2.49341 20.2012L5.53525 22.7988ZM8.99368 14.8615L14.2923 22.6272L17.5964 20.3728L12.2978 12.6071L8.99368 14.8615ZM15.9443 23.5H21.73V19.5H15.9443V23.5ZM23.3822 20.3729L15.515 8.84143L12.2108 11.0957L20.0779 22.6271L23.3822 20.3729ZM13.1587 11.5766L12.3901 10.4695L9.10426 12.7505L9.87283 13.8577L13.1587 11.5766ZM12.3901 10.4695L6.27442 1.6595L2.98853 3.9405L9.10425 12.7505L12.3901 10.4695ZM4.63148 4.8H7.26433V0.8H4.63148V4.8ZM5.62125 3.94029L10.5555 11.0503L13.8417 8.76971L8.90742 1.65971L5.62125 3.94029ZM10.5557 11.0505L11.3243 12.1577L14.6101 9.87663L13.8416 8.76949L10.5557 11.0505ZM11.3242 12.1576L17.7399 21.4004L21.0259 19.1196L14.6102 9.8767L11.3242 12.1576ZM19.3829 18.26H16.75V22.26H19.3829V18.26ZM18.3932 19.1198L13.1589 11.5769L9.87263 13.8574L15.1069 21.4002L18.3932 19.1198Z" fill="black" mask="url(#path-1-inside-1_399_9348)"/>
</svg>
