<svg width="36" height="36" viewBox="0 0 36 36" fill="none" xmlns="http://www.w3.org/2000/svg">
<g filter="url(#filter0_d_121_18639)">
<rect x="4.58581" y="4.20153" width="26.4948" height="26.4948" rx="3.02294" stroke="#EAEAEA" stroke-width="0.403059" shape-rendering="crispEdges"/>
<path d="M21.3334 14.6252C21.2984 14.6194 21.2575 14.6194 21.2225 14.6252C20.4175 14.5961 19.7759 13.9369 19.7759 13.1202C19.7759 12.2861 20.4467 11.6152 21.2809 11.6152C22.115 11.6152 22.7859 12.2919 22.7859 13.1202C22.78 13.9369 22.1384 14.5961 21.3334 14.6252Z" stroke="#1BB718" stroke-width="0.875" stroke-linecap="round" stroke-linejoin="round"/>
<path d="M20.7328 18.872C21.532 19.0062 22.4128 18.8662 23.0312 18.452C23.8537 17.9037 23.8537 17.0053 23.0312 16.457C22.407 16.0428 21.5145 15.9028 20.7153 16.0428" stroke="#1BB718" stroke-width="0.875" stroke-linecap="round" stroke-linejoin="round"/>
<path d="M14.3163 14.6252C14.3513 14.6194 14.3921 14.6194 14.4271 14.6252C15.2321 14.5961 15.8738 13.9369 15.8738 13.1202C15.8738 12.2861 15.2029 11.6152 14.3688 11.6152C13.5346 11.6152 12.8638 12.2919 12.8638 13.1202C12.8696 13.9369 13.5113 14.5961 14.3163 14.6252Z" stroke="#1BB718" stroke-width="0.875" stroke-linecap="round" stroke-linejoin="round"/>
<path d="M14.9172 18.872C14.118 19.0062 13.2372 18.8662 12.6188 18.452C11.7963 17.9037 11.7963 17.0053 12.6188 16.457C13.243 16.0428 14.1355 15.9028 14.9347 16.0428" stroke="#1BB718" stroke-width="0.875" stroke-linecap="round" stroke-linejoin="round"/>
<path d="M17.8329 18.9836C17.7979 18.9778 17.7571 18.9778 17.7221 18.9836C16.9171 18.9545 16.2754 18.2953 16.2754 17.4786C16.2754 16.6445 16.9462 15.9736 17.7804 15.9736C18.6146 15.9736 19.2854 16.6503 19.2854 17.4786C19.2796 18.2953 18.6379 18.9603 17.8329 18.9836Z" stroke="#1BB718" stroke-width="0.875" stroke-linecap="round" stroke-linejoin="round"/>
<path d="M19.5304 20.8221C18.6029 20.2038 17.0688 20.2038 16.1354 20.8221C15.3129 21.3705 15.3129 22.2688 16.1354 22.8171C17.0688 23.4413 18.5971 23.4413 19.5304 22.8171" stroke="#1BB718" stroke-width="0.875" stroke-linecap="round" stroke-linejoin="round"/>
</g>
<defs>
<filter id="filter0_d_121_18639" x="0.35369" y="0.372472" width="34.9591" height="34.9586" filterUnits="userSpaceOnUse" color-interpolation-filters="sRGB">
<feFlood flood-opacity="0" result="BackgroundImageFix"/>
<feColorMatrix in="SourceAlpha" type="matrix" values="0 0 0 0 0 0 0 0 0 0 0 0 0 0 0 0 0 0 127 0" result="hardAlpha"/>
<feOffset dy="0.403059"/>
<feGaussianBlur stdDeviation="2.01529"/>
<feComposite in2="hardAlpha" operator="out"/>
<feColorMatrix type="matrix" values="0 0 0 0 0 0 0 0 0 0 0 0 0 0 0 0 0 0 0.08 0"/>
<feBlend mode="normal" in2="BackgroundImageFix" result="effect1_dropShadow_121_18639"/>
<feBlend mode="normal" in="SourceGraphic" in2="effect1_dropShadow_121_18639" result="shape"/>
</filter>
</defs>
</svg>
