<svg width="16" height="16" viewBox="0 0 16 16" fill="none" xmlns="http://www.w3.org/2000/svg">
<rect width="16" height="16" rx="0.8" fill="#1BB718"/>
<g clip-path="url(#clip0_2060_49031)">
<path d="M8.668 7.41441C8.63631 7.4142 8.60582 7.42652 8.58319 7.44871C8.56056 7.47089 8.54762 7.50112 8.5472 7.53281V8.41761C8.54762 8.44937 8.56062 8.47966 8.58333 8.50185C8.60605 8.52405 8.63664 8.53633 8.6684 8.53601H11.3336C11.3654 8.53633 11.3959 8.52405 11.4187 8.50185C11.4414 8.47966 11.4544 8.44937 11.4548 8.41761V7.53281C11.4544 7.50105 11.4414 7.47076 11.4187 7.44856C11.3959 7.42637 11.3654 7.41409 11.3336 7.41441H8.668ZM10.3024 4.60001C10.6712 4.61761 10.9364 4.69041 11.1044 4.84481C11.2704 4.99761 11.3556 5.21881 11.3724 5.51161V6.35041C11.3716 6.42184 11.3424 6.49002 11.2913 6.53997C11.2402 6.58992 11.1714 6.61756 11.1 6.61681C11.0646 6.61723 11.0295 6.61068 10.9966 6.59752C10.9637 6.58436 10.9338 6.56485 10.9084 6.54011C10.8831 6.51538 10.8629 6.48589 10.8489 6.45334C10.835 6.42079 10.8276 6.38581 10.8272 6.35041L10.8276 5.52681C10.8188 5.37481 10.7824 5.28041 10.7304 5.23241C10.68 5.18601 10.5264 5.14441 10.2892 5.13241H5.0588C4.844 5.14041 4.7044 5.18121 4.6368 5.23921C4.5848 5.28361 4.5456 5.40601 4.5452 5.61761L4.544 10.3256C4.564 10.5312 4.6092 10.6684 4.6672 10.7368C4.7112 10.7888 4.8476 10.8408 5.0484 10.8664H10.2948C10.5404 10.8712 10.6852 10.8344 10.734 10.7852C10.788 10.7304 10.8272 10.5864 10.8272 10.3508V9.53281C10.8272 9.38601 10.9492 9.26641 11.1 9.26641C11.2504 9.26641 11.3724 9.38601 11.3724 9.53281V10.3508C11.3724 10.7108 11.2988 10.98 11.1264 11.1548C10.9488 11.3348 10.6664 11.4068 10.2892 11.3988L5.016 11.3976C4.6572 11.356 4.4 11.2576 4.2468 11.0764C4.108 10.9124 4.0308 10.6784 4 10.3512V5.61721C4.0008 5.26681 4.0848 5.00321 4.2776 4.83841C4.4544 4.68641 4.7096 4.61241 5.0484 4.59961L10.3024 4.60001ZM11.3336 6.88161C11.7016 6.88161 12 7.17321 12 7.53281V8.41761C12 8.77721 11.7016 9.06881 11.3336 9.06881H8.6684C8.3004 9.06881 8.002 8.77681 8.002 8.41761V7.53281C8.002 7.17321 8.3004 6.88161 8.6684 6.88161H11.3336ZM9.3348 7.65761C9.1508 7.65761 9.0016 7.80161 9.0016 7.97881C9.0016 8.15601 9.1508 8.30001 9.3348 8.30001C9.5188 8.30001 9.668 8.15601 9.668 7.97881C9.668 7.80161 9.5188 7.65721 9.3348 7.65721" fill="white"/>
</g>
<defs>
<clipPath id="clip0_2060_49031">
<rect width="8" height="8" fill="white" transform="translate(4 4)"/>
</clipPath>
</defs>
</svg>
