<svg width="17" height="17" viewBox="0 0 17 17" fill="none" xmlns="http://www.w3.org/2000/svg">
<path d="M15.5062 9.55655C15.259 9.21527 15.1259 8.80463 15.1259 8.38321C15.1259 7.9618 15.259 7.55115 15.5062 7.20988L16.0129 6.50988C16.0749 6.4244 16.1156 6.32543 16.1319 6.22112C16.1481 6.11681 16.1393 6.01014 16.1062 5.90988C16.0728 5.81067 16.0169 5.72054 15.9429 5.64652C15.8689 5.5725 15.7788 5.51661 15.6796 5.48321L14.8596 5.21655C14.4579 5.08697 14.1077 4.83311 13.8597 4.49161C13.6117 4.1501 13.4785 3.73862 13.4796 3.31655V2.44988C13.4795 2.34466 13.4545 2.24094 13.4067 2.14723C13.3588 2.05351 13.2895 1.97245 13.2043 1.91068C13.1191 1.84891 13.0205 1.80817 12.9166 1.79181C12.8126 1.77545 12.7063 1.78393 12.6062 1.81655L11.7796 2.08321C11.3782 2.21308 10.9461 2.21273 10.545 2.08222C10.1439 1.9517 9.79431 1.69771 9.54624 1.35655L9.03957 0.656546C8.97488 0.575419 8.89274 0.50991 8.79925 0.464887C8.70577 0.419864 8.60334 0.396484 8.49957 0.396484C8.39581 0.396484 8.29338 0.419864 8.19989 0.464887C8.10641 0.50991 8.02427 0.575419 7.95957 0.656546L7.45291 1.35655C7.20484 1.69771 6.85525 1.9517 6.45414 2.08222C6.05302 2.21273 5.6209 2.21308 5.21957 2.08321L4.39291 1.81655C4.29287 1.78393 4.18653 1.77545 4.08258 1.79181C3.97864 1.80817 3.88004 1.84891 3.79486 1.91068C3.70968 1.97245 3.64033 2.05351 3.59248 2.14723C3.54464 2.24094 3.51965 2.34466 3.51957 2.44988V3.31655C3.5206 3.73862 3.38748 4.1501 3.13944 4.49161C2.8914 4.83311 2.54127 5.08697 2.13957 5.21655L1.31957 5.48321C1.22037 5.51661 1.13023 5.5725 1.05622 5.64652C0.982198 5.72054 0.926305 5.81067 0.892908 5.90988C0.859849 6.01014 0.851071 6.11681 0.867297 6.22112C0.883524 6.32543 0.92429 6.4244 0.986241 6.50988L1.49291 7.20988C1.74014 7.55115 1.87325 7.9618 1.87325 8.38321C1.87325 8.80463 1.74014 9.21527 1.49291 9.55655L0.986241 10.2565C0.92429 10.342 0.883524 10.441 0.867297 10.5453C0.851071 10.6496 0.859849 10.7563 0.892908 10.8565C0.926305 10.9558 0.982198 11.0459 1.05622 11.1199C1.13023 11.1939 1.22037 11.2498 1.31957 11.2832L2.13957 11.5499C2.54127 11.6795 2.8914 11.9333 3.13944 12.2748C3.38748 12.6163 3.5206 13.0278 3.51957 13.4499V14.3165C3.51965 14.4218 3.54464 14.5255 3.59248 14.6192C3.64033 14.7129 3.70968 14.794 3.79486 14.8557C3.88004 14.9175 3.97864 14.9583 4.08258 14.9746C4.18653 14.991 4.29287 14.9825 4.39291 14.9499L5.21291 14.6832C5.61509 14.5512 6.04884 14.5504 6.45149 14.681C6.85414 14.8116 7.20483 15.0669 7.45291 15.4099L7.95957 16.1099C8.02182 16.1946 8.10313 16.2635 8.19694 16.311C8.29075 16.3585 8.39443 16.3833 8.49957 16.3833C8.60472 16.3833 8.70839 16.3585 8.8022 16.311C8.89602 16.2635 8.97733 16.1946 9.03957 16.1099L9.54624 15.4099C9.79472 15.0674 10.1454 14.8125 10.548 14.6819C10.9505 14.5513 11.384 14.5518 11.7862 14.6832L12.6062 14.9499C12.7063 14.9825 12.8126 14.991 12.9166 14.9746C13.0205 14.9583 13.1191 14.9175 13.2043 14.8557C13.2895 14.794 13.3588 14.7129 13.4067 14.6192C13.4545 14.5255 13.4795 14.4218 13.4796 14.3165V13.4499C13.4785 13.0278 13.6117 12.6163 13.8597 12.2748C14.1077 11.9333 14.4579 11.6795 14.8596 11.5499L15.6796 11.2832C15.7788 11.2498 15.8689 11.1939 15.9429 11.1199C16.0169 11.0459 16.0728 10.9558 16.1062 10.8565C16.1393 10.7563 16.1481 10.6496 16.1319 10.5453C16.1156 10.441 16.0749 10.342 16.0129 10.2565L15.5062 9.55655ZM11.6396 7.52121L8.30624 10.8545C8.18122 10.9795 8.01168 11.0497 7.83491 11.0497C7.65813 11.0497 7.48859 10.9795 7.36357 10.8545L5.36357 8.85455C5.2999 8.79305 5.24911 8.71948 5.21417 8.63815C5.17923 8.55681 5.16084 8.46933 5.16007 8.38081C5.1593 8.29229 5.17617 8.20451 5.20969 8.12258C5.24321 8.04065 5.29272 7.96621 5.35531 7.90362C5.41791 7.84102 5.49234 7.79152 5.57427 7.758C5.6562 7.72448 5.74399 7.70761 5.83251 7.70838C5.92103 7.70915 6.00851 7.72754 6.08984 7.76248C6.17118 7.79742 6.24474 7.84821 6.30624 7.91188L7.83291 9.44055L10.6949 6.57855C10.8206 6.45711 10.989 6.38991 11.1638 6.39143C11.3386 6.39295 11.5058 6.46306 11.6295 6.58667C11.7531 6.71027 11.8232 6.87748 11.8247 7.05228C11.8262 7.22708 11.759 7.39548 11.6376 7.52121H11.6396Z" fill="#FFD700"/>
</svg>
